<?xml version="1.0" encoding="utf-8"?>
<!-- Generator: Adobe Illustrator 24.1.2, SVG Export Plug-In . SVG Version: 6.00 Build 0)  -->
<svg version="1.1" id="レイヤー_1" xmlns="http://www.w3.org/2000/svg" xmlns:xlink="http://www.w3.org/1999/xlink" x="0px"
	 y="0px" viewBox="0 0 100 100" style="enable-background:new 0 0 100 100;" xml:space="preserve">
<style type="text/css">
	.st0{fill:#FFFFFF;}
</style>
<g>
	<path d="M20.3,79c-4-4-6.3-9-8.3-13.8c-2-5-3.1-10.2-3.1-15.6s1.6-10.5,3.6-15.5c2-4.8,4.7-9.3,8.6-13.2c4-4,8.1-7.4,12.9-9.4
		C39,9.4,44.3,8,49.7,8s10.5,2,15.5,4c4.8,2,9.6,4.4,13.6,8.3c4,4,6.4,8.7,8.4,13.5c2.1,5,3.1,10.2,3.1,15.6s-0.6,10.7-2.7,15.7
		c-2,4.8-4.5,9.8-8.5,13.7c-4,4-8.8,6.6-13.6,8.6c-5,2.1-10.3,3.5-15.7,3.5s-10.4-2.2-15.4-4.2C29.4,84.9,24.3,83,20.3,79z"/>
</g>
<g>
	<g>
		<g>
			<circle class="st0" cx="39.6" cy="73.1" r="5.6"/>
			<circle class="st0" cx="63.4" cy="73.1" r="5.6"/>
			<path class="st0" d="M35.1,36l-1.9-5.9c-0.8-2.3-2.9-3.9-5.4-3.9h-4.2c-0.7,0-1.3,0.6-1.3,1.3s0.6,1.3,1.3,1.3h4.2
				c1.4,0,2.6,0.9,3,2.2l7.9,24l-0.6,1.4c-0.7,1.8-0.5,3.8,0.5,5.5c1,1.6,2.8,2.6,4.7,2.6h24.4c0.7,0,1.3-0.6,1.3-1.3
				c0-0.7-0.6-1.3-1.3-1.3H43.3c-1.1,0-2-0.6-2.6-1.5c-0.6-0.9-0.7-2-0.3-3l0.8-1.9c0.1-0.3,0.1-0.6,0.1-0.9l-0.4-0.9L66.4,51
				c1.9-0.2,3.4-1.5,3.8-3.3l2.6-11.1L35.1,36z"/>
		</g>
	</g>
</g>
</svg>
