<?xml version="1.0" encoding="utf-8"?>
<!-- Generator: Adobe Illustrator 24.1.2, SVG Export Plug-In . SVG Version: 6.00 Build 0)  -->
<svg version="1.1" id="レイヤー_1" xmlns="http://www.w3.org/2000/svg" xmlns:xlink="http://www.w3.org/1999/xlink" x="0px"
	 y="0px" viewBox="0 0 100 100" style="enable-background:new 0 0 100 100;" xml:space="preserve">
<style type="text/css">
	.st0{fill:none;stroke:#000000;stroke-width:4;stroke-linejoin:round;stroke-miterlimit:10;}
	.st1{fill:none;stroke:#000000;stroke-width:4;stroke-linecap:round;stroke-linejoin:round;stroke-miterlimit:10;}
</style>
<g>
	<path class="st0" d="M91.3,50.5c0,5.6-1.9,10.8-3.9,15.6c-2.1,5-5,9.5-8.8,13.3c-3.8,3.8-8.5,6.3-13.5,8.4c-4.8,2-9.9,3.3-15.4,3.3
		c-5.6,0-10.9-0.5-15.8-2.5c-5-2.1-9.8-4.9-13.6-8.7c-3.8-3.8-6-8.8-8.1-13.8c-2-4.8-3.7-9.9-3.7-15.5c0-5.6,1.6-10.7,3.6-15.5
		c2.1-5,5-9.4,8.8-13.2c3.8-3.8,8-7.1,13-9.2c4.8-2,10.1-3.7,15.7-3.7c5.6,0,10.9,1.6,15.7,3.6c5,2.1,9.8,4.8,13.6,8.6
		c3.8,3.8,5.8,8.9,7.9,13.9C89,39.9,91.3,44.9,91.3,50.5z"/>
	<path class="st1" d="M21.3,50.5c0-3.7,0.9-7.6,2.2-10.9c1.4-3.4,3.8-6.5,6.4-9c2.5-2.5,6.4-3.3,9.7-4.7c3.2-1.3,6.4-2,10.2-2"/>
	<path class="st1" d="M71,67.8c-2.6,3.1-5.7,5.9-9.4,7.7c-3.6,1.7-7.6,3.3-11.9,3.3"/>
	<path class="st1" d="M77.6,50.5c0,3.3-0.9,6.4-2,9.3"/>
</g>
</svg>
