<?xml version="1.0" encoding="utf-8"?>
<!-- Generator: Adobe Illustrator 24.1.2, SVG Export Plug-In . SVG Version: 6.00 Build 0)  -->
<svg version="1.1" id="レイヤー_1" xmlns="http://www.w3.org/2000/svg" xmlns:xlink="http://www.w3.org/1999/xlink" x="0px"
	 y="0px" viewBox="0 0 100 100" style="enable-background:new 0 0 100 100;" xml:space="preserve">
<style type="text/css">
	.st0{fill:none;stroke:#000000;stroke-width:4;stroke-linecap:round;stroke-linejoin:round;stroke-miterlimit:10;}
</style>
<path class="st0" d="M8.5,49.7c0-5.6,1.9-10.8,3.9-15.6c2.1-5,5-9.5,8.8-13.3s8.5-6.3,13.5-8.4c4.8-2,9.9-3.3,15.4-3.3
	c5.6,0,10.9,0.5,15.8,2.5c5,2.1,9.8,4.9,13.6,8.7c3.8,3.8,6,8.8,8.1,13.8c2,4.8,3.7,9.9,3.7,15.5s-1.6,10.7-3.6,15.5
	c-2.1,5-5,9.4-8.8,13.2c-3.8,3.8-8,7.1-13,9.2c-4.8,2-10.1,3.7-15.7,3.7s-10.9-1.6-15.7-3.6c-5-2.1-9.8-4.8-13.6-8.6
	c-3.8-3.8-5.8-8.9-7.9-13.9C10.8,60.2,8.5,55.2,8.5,49.7z"/>
<path class="st0" d="M24.7,60.4c-1.5-3.3-3.1-6.8-3.1-10.5c0-3.8,1.3-7.4,2.7-10.7c1.4-3.4,3.4-6.5,6-9.1"/>
<path class="st0" d="M60.8,75.7c-3.3,1.4-6.9,2.5-10.7,2.5s-7.4-1.1-10.7-2.5"/>
</svg>
