<?xml version="1.0" encoding="utf-8"?>
<!-- Generator: Adobe Illustrator 24.1.2, SVG Export Plug-In . SVG Version: 6.00 Build 0)  -->
<svg version="1.1" id="レイヤー_1" xmlns="http://www.w3.org/2000/svg" xmlns:xlink="http://www.w3.org/1999/xlink" x="0px"
	 y="0px" viewBox="0 0 100 100" style="enable-background:new 0 0 100 100;" xml:space="preserve">
<style type="text/css">
	.st0{fill:none;stroke:#000000;stroke-width:4;stroke-linecap:round;stroke-linejoin:round;stroke-miterlimit:10;}
</style>
<g>
	<g>
		<path class="st0" d="M22,79.7C16.8,74.4,9,68.9,7.2,62.2c-1.9-6.9-0.8-16.5,1-23.4C10,32,13.5,22.9,18.8,17.6
			c5.3-5.3,16.1-2.2,22.8-4c6.9-1.9,15-10.2,21.9-8.3c6.7,1.8,15,7.4,20.3,12.7c5.3,5.3,5.2,15.1,7,21.8c1.9,6.9,4.1,14.8,2.2,21.7
			c-1.8,6.7-6.2,13.6-11.5,18.9c-5.3,5.3-12.6,8.2-19.3,10c-6.9,1.9-15.6,6-22.6,4.2C32.9,92.7,27.3,85,22,79.7z"/>
	</g>
	<path class="st0" d="M39.3,22.3c-0.8,1.4-0.3,3.3-1.3,4.7c-1.2,1.5-2.4,3-3.5,4.6c-1.2,1.7-2.6,3.2-3.9,4.9
		c-1.7,2.3-2.9,4.7-4.4,7.1c-2.6,4.3-1.1,8.7,0.6,13c1.2,3,3.1,5.5,5.7,7.3c1.3,0.9,2.9,2.4,4.6,2.6"/>
	<path class="st0" d="M61,19.3c0,2.9,0.3,5.8,1,8.6c0.8,3.2,1.4,6.4,2.9,9.4c1.3,2.5,3.2,4.7,6.1,5.3c1.3,0.2,2.7,0.2,3.9-0.3
		c0.8-0.3,2.4-0.9,2.9-1.6"/>
	<path class="st0" d="M57.3,77.4c0-3.9-0.2-8.1,1.1-11.7c0.9-2.4,2.3-3.9,5-4c1.6-0.1,3.2,0,4.8,0c1.3,0,2.7,0.2,4-0.2
		c1-0.3,2.3-0.7,3-1.5c0.8-1,1.6-2.6,2.1-3.7c0.4-1.2,0.7-2.2-0.8-2.7c-1-0.4-2.2-0.5-3.3-0.4c-1.2,0-2.2-0.2-3.4-0.4
		c-1.6-0.2-3.2-0.2-4.7-0.7c-1.8-0.6-3.2-1.1-4.9-2.1c-2.6-1.6-5.2-3.6-7-6.1c-1.7-2.3-3-5-4-7.7c-0.5-1.5-1.1-2.9-1.4-4.5
		c-0.2-1,0.1-2.5-0.7-3.3"/>
	<path class="st0" d="M38.5,51.2c3,3,6.1,6.2,7.9,10.2c0.5,1,1.1,2.3,1.4,3.3c0.4,1.2,0.1,2.9,0.1,4.1c0,2.6-0.6,4.8-1.8,7.1
		c-0.6,1.2-1.8,2.5-2.7,3.5c-0.8,0.8-1.8,1.7-3,1.9"/>
</g>
</svg>
