<?xml version="1.0" encoding="utf-8"?>
<!-- Generator: Adobe Illustrator 24.1.2, SVG Export Plug-In . SVG Version: 6.00 Build 0)  -->
<svg version="1.1" id="レイヤー_1" xmlns="http://www.w3.org/2000/svg" xmlns:xlink="http://www.w3.org/1999/xlink" x="0px"
	 y="0px" viewBox="0 0 100 100" style="enable-background:new 0 0 100 100;" xml:space="preserve">
<style type="text/css">
	.st0{fill:none;stroke:#000000;stroke-width:4;stroke-linejoin:round;stroke-miterlimit:10;}
	.st1{fill:none;stroke:#000000;stroke-width:4;stroke-linecap:round;stroke-linejoin:round;stroke-miterlimit:10;}
</style>
<g>
	<path class="st0" d="M94.2,47.9c0,7.5,2.1,17.2-1.4,23.2c-3.6,6.2-11.4,12.4-17.6,16c-6,3.5-15.2,7.8-22.6,7.8
		c-7.5,0-12.8-10.9-18.8-14.4c-6.2-3.6-18.7-2.6-22.3-8.8C7.9,65.6,6,55.4,6,47.9c0-7.5,7.7-14.3,11.2-20.4
		c3.6-6.2,7.4-13.6,13.6-17.2c6-3.5,14.2-5.2,21.7-5.2c7.5,0,14.8,3.3,20.8,6.8c6.2,3.6,15.9,6.5,19.5,12.8
		C96.2,30.7,94.2,40.4,94.2,47.9z"/>
</g>
<path class="st1" d="M42.6,18.5c1.2,7.7-8.6,8.3-13,12.2c-6.9,7.5-12.3,21.4-2.2,28.6"/>
<path class="st1" d="M64.5,28.4c3.2,0.9,6.7,0.4,9.9,1.2c4.7,3,5.6,10.4,2.5,14.9c-6.3,8-12.2,16.6-8.1,27.1"/>
<path class="st1" d="M81.1,61.1c0.1,2.9,0.8,6-0.6,8.7"/>
<path class="st1" d="M43.4,69.8c0.9-7.1,1.4-18,5.7-24.7c2-3.1,6.9-2,7.4,1.6c1.6,10.2-2,21.3,1.2,31.5"/>
</svg>
