<?xml version="1.0" encoding="utf-8"?>
<!-- Generator: Adobe Illustrator 24.1.2, SVG Export Plug-In . SVG Version: 6.00 Build 0)  -->
<svg version="1.1" id="レイヤー_1" xmlns="http://www.w3.org/2000/svg" xmlns:xlink="http://www.w3.org/1999/xlink" x="0px"
	 y="0px" viewBox="0 0 100 100" style="enable-background:new 0 0 100 100;" xml:space="preserve">
<style type="text/css">
	.st0{fill:none;stroke:#000000;stroke-width:4;stroke-linecap:round;stroke-linejoin:round;stroke-miterlimit:10;}
</style>
<g>
	<g>
		<path class="st0" d="M20,82.6c-8-8-17-19-17-29.5s6.5-24,14.5-32s21.5-15,32-15s18.6,12.4,26.6,20.4s20.9,16.1,20.9,26.6
			S90.4,78,82.4,86S60,93.8,49.5,93.8S28.1,90.6,20,82.6z"/>
	</g>
	<path class="st0" d="M39.4,18.7c-1.4,2.9-3.7,5.4-5.6,8.1c-1.9,2.7-4.2,4.9-6,7.6c-1.3,2-2.9,3.9-3.8,6.1c-0.7,1.7-0.3,3.7-0.4,5.5
		c0,4.7,1.7,9.1,3,13.5c0.6,2.2,1.5,4.3,2.3,6.4c0.3,0.8,0.8,1.4,1.2,2.1c0.6,1,1.5,2.4,2.5,3.2"/>
	<path class="st0" d="M54.1,63.4c-1.6-1.8-2.9-3.4-4.1-5.4c-1.3-2.2-2.5-4.6-3.2-7.1c-0.9-3-1.3-6.2-0.1-9.1c0.4-1.1,1.2-2,2.1-2.7
		c0.7-0.6,1.3-1.4,2.1-1.7c2.5-1,5.2,0.3,6.9,2.1c2.9,2.9,2.5,7.8,4,11.4c1.2,2.9,4,5.6,7,6.6c3,1.1,6.5,2.2,9.8,2.2"/>
	<path class="st0" d="M41.7,64.1c0.6,1.2,0.8,2.5,1.3,3.7c0.5,1.2,1.2,2.3,1.9,3.4c1.2,2,2.6,3.7,4.2,5.4c1.4,1.5,2.8,3.1,4.8,3.9
		c1.9,0.7,3.8,1.1,5.8,0.9c1.5-0.1,2.8-1.2,3.7-2.3c0.9-1.2,1.7-2.5,2.6-3.6c0.9-1.2,2-2.2,3-3.2c1.4-1.4,3.3-3.6,5.6-3.2
		c1,0.2,2,0.6,3,0.9c1,0.3,2.5,0.5,3.4,1"/>
</g>
</svg>
