<?xml version="1.0" encoding="utf-8"?>
<!-- Generator: Adobe Illustrator 24.1.2, SVG Export Plug-In . SVG Version: 6.00 Build 0)  -->
<svg version="1.1" id="レイヤー_1" xmlns="http://www.w3.org/2000/svg" xmlns:xlink="http://www.w3.org/1999/xlink" x="0px"
	 y="0px" viewBox="0 0 380 130" style="enable-background:new 0 0 380 130;" xml:space="preserve">
<style type="text/css">
	.st0{stroke:#000000;stroke-width:3;stroke-linejoin:round;stroke-miterlimit:10;}
</style>
<g>
	<path class="st0" d="M57,117.5c-2.8-0.5-5.4-1.4-7.8-2.6c-2.4-1.2-4.6-3-6.7-5.3c-8.4-10.3-13-21.9-13.8-35
		c-0.8-13.1-1.5-26-2.2-38.8V19.7c0.2-0.7,0.3-1.4,0.5-2c0.2-0.6,0.6-1.1,1.3-1.4c0.5-0.3,1.1-0.6,1.6-0.7c0.5-0.1,1.1-0.1,1.8-0.1
		c0.5,0.2,1.1,0.5,1.6,1.1c0.5,0.5,0.9,1.1,1.1,1.6v2.4l-0.3,0.3v15.1c0.7,12.3,1.4,24.7,2.1,37.2c0.7,12.5,5.3,23.6,13.7,33.1
		c1.8,1.4,3.7,2.4,5.9,3c2.2,0.6,4.5,0.8,7,0.7c4-0.3,7.7-1.5,10.9-3.5c3.2-2,6.4-4.4,9.3-7.1c1.9-2.5,3.6-5,5-7.8
		c1.4-2.7,2.6-5.5,3.7-8.3c0.6-0.3,1.2-0.6,1.7-0.7c0.5-0.1,1.1-0.1,1.8-0.1c0.5,0.2,1.1,0.5,1.6,1.1c0.5,0.5,0.9,1.1,1.1,1.6v3.4
		c-1.1,3-2.4,5.9-4.1,8.7c-1.7,2.8-3.7,5.6-6,8.2c-4.2,3.9-8.9,7-13.9,9.3C68.7,117.1,63.1,118,57,117.5z"/>
	<path class="st0" d="M150,115.8l-3.5-1.7c-1.8-3.5-2.7-7.2-2.9-11c-0.2-3.9-0.4-7.7-0.8-11.4V73.2l1.3-21.6v-12
		c0.7-3.9,1.2-7.8,1.6-11.8c0.3-4,1.2-8,2.5-11.8c0.6-0.7,1.3-1.1,2-1.2c0.7-0.1,1.5-0.1,2.3-0.1c1.1,0.5,1.8,1.2,2,2.1
		c0.2,0.9,0.2,1.8,0.1,2.6c-1.1,3.3-1.7,6.7-2,10.3c-0.3,3.5-0.7,6.9-1.4,10.3v11.7c-0.4,3.6-0.6,7.2-0.8,10.7
		c-0.2,3.5-0.4,7.2-0.5,10.8v18.4l1.4,15.1h-0.7l4.6-5c0.8-0.4,1.6-0.9,2.3-1.2c0.7-0.4,1.8-0.5,3.1-0.3c1.1,0.5,1.7,1.2,1.9,2.1
		c0.2,0.9,0.2,1.8-0.1,2.9L152,115.4L150,115.8z M198,118.7c-2.1-0.7-4.2-1.4-6.2-2.2c-2-0.7-3.8-2-5.3-3.9
		c-1.5-1.7-2.6-3.4-3.2-5.3c-0.7-1.8-1.1-3.9-1.2-6.2c0.2-1.5,0.5-2.8,1-4.1c0.5-1.2,1.2-2.5,2.2-3.7c2.8-2.5,5.9-4.3,9.4-5.2
		c3.5-0.9,7.1-1.4,11-1.4l8,1.2V74.8l-1.2-15.5h-12.4c-1.9,0.4-3.9,0.5-6,0.5c-2.1,0-4.1,0-6.2,0l-2.2-0.9c-0.6-0.7-0.9-1.4-0.9-2.2
		c0-0.7,0-1.5,0-2.2l0.9-1.4l3.4-0.7l8.1,0.3l2.6-0.5h12.5v-4.7l-0.5-9.2V27.9h-5.3l-2.4,0.3l-7-0.3l-3.9,0.8l-2.6-1.1l-0.7-3.9
		l0.9-1.4c2.2-0.6,4.3-1.1,6.4-1.3c2.1-0.3,4.3-0.3,6.7-0.1l1.8,0.3l0.3-0.3h16.3c2.1,0.4,4.4,0.6,6.8,0.7c2.4,0.1,4,0.4,4.8,1.1V23
		c-0.4-1.7-0.8-3.4-1.3-5.2c-0.5-1.8-0.8-3.8-0.8-6.1l2.2-2.2h3.2c1.5,3.2,2.5,6.2,3,9.1c0.5,2.9,1.1,6,1.6,9.1
		c-0.5,1.2-1.2,2-2.1,2.2c-0.9,0.2-1.8,0.2-2.9-0.1l-2.4-2.6v-0.4h2c-0.8,0.9-1.4,1.6-2,2.1l-3.2,0.3c-2.2-0.3-4.4-0.7-6.7-0.9
		c-2.3-0.3-4.2-0.4-5.8-0.4v10.4l0.8,14.1l2.6,0.4c1.5-0.3,3.1-0.6,4.7-0.7c1.7-0.1,3.4-0.1,5.1-0.1l5.3,0.3l5.8-0.3
		c1.1,0.6,1.8,1.4,1.9,2.3c0.1,0.9,0.2,1.9,0.2,3c-2.1,1.4-4.3,2.1-6.4,2c-2.2-0.1-4.3,0-6.4,0.1l-6.2-0.3l-5.5,0.8l-1.3-0.1v0.9
		l1.3,14.2v15.8c3.4,0.7,6.9,2,10.5,4c3.6,2,7.3,4.1,11.2,6.2l0.3,3.5c-0.5,1.1-1.2,1.8-2.1,2c-0.9,0.2-1.8,0.2-2.8-0.1
		c-3.1-1.8-6.2-3.5-9.3-5.2c-3.2-1.7-6-3-8.5-3.7c-0.4,2.4-1,5-1.9,7.8c-0.9,2.8-2.6,5.3-5.1,7.6c-2.2,1.6-4.5,2.9-7,4
		C203.6,117.9,200.9,118.5,198,118.7z M205.1,109.5c1.2-0.7,2.4-1.6,3.5-2.6c1.1-1.1,1.9-2.1,2.4-3.3l2.1-8.4l-11-1.2
		c-2.1,0.2-4.2,0.6-6.3,1.2s-3.9,1.7-5.4,3.1c-0.3,0.7-0.5,1.5-0.8,2.4c-0.3,0.9-0.3,1.8-0.1,2.6c0.3,1.1,0.8,2.2,1.5,3.3
		c0.7,1.1,1.6,2,2.6,2.9c0.9,0.5,1.9,1,3.1,1.5c1.2,0.5,2.2,0.7,3.1,0.7L205.1,109.5z M250.7,28.3l-1.2-0.7
		c-1.4-2.6-2.2-5.3-2.4-8.1c-0.2-2.8-0.5-5.5-1.1-8.3l1.1-2.6l4.2-0.8c1.8,3.2,2.7,6.4,2.9,9.4c0.2,3,0.6,6,1.3,9
		c-0.5,1.2-1.2,2-2.1,2.2C252.6,28.5,251.7,28.5,250.7,28.3z"/>
	<path class="st0" d="M331.4,122.2c-2.8-0.2-5.6-0.6-8.4-1.2c-2.8-0.6-5.2-2.1-7.1-4.3c-2.1-2.1-3.5-4.4-4.3-7
		c-0.8-2.5-1.1-5.3-0.9-8.3c0.7-2.7,1.7-5.2,3-7.5c1.3-2.3,3-4.4,5.1-6.3c3.3-2.3,6.9-3.9,10.8-4.9c3.9-1,8-1.4,12.4-1.2
		c3.2,0.2,6.3,0.5,9.3,1.1c3.1,0.5,6,1.4,8.8,2.6v-1.1c-0.5-2.3-1.4-4.4-2.6-6.3c-1.2-1.9-2.7-3.8-4.5-5.5c-2.8-2.5-5.7-4.6-8.8-6.3
		c-3.1-1.8-6.5-2.6-10.4-2.6c-6.1,0.2-11.8,1.8-17,4.7c-5.2,3-10,6.6-14.6,10.8c-1.4,1.6-2.5,3.3-3.4,5.1c-0.9,1.8-2.2,3.4-3.9,4.6
		h-2.2c-0.5-0.2-1.1-0.5-1.6-1.1c-0.5-0.5-0.9-1.1-1.1-1.6l-0.3-1.6c6.7-10.9,14.3-21.2,22.6-31.2c8.3-9.9,16.6-19.8,24.8-29.7
		c-6.3-0.5-12.6-0.9-18.9-1.1c-6.3-0.2-12.5-0.9-18.7-2.1c-0.4-0.5-0.7-1.1-0.9-1.8c-0.3-0.7-0.3-1.4-0.1-2.1
		c0.2-0.5,0.5-1.1,1.1-1.6c0.5-0.5,1.1-0.9,1.6-1.1h3.7c7.5,0.5,15.2,1,23,1.4c7.8,0.4,15.4,1.2,22.7,2.2c0.5,0.5,0.8,1.1,0.8,1.7
		c0,0.6,0,1.3,0,2c-0.2,0.5-0.5,1.1-1.1,1.6c-0.5,0.5-1.1,0.9-1.6,1.1c-0.7,0-1.2,0.3-1.6,0.8c-0.4,0.5-0.8,1-1.3,1.3
		c-4.7,5.3-9.4,10.7-14.1,16.2c-4.6,5.4-9.2,11-13.5,16.6h0.8c3.2-1.2,6.4-2,9.9-2.4c3.4-0.3,7-0.5,10.6-0.5c3.9,1.1,7.5,2.7,10.9,5
		c3.4,2.3,6.6,4.9,9.6,7.9c3.1,3.3,5.3,7,6.7,10.9c1.4,3.9,1.9,8.3,1.6,13c-0.5,3.3-1.5,6.4-3,9.3c-1.5,2.8-3.4,5.5-5.8,8
		c-4.4,2.8-8.8,5.6-13.1,8.3C342,120.9,337,122.2,331.4,122.2z M340.6,112.5c3.7-1.9,7.4-4,11-6.3c3.7-2.3,6.3-5.7,7.9-10.1l0.5-2.6
		c-3.7-1.4-7.5-2.5-11.4-3.3c-3.9-0.8-8.1-1.1-12.5-0.9c-2.6,0.4-5.2,1-7.6,2c-2.5,1-4.7,2.4-6.8,4.3c-0.9,1.6-1.8,3.2-2.6,4.8
		c-0.9,1.6-1.1,3.5-0.8,5.6l3.2,5.5c1.8,1.8,3.8,2.7,6.2,2.8c2.4,0.1,4.8,0.2,7.2,0.4L340.6,112.5z"/>
</g>
</svg>
