<?xml version="1.0" encoding="utf-8"?>
<!-- Generator: Adobe Illustrator 24.1.2, SVG Export Plug-In . SVG Version: 6.00 Build 0)  -->
<svg version="1.1" id="レイヤー_1" xmlns="http://www.w3.org/2000/svg" xmlns:xlink="http://www.w3.org/1999/xlink" x="0px"
	 y="0px" viewBox="0 0 100 100" style="enable-background:new 0 0 100 100;" xml:space="preserve">
<style type="text/css">
	.st0{fill:none;stroke:#000000;stroke-width:0.75;stroke-miterlimit:10;}
</style>
<g>
	<path class="st0" d="M95.3,98.4c-2.5,0.2-4.4,0.1-6.5-0.2c-1.3-0.2-2.7-0.1-4,0.2c-1.8,0.4-3.4,0.5-5.2,0.2
		c-0.9-0.2-1.9-0.3-2.9-0.2c-6.4,0.5-12.6-1.4-18.8,0.2c-1,0.3-2.1,0.3-3.2,0.3c-12.2-0.8-24.1-1-36.3-1c-0.4,0-0.8,0-1.1-0.1
		c-4.5-0.4-8,1.3-12.3-0.2c-4.4,0.2-3.9-3.3-3.5-6.3c0-0.3,0.1-0.7,0.1-1c0.2-5.5-0.5-10.4-0.2-15.8c0-0.6,0.2-1.2,0.3-1.7
		c0.9-3.6,0-6.8-0.3-10.3c-0.1-1,0-2,0.2-3c0.5-2.6,0.7-4.5,0.3-7.3c-0.7-4.7,0.7-8.5-0.6-12.9c-0.7-4.7,1.1-8.3,0.8-12.9
		C0.4,20.8,2.2,15.6,2,9.9c0-0.5-0.1-1.1-0.2-1.6c-1-5.3,0.6-7,5.6-6.5c0.9,0.1,1.9,0.1,2.8-0.1c3.7-0.7,6.9,0.5,10.6,0
		c0.8-0.1,1.7-0.1,2.5,0c6.1,0.5,11.8-0.3,17.8-0.6c1.2-0.1,2.3,0,3.5,0.4c4.8,1.4,5.5-1,10.4-0.6c0.8,0.1,1.5,0.3,2.2,0.5
		c3.4,1,6.5,0.9,9.8,0.2c1.4-0.3,2.8-0.4,4.3-0.1c2.2,0.4,4,0.3,6.5-0.2c2.2,0,2.2,0.9,4.3,0.9c4.7-0.8,8.6,0.5,13.1-0.8
		c6.6,0.1,1.9,21.5,3,28.4c0.1,0.6,0.1,1.3,0.1,1.9c-0.1,3.6,0.4,6.7-0.1,10.2c-0.1,1-0.1,2.1,0,3.2c0.3,2,0.4,3.6,0.1,5.5
		c-0.2,1-0.1,2.1,0,3.1c0.7,4.5,0.5,8.9-0.3,13.3c-0.3,1.5-0.1,3,0.2,4.4c0.8,3.2,0.7,6.3,0,9.5c-0.2,0.9-0.2,1.8-0.2,2.8
		C98.6,88.4,99.2,98.2,95.3,98.4z"/>
</g>
</svg>
