<?xml version="1.0" encoding="utf-8"?>
<!-- Generator: Adobe Illustrator 24.1.2, SVG Export Plug-In . SVG Version: 6.00 Build 0)  -->
<svg version="1.1" id="レイヤー_1" xmlns="http://www.w3.org/2000/svg" xmlns:xlink="http://www.w3.org/1999/xlink" x="0px"
	 y="0px" viewBox="0 0 100 1400" style="enable-background:new 0 0 100 1400;" xml:space="preserve">
<style type="text/css">
	.st0{fill:none;stroke:#000000;stroke-width:0.75;stroke-linecap:round;stroke-linejoin:round;stroke-miterlimit:10;}
</style>
<g>
	<g>
		<g>
			<path d="M93.6,17.9c-0.5,3.5-1.3,7.1-2.3,10.4c-0.8,2.7-1.4,5.3-2.1,7.9c-1,3.9-2.4,7.7-3.5,11.5c-0.4,1.4,0,2.6-0.1,3.9
				c0,0.9,0,1.7-0.2,2.5c-0.4,1.9,0.2,3.4,0.7,5.1c1,3,1.6,5.8,1.8,9c0.1,1.7,0.5,3.3,1.1,5c1,2.7,1.2,5.5,0.8,8.3
				c-0.2,1.5-0.2,2.9,0,4.4c0.4,3.1,0.2,6.2-0.6,9.3c-0.2,0.6-0.5,1.3-0.9,1.9c-0.6,0.9-1.4,1.5-2.5,1.5c-1.7-0.1-3.3-0.2-4.9-0.4
				c-1.6-0.2-3.1-0.4-4.6-0.3c-1.7,0.1-3.3-0.1-4.9-0.6c-0.5-0.2-1-0.2-1.5-0.3c-2.3-0.4-4.6-0.8-6.9-1.3c-2.6-0.5-4.9-1.1-7.6-0.7
				c-2,0.3-3.8-0.1-5.7-0.2c-3.2-0.2-6.5-0.1-9.7,0.2c-5.4,0.5-10.7,1.3-16.2,1.9c-1.9,0.2-4,0.4-6,0.7c-1.5,0.2-3.1,0.5-4.6,0.6
				c-0.5,0.1-1.1,0-1.6-0.1C10.8,98,9.9,97.9,9,97.7c-1.9-0.4-2.9-1.3-3.1-3.1c-0.1-1.2,0-2.3-0.1-3.5c-0.1-1.9-0.4-3.8-0.3-5.8
				c0-3.4,0.3-6.7,0.7-10.1c0.1-0.9,0.6-1.8,0.9-2.6c0.7-1.8,1.1-3.6,1.4-5.5c0.4-2.6,1-5,2.3-7.4c0.9-1.7,1.5-3.4,1.6-5.4
				c0.2-2.3,0.5-4.2,0.1-6.5c-0.3-1.8-0.8-3.5-1.5-5.3c-0.9-2.1-1.3-4.2-1.6-6.5c-0.2-1.9-0.5-3.8-0.8-5.7c-0.2-1.1-0.6-2.3-1-3.3
				c-0.8-2.8-1.1-5.6-1-8.4c0.1-2.2,0.2-4.3,0.3-6.4c0.1-1.5-0.1-2.9,0-4.4C7.1,7,7.2,6.2,7.5,5.4C8.2,3.7,9.6,3,11.5,3
				c0.9,0,1.8,0.2,2.6,0.2c0.8,0,1.7,0,2.5,0c1.7,0.1,3.4,0.4,5.1,0.7c1.4,0.2,2.7,0.3,4,0.6C26.9,4.6,27.9,4.9,29,5
				c2.5,0.3,4.9,0.7,7.4,0.9c2.2,0.2,4.3,0.2,6.5,0.4c0.8,0.1,1.6,0.3,2.3,0.6c1.7,0.7,3.2,0.8,5,0.4c2.1-0.6,4-0.7,6.1-0.1
				c2.9,0.7,5.5,0.6,8.4,0c1.3-0.3,2.5-0.3,3.8-0.1c1.8,0.2,3.4,0.2,5.2,0c0.6-0.1,1.2-0.1,1.8,0.1c1.4,0.5,2.8,0.6,4.3,0.6
				c1.6-0.1,3.2,0.1,4.9,0.2c1.7,0.1,3.4,0,5.2-0.2c0.9-0.1,1.6,0.3,2.2,1c1,1.1,1.5,2.5,1.5,3.9C93.7,14.3,93.6,16,93.6,17.9z
				 M92.7,18.4C92.8,18.4,92.8,18.4,92.7,18.4c0.1-1.8,0.3-3.7,0.2-5.5c0-1.3-0.4-2.6-1.2-3.7c-0.5-0.7-1.2-1-2.1-1
				c-1.3,0.1-2.7,0.2-4,0.2c-2.1-0.1-4.2-0.2-6.2-0.2c-1.5,0-2.7-0.2-4.1-0.6c-0.6-0.2-1.2-0.2-1.8-0.1c-1.6,0.2-3.1,0.3-4.7,0.1
				c-1.6-0.2-3-0.1-4.6,0.2c-2.7,0.5-5.1,0.6-7.7,0c-2.2-0.5-4-0.5-6.2,0.1c-1.7,0.5-3.2,0.3-4.8-0.3c-0.9-0.3-1.8-0.6-2.6-0.7
				c-2.1-0.2-4.2-0.2-6.2-0.4c-2.6-0.2-5-0.5-7.6-0.9c-1.1-0.1-2.2-0.4-3.4-0.6c-1.3-0.2-2.6-0.4-4-0.5c-1.7-0.2-3.4-0.5-5.2-0.7
				c-1-0.1-2.1-0.1-3.2-0.1c-0.7,0-1.4-0.2-2.1-0.1C9.5,3.8,8.5,4.5,8,6.1C7.8,6.7,7.8,7.3,7.7,7.9c-0.1,1.1,0.1,2.1,0,3.2
				c-0.2,2.5-0.3,5-0.4,7.6c-0.1,2.8,0.1,5.7,1,8.4c0.3,1,0.8,2.2,0.9,3.2c0.3,2,0.6,3.9,0.8,5.9c0.3,2.2,0.7,4.3,1.6,6.4
				c0.8,1.7,1.2,3.3,1.5,5.2c0.5,2.7,0.3,4.4,0,7c-0.3,1.9-0.9,3.4-1.7,5c-1.2,2.4-1.9,4.8-2.3,7.5C9,69,8.5,70.8,7.9,72.6
				c-0.3,0.9-0.8,1.8-0.9,2.7c-0.4,3.1-0.6,6.1-0.7,9.2c-0.1,2.3,0.2,4.6,0.3,6.8c0.1,1.1-0.1,2.2,0.1,3.3c0.2,1.5,1,2.1,2.5,2.4
				c0.8,0.1,1.7,0.3,2.5,0.4c0.8,0.1,1.5,0.2,2.2,0.1c1.4-0.1,2.7-0.4,4-0.6c1.6-0.2,3.3-0.3,4.9-0.5c3.8-0.4,7.7-1,11.5-1.4
				c5.9-0.6,11.8-1.3,17.6-0.6c1.1,0.1,2.1,0.1,3.2,0c2.3-0.3,4.3-0.1,6.5,0.3c2.5,0.5,4.9,1,7.4,1.5c1,0.2,2,0.3,3,0.6
				c1.3,0.3,2.6,0.6,4,0.5c1.7-0.1,3.4,0,5.2,0.3c1.5,0.2,3.1,0.3,4.7,0.4c0.8,0,1.4-0.4,1.8-1c0.3-0.4,0.5-0.8,0.7-1.2
				c0.9-2.8,1.1-5.6,0.9-8.5c-0.1-1.9-0.4-3.8-0.2-5.7c0.4-2.9,0.2-5.8-0.9-8.6c-0.5-1.4-0.9-2.7-1-4.2c-0.3-3.7-1.1-7.2-2.3-10.7
				c-0.4-1-0.6-2-0.6-3.1c0-1.1,0.2-2.2,0.3-3.4c0.1-1.7,0-3.3,0.5-5c0.4-1.2,0.9-2.5,1.3-3.8c1-3.3,1.8-6.7,2.8-10.1
				C90.6,28,91.9,23.3,92.7,18.4z"/>
			<path d="M33.7,24.5c-4.2-0.7-6.4-4-6.3-7.8c0.1-3.9,2.8-6.9,6.9-6.5c3.9,0.4,6.5,4.3,6.2,7.9C40.3,21.8,37.7,24.1,33.7,24.5z
				 M33.7,23.7c1.5,0.2,2.4-0.3,3.6-1c2.2-1.4,3.2-4.1,2.5-6.6c-0.3-1.1-0.5-2.1-1.4-3.1c-1.6-1.8-3.6-3-6.4-2.1s-4.5,4.4-3.9,7.1
				C28.9,21.3,30.5,23.3,33.7,23.7z"/>
			<path d="M48.4,41.4c-4.1-0.4-6.2-3.5-6.1-7.1c0.1-3.9,2.6-6.8,6.6-6.8c3.9,0,6.2,3.7,5.9,7.1C54.6,38.4,52.4,41,48.4,41.4z
				 M48.4,40.7c1.4,0.1,2.4-0.3,3.5-1.2c1.9-1.5,2.8-4.2,2.2-6.6c-0.3-1.1-0.4-2-1.3-2.9c-1.6-1.7-3.7-2.5-6.2-1.4
				c-2.5,1.1-4.3,4.5-3.7,7.1C43.8,38.7,45.3,40.4,48.4,40.7z"/>
			<path d="M62.1,42c-3.8-0.7-5.3-3.8-5-7.3c0.4-3.6,3-6.9,7.1-6.7c3.9,0.2,5.9,4.1,5.2,7.5C68.6,39.2,66.1,41.6,62.1,42z
				 M62.2,41.3c1.4,0.2,2.3-0.2,3.5-1c2.2-1.4,3.5-4.1,3.1-6.6c-0.2-1.1-0.2-2.1-1-3c-1.5-1.8-3.5-2.7-6-1.6c-2.6,1.1-4.6,4.5-4.1,7
				C58.1,39,59.2,40.8,62.2,41.3z"/>
			<path d="M61.4,58.8c-4-0.5-5.5-3.9-5.4-7.3c0.1-3.6,2-7.1,6-7c3.8,0.1,5.6,4.2,5.5,7.6C67.3,55.6,65.4,58.5,61.4,58.8z
				 M61.4,58.2c0.8-0.3,1.3-0.2,2-0.6c3.1-1.5,4-5,3-8.1c-0.3-0.8-0.4-1.8-1-2.5c-1.4-1.7-3.2-2.8-5.6-1.5c-2.4,1.2-3.7,4.7-3.3,7.2
				C57,55.9,58.3,57.5,61.4,58.2z"/>
			<path d="M48.1,58.4c-4.1-0.5-6-3.6-6-7.2c0-3.8,2.4-7.2,6.5-7.2c4,0,5.8,4,5.6,7.5C54,55.1,52.2,58,48.1,58.4z M48.2,57.6
				c1.4,0.2,2.3-0.2,3.4-1.1c2-1.6,2.6-4.5,2-6.9c-0.2-1.1-0.4-2.1-1.2-3c-1.5-1.8-3.4-2.7-5.9-1.5c-2.6,1.2-4.3,4.8-3.6,7.4
				C43.6,55.6,45.1,57.3,48.2,57.6z"/>
			<path d="M21.2,59.3c-3.9-0.1-4.6-3.8-3.7-6.6c1-3,1.1-7.4,4.9-7.7c3.7-0.3,5.1,3.9,4.9,7C27,55.3,25.1,58.7,21.2,59.3z
				 M21.4,58.6c1.2,0,2.2-0.4,3.2-1.5c1.6-1.7,2.6-4.6,2.1-7c-0.2-1.1-0.5-2.1-1.1-2.9c-1.1-1.6-3.1-2.5-4.7-1
				c-1.6,1.5-2.9,5.6-3.1,7.7C17.6,56.4,18.6,58.6,21.4,58.6z"/>
			<path d="M63,91.7c-3.8-0.9-5.9-4.1-6-7.6c-0.1-3.7,2-6.5,6-6.3c3.9,0.2,6.6,4.2,6.6,7.8C69.5,89.4,67,91.8,63,91.7z M63,91.1
				c0.3,0.1,0.6,0.1,0.9,0.1c0.5-0.1,0.8,0,1.3-0.2c3.4-1.3,4.5-4.5,3.3-7.7c-0.3-0.9-0.6-1.8-1.4-2.5c-1.7-1.7-3.7-2.9-6.3-1.9
				c-2.6,1-3.8,4.2-3.1,6.7C58.5,88.5,59.9,90.3,63,91.1z"/>
			<path d="M78.1,93.8c-4.2-0.9-6.1-4.2-6.2-8c0-3.9,2.2-6.8,6.4-6.6c3.9,0.2,7.5,4,7.3,7.9C85.3,91.4,82.4,93.8,78.1,93.8z
				 M78.1,93.3c0.9-0.2,1.5-0.1,2.5-0.4c3.6-1.3,5.2-4.7,3.8-8.2c-0.4-0.9-0.7-1.9-1.5-2.6c-1.8-1.7-4.1-3-6.8-1.9s-4,4.3-3.4,7
				C73.4,90.5,74.8,92.3,78.1,93.3z"/>
			<path d="M88.6,19.4c-0.9,3.8-4.2,7.3-8.4,6.9c-4.2-0.3-6.3-4.2-5.8-7.8c0.6-3.9,3.1-7,7.6-6.9C86.8,11.8,88.7,15,88.6,19.4z
				 M82,12.4c-5.2-0.1-7.8,4.2-6.8,8.6c0.6,2.8,2.1,4.1,4.8,4.7c1.8,0.4,3.6-0.5,5-1.7c1.8-1.5,3.2-3.8,2.8-6.1
				C87.2,14.7,85.7,12.5,82,12.4z"/>
			<path d="M24.2,85.5c-0.3,3.6-2.3,7.6-6.5,8s-7.8-3-7.6-7c0.2-4.4,2.7-7.4,7.5-7.7C22.5,78.5,23.7,81.5,24.2,85.5z M23.6,85.6
				c-0.5-3.6-1.7-6.4-6-6.1s-6.7,3.2-6.9,7c-0.1,3.5,3.1,6.7,6.9,6.3S23.3,88.9,23.6,85.6z"/>
			<path d="M68.8,68.7c0,3.4-1.9,6.8-5.9,6.6C59,75,56.3,71.4,56.3,68c-0.1-3.6,1.6-6.7,5.7-6.7C66.1,61.4,68,65.2,68.8,68.7z
				 M62,62c-4.8,0-6.2,4.6-4.6,8.3c1,2.3,2.7,3.8,5.2,4.3c1.7,0.3,3-0.3,4.1-1.5c1.4-1.6,1.9-3.9,1.1-5.8C66.8,64.6,65.4,62,62,62z"
				/>
			<path d="M54.2,67.9c-0.3,3.3-2.1,6.7-6,6.7c-3.9,0-6.5-3.3-6.4-6.7c0.1-3.7,2.4-6.9,6.4-6.9C52.4,60.8,53.7,64.6,54.2,67.9z
				 M48.4,61.6c-4.6,0.1-6.8,4.8-5.4,8.5c0.9,2.4,2.6,3.6,5.1,3.9c1.7,0.2,2.9-0.6,4-1.8c1.4-1.5,1.9-3.8,1.4-5.6
				C52.7,63.9,51.5,61.5,48.4,61.6z"/>
			<path d="M39.8,67.8c-0.4,3.5-2.4,7-6.4,7.3c-4,0.3-6.5-3.4-6-6.7c0.6-3.6,2.2-7,6.4-7.3C38.1,60.8,39.4,64.3,39.8,67.8z
				 M33.1,74.6c3.5-0.5,6-3.5,5.9-6.7c-0.1-3.4-1.5-6.3-5.2-6.2c-3.7,0.1-5.4,3.4-6,6.6c-0.3,1.5,0.3,3.3,1.4,4.6
				C30.3,74.2,31.5,74.5,33.1,74.6z"/>
			<path d="M21.6,61.7c0.8,0,1.4,0.1,2.1,0.9c2.2,2.7,2,6.6,0.1,9.7c-1.2,1.9-2.9,3.4-5.4,3.8c-2.7,0.5-5.1-1.1-6-3.5
				c-0.2-0.6-0.4-1.2-0.4-1.8c-0.1-1.1,0.1-2.4,0.6-3.3C14.8,64.3,17.5,61.9,21.6,61.7z M20.8,62.4c-4.4,0.3-8.5,4.8-7.8,8.9
				c0.4,2.6,2.2,3.9,4.8,4.1c1.8,0.2,3.3-1,4.6-2.2c1.6-1.5,2.6-4.2,2.4-6.1C24.5,64.5,23.9,62.2,20.8,62.4z"/>
			<path d="M25.2,16.2c-0.5,3.4-2.2,7.5-6.6,7.2c-4.3-0.3-7.7-4.4-7.5-8.5c0.2-4.5,2.9-7.5,7.7-6.9C23.9,8.6,24.8,12,25.2,16.2z
				 M18.8,8.7c-5.5-0.6-8.3,4.4-6.5,9c1.1,2.9,3.2,4.4,6,5.1c1.9,0.4,3.1-0.6,4.3-1.9c1.5-1.6,2.2-4,1.7-6.2
				C23.6,11.6,22.7,9.1,18.8,8.7z"/>
			<path d="M72,18.5c-0.7,3.8-3.5,6.8-7.5,7c-2.1,0.1-3.4-0.8-4.5-2.2c-1.1-1.3-1.9-3.2-1.5-4.9c0.8-3.8,2.8-6.8,7.3-6.9
				C70.4,11.3,71.9,14.4,72,18.5z M71.4,18.5c-0.2-3.4-1.7-6.5-5.7-6.4c-4,0.1-6,2.8-6.6,6.3c-0.3,1.6,0.4,3.3,1.5,4.5
				c1.1,1.2,2.2,2,4,1.9C68.2,24.6,70.8,21.8,71.4,18.5z"/>
			<path d="M54.9,83.7c-0.2,3.4-2.2,6.4-6,6.4c-3.8,0-6.7-2.9-6.7-6.3c0-3.7,2.1-6.7,6.2-6.8C52.5,76.9,54.3,80.3,54.9,83.7z
				 M48.5,77.6c-4.5,0.1-6.7,4.6-5.2,8.3c1,2.4,2.8,3.3,5.3,3.6c1.7,0.2,2.9-0.4,4-1.6c1.4-1.5,1.9-3.6,1.3-5.5
				C53.2,79.8,51.7,77.6,48.5,77.6z"/>
			<path d="M39.9,51c-0.3,3.3-2.3,7.3-6.1,7.4s-5.1-3.9-4.9-6.9c0.2-3.3,1.2-7.1,5.2-7.4C38.2,43.8,39.5,47.7,39.9,51z M34.2,44.8
				c-4.4,0.3-5.3,5.7-4.6,9.1c0.4,1.9,1.4,3.5,3.5,3.9c1.8,0.3,3.2-0.6,4.4-2.1c1.3-1.6,2.1-4.1,1.6-6.1
				C38.4,47,37.4,44.5,34.2,44.8z"/>
			<path d="M33.6,77.6c1.3-0.1,2.2,0,3.3,0.8c3.1,2.2,3.8,5.9,2.1,9.2c-1.1,2.1-2.7,3.5-5.2,4.1c-3,0.6-5.3-1.1-6.6-3.7
				c-0.3-0.6-0.6-1.4-0.7-2.2c-0.2-1.8,0.4-3.6,1.5-5.1C29.4,78.9,31.2,77.9,33.6,77.6z M33.5,78.4c-4.7,0.4-7.4,5.2-5.7,9.2
				c1.1,2.6,2.8,3.5,5.5,3.6c1.8,0,3.2-1.1,4.3-2.4c1.4-1.6,2.2-3.9,1.6-5.9C38.2,80,36.7,78.1,33.5,78.4z"/>
			<path d="M80.6,29.1c0.9,0.1,1.7,0.4,2.6,1.3c2.7,3,1.8,7.4-0.8,10.3c-1.6,1.8-3.5,3-5.9,3c-2.6,0-4.1-2.4-4.7-4.5
				c-0.1-0.5-0.2-1.2-0.3-1.8c-0.1-1.1,0-2.3,0.5-3.3C73.9,30.6,76.2,28.7,80.6,29.1z M79.6,29.8c-4.8-0.4-7.9,4.1-7.4,8.2
				c0.3,2.6,1.4,4.1,3.8,5c1.6,0.6,3.2-0.4,4.6-1.4c1.8-1.3,3.5-3.8,3.5-6C84.1,32.4,83,30,79.6,29.8z"/>
			<path d="M80.3,54.2c0.3,2.8-0.9,6.4-4.6,5.9c-3.7-0.5-6.2-4.8-6.1-8c0.1-3.5,2-6.5,5.8-5.8C79.3,47,79.5,51,80.3,54.2z M75.3,47
				c-4.7-0.8-5.9,4.1-4.7,7.7c0.8,2.2,2.4,4.2,4.7,4.8c1.6,0.4,2.5,0,3.3-1.3c1.2-1.6,1-3.5,0.5-5.3C78.4,50.3,78.6,47.5,75.3,47z"
				/>
			<path d="M34.2,26.9c1.2,0,2.2,0.3,3.2,1.1c2.9,2.5,3.5,6.5,1.8,9.7c-1.1,2.1-2.4,3.3-4.8,3.7c-2.9,0.4-4.6-2.1-5.6-4.4
				c-0.3-0.6-0.7-1.6-0.7-2.3c-0.2-2,0.1-4,1.4-5.7C30.7,27.4,32.2,26.9,34.2,26.9z M34,27.7c-5,0-6.4,5-4.9,8.9
				c1,2.4,2.2,3.9,4.8,4.2c1.7,0.2,2.8-0.8,3.9-2.1c1.4-1.6,2.2-3.9,1.6-5.9C38.6,30,37.6,27.7,34,27.7z"/>
			<path d="M50.3,11.6c1.2,0,2.3,0.1,3.3,0.9c3,2.4,3.4,6.1,1.4,9.3c-1.3,2-2.9,3.1-5.4,3.3c-3,0.2-5.1-1.9-6.1-4.5
				c-0.2-0.6-0.5-1.5-0.5-2.1c0-2,0.6-3.7,2.1-5C46.6,12.1,48.3,11.6,50.3,11.6z M55.7,18.3c-0.3-3.4-1.8-6-5.6-6
				c-3.8,0-6,2.2-6.5,5.6c-0.2,1.7,0.5,3.3,1.6,4.5c1.1,1.2,2.3,2,4.1,1.9C52.8,24.3,55.1,21.5,55.7,18.3z"/>
			<path d="M26.1,34.2c-0.2,2.8-0.3,7.7-4.4,7.8s-7.5-4.1-8.3-7.8c-0.9-4,0.7-7.8,5.5-7.8C23.8,26.5,25.1,30.4,26.1,34.2z
				 M19.1,27.2c-5.6,0.1-6.1,5.9-3.8,9.7c1.5,2.4,3.5,4.2,6.1,4.5c1.8,0.2,2.6-0.9,3.2-2.3c0.8-1.8,1.3-4.4,0.5-6.4
				C24,29.9,23,27.1,19.1,27.2z"/>
			<path d="M76.6,62.6c1,0.1,2.1,0.5,3.1,1.3c3,2.3,5.4,6,3.9,9.6c-1,2.3-2.6,3.1-5.1,3.2c-3.1,0.1-5.5-2.4-6.8-5
				c-0.2-0.4-0.4-0.9-0.5-1.3c-0.6-2.3-0.5-4.5,1-6.4C73.4,62.6,74.8,62.4,76.6,62.6z M83.5,70.1c-1.2-3.1-3.1-6.2-6.8-6.7
				c-4.1-0.6-5.3,2-5.2,5.6c0,1.6,1,3.6,2.2,4.8C74.8,75,76.1,76,78,76C81.7,76.1,83.6,73.4,83.5,70.1z"/>
			<path d="M29.3,16.7c0.3-1.9,1-3.4,3-4c0.7-0.2,1.2-0.2,1.9-0.2c0.1,0,0.3,0.2,0.4,0.3c-0.1,0.1-0.2,0.3-0.4,0.3
				c-0.6,0.2-1.2,0.1-1.8,0.3c-1.5,0.5-2.1,1.6-2.3,3c0,0.1,0,0.2,0,0.3c-0.1,0.2-0.2,0.3-0.4,0.5C29.5,17,29.4,16.8,29.3,16.7z"/>
			<path d="M33.9,22.4c-0.1-0.1-0.2-0.2-0.3-0.3c0.1-0.1,0.3-0.3,0.4-0.3c1.2-0.2,2-0.6,2.8-1.4c0.1-0.1,0.4-0.1,0.6-0.1
				c0,0.2,0,0.4-0.1,0.6C36.4,21.8,35.3,22.3,33.9,22.4z"/>
			<path d="M38.7,17.8c-0.1,0.5-0.3,1-0.4,1.4c-0.1,0.1-0.3,0.2-0.4,0.2c-0.1-0.1-0.2-0.3-0.2-0.5c0.1-0.4,0.2-0.8,0.3-1.2
				c0.1-0.2,0.2-0.3,0.3-0.4C38.5,17.5,38.6,17.6,38.7,17.8z"/>
			<path d="M48.5,29.8c0.1,0,0.2,0,0.3,0c0.1,0.1,0.2,0.2,0.4,0.3c-0.1,0.1-0.2,0.3-0.3,0.3c-0.6,0.2-1.2,0.2-1.8,0.5
				c-1.4,0.6-1.9,1.6-2.2,3c0,0.1,0,0.3-0.1,0.4c-0.1,0.1-0.2,0.3-0.4,0.4c-0.1-0.1-0.2-0.3-0.2-0.4c0.2-1.8,0.9-3.2,2.6-4
				C47.4,30,48,29.9,48.5,29.8C48.5,29.8,48.5,29.8,48.5,29.8z"/>
			<path d="M48.7,39.4c-0.1-0.1-0.2-0.2-0.3-0.3c0.1-0.1,0.2-0.3,0.4-0.3c1.1-0.2,1.9-0.7,2.6-1.5c0.1-0.1,0.4-0.1,0.5-0.1
				c0,0.2,0,0.4-0.1,0.6C50.9,38.7,50,39.2,48.7,39.4z"/>
			<path d="M53.1,34.7c-0.1,0.5-0.2,1-0.4,1.4c0,0.1-0.3,0.2-0.4,0.2c0-0.1-0.2-0.3-0.1-0.5c0.1-0.4,0.2-0.8,0.3-1.2
				c0.1-0.2,0.2-0.3,0.3-0.5C52.9,34.4,53,34.5,53.1,34.7z"/>
			<path d="M63.6,30.2c0.1,0.1,0.4,0.2,0.5,0.4c0,0.4-0.3,0.3-0.5,0.4c-0.6,0.1-1.1,0.2-1.6,0.4c-1.5,0.6-2.1,1.6-2.5,3.1
				c0,0.1,0,0.3-0.1,0.4c-0.1,0.1-0.2,0.3-0.3,0.3c-0.1,0-0.2-0.2-0.2-0.3c0.2-1.6,0.9-3.1,2.5-3.9C62.1,30.5,62.8,30.4,63.6,30.2z"
				/>
			<path d="M62.6,40c-0.1-0.1-0.2-0.2-0.3-0.3c0.1-0.1,0.3-0.3,0.4-0.3c1.1-0.2,2-0.6,2.8-1.4c0.1-0.1,0.4-0.1,0.6-0.1
				C66,38,66,38.3,65.9,38.4C64.9,39.3,63.9,39.8,62.6,40z"/>
			<path d="M67.6,35.4c-0.2,0.5-0.4,1-0.6,1.4c-0.1,0.1-0.3,0.2-0.4,0.2c0-0.1-0.1-0.3-0.1-0.5c0.1-0.4,0.3-0.8,0.4-1.2
				c0.1-0.2,0.3-0.3,0.4-0.4C67.4,35.1,67.5,35.2,67.6,35.4z"/>
			<path d="M57.4,51.3c0.3-1.8,0.7-3.3,2.5-4.1c0.6-0.3,1.1-0.3,1.7-0.4c0.1,0,0.2,0.2,0.3,0.2c-0.1,0.1-0.2,0.3-0.4,0.4
				c-0.6,0.2-1,0.2-1.6,0.5c-1.3,0.6-1.7,1.7-1.9,3c0,0.1,0,0.2,0,0.3c0,0.2,0,0.6-0.3,0.5C57.5,51.7,57.4,51.5,57.4,51.3z"/>
			<path d="M61.4,56.7c-0.1-0.1-0.2-0.2-0.4-0.3c0.1-0.1,0.2-0.3,0.3-0.4c1.1-0.2,1.8-0.7,2.5-1.6c0.1-0.1,0.4-0.1,0.5-0.1
				c0,0.1,0.1,0.4,0,0.6C63.6,56,62.7,56.5,61.4,56.7z"/>
			<path d="M65.4,51.8c-0.1,0.5-0.1,1-0.3,1.5c0,0.1-0.2,0.2-0.4,0.3c-0.1-0.1-0.2-0.3-0.2-0.5c0-0.4,0.1-0.8,0.2-1.3
				c0.1-0.2,0.2-0.3,0.3-0.5C65.2,51.5,65.3,51.7,65.4,51.8z"/>
			<path d="M44,51c0.2-1.9,1-3.5,2.9-4.3c0.6-0.2,1.1-0.3,1.7-0.4c0.2,0,0.4,0.2,0.5,0.3c-0.1,0.1-0.2,0.3-0.4,0.3
				c-0.6,0.2-1.1,0.2-1.6,0.5c-1.5,0.6-2.1,1.7-2.4,3.2c0,0.1,0,0.2,0,0.3c-0.1,0.2-0.3,0.4-0.4,0.6C44.1,51.3,44,51.2,44,51z"/>
			<path d="M48.5,56.3c-0.1-0.1-0.2-0.2-0.3-0.3c0.1-0.1,0.3-0.3,0.5-0.4c1.1-0.2,1.9-0.7,2.6-1.5c0.1-0.1,0.3-0.1,0.5-0.2
				c0,0.2,0,0.5-0.1,0.6C50.8,55.6,49.8,56.1,48.5,56.3z"/>
			<path d="M52.8,51.4c-0.1,0.5-0.2,0.9-0.3,1.4c-0.1,0.2-0.2,0.2-0.3,0.3c0-0.2-0.1-0.4-0.1-0.5c0.1-0.4,0.2-0.8,0.3-1.2
				c0-0.2,0.2-0.3,0.3-0.5C52.6,51.1,52.7,51.3,52.8,51.4z"/>
			<path d="M22.7,47.3c0.1,0.1,0.2,0.2,0.4,0.4c-0.1,0.1-0.2,0.3-0.3,0.4c-0.4,0.3-0.7,0.3-1.1,0.6c-1,0.8-1.2,2.2-1.6,3.4
				c0,0.1-0.1,0.2-0.1,0.3c-0.1,0.2-0.3,0.3-0.4,0.5c0-0.1-0.1-0.3,0-0.5c0.6-1.5,0.5-3.3,1.9-4.3C21.9,47.7,22.3,47.6,22.7,47.3z"
				/>
			<path d="M21.9,57.3c-0.1-0.1-0.1-0.2-0.2-0.2c0.1-0.1,0.3-0.4,0.4-0.4c1.1-0.3,1.7-0.9,2.4-1.7c0.1-0.1,0.3-0.1,0.4-0.2
				c0,0.2-0.1,0.4-0.2,0.6C24,56.3,23.2,57,21.9,57.3z"/>
			<path d="M25.9,52.1c-0.1,0.5-0.2,0.9-0.3,1.4c0,0.2-0.2,0.2-0.3,0.4c0-0.2-0.1-0.4,0-0.6c0.1-0.4,0.2-0.8,0.2-1.1
				c0-0.2,0-0.5,0.3-0.5C25.9,51.7,25.9,52,25.9,52.1z"/>
			<path d="M58.7,84.2c0.2-1.7,0.6-3.1,2.5-3.7c0.6-0.2,1.2-0.2,1.8-0.3c0.1,0,0.3,0.2,0.4,0.3c-0.1,0.1-0.2,0.3-0.3,0.3
				c-0.6,0.2-1.2,0.2-1.7,0.4c-1.4,0.5-1.8,1.5-2,2.8c0,0.1,0,0.2,0,0.3c-0.1,0.2-0.2,0.3-0.3,0.5C58.9,84.5,58.8,84.3,58.7,84.2z"
				/>
			<path d="M63.2,89.7c-0.1-0.1-0.2-0.2-0.3-0.3c0.1-0.1,0.2-0.3,0.4-0.3c1.1-0.1,1.9-0.4,2.7-1.2c0.1-0.1,0.4-0.1,0.5-0.1
				c0,0.2,0,0.4-0.1,0.6C65.6,89.3,64.5,89.8,63.2,89.7z"/>
			<path d="M67.7,85.4c-0.1,0.5-0.2,1-0.4,1.4c0,0.1-0.3,0.2-0.4,0.2c-0.1-0.1-0.2-0.3-0.2-0.5c0.1-0.4,0.1-0.8,0.3-1.2
				c0.1-0.2,0.2-0.3,0.3-0.4C67.5,85.1,67.6,85.3,67.7,85.4z"/>
			<path d="M78.1,81.7c0.1,0,0.2,0,0.3,0c0.2,0.1,0.3,0.2,0.4,0.3c-0.1,0.1-0.2,0.3-0.3,0.3c-0.6,0.2-1.3,0.1-1.9,0.4
				c-1.4,0.5-1.9,1.6-2.1,2.9c0,0.1,0,0.3,0,0.5s-0.2,0.2-0.4,0.3c-0.1-0.1-0.2-0.3-0.2-0.5c0.1-1.8,0.7-3.3,2.5-3.9
				C76.9,81.8,77.5,81.8,78.1,81.7C78.1,81.6,78.1,81.7,78.1,81.7z"/>
			<path d="M78.5,91.8c-0.1-0.1-0.2-0.2-0.4-0.4c0.2-0.1,0.3-0.3,0.5-0.3c1.2-0.1,2.1-0.5,3-1.3c0.1-0.1,0.4-0.1,0.6-0.2
				c0,0.2,0,0.5-0.2,0.6C81,91.3,79.9,91.7,78.5,91.8z"/>
			<path d="M83.5,87.1c-0.1,0.5-0.2,0.9-0.4,1.4c-0.1,0.2-0.3,0.2-0.5,0.3c0-0.2-0.2-0.4-0.1-0.6c0.1-0.4,0.1-0.8,0.3-1.2
				c0.1-0.2,0.2-0.3,0.4-0.4C83.2,86.8,83.3,86.9,83.5,87.1z"/>
			<path d="M86.2,19.5c-0.2,0.5-0.4,1-0.6,1.6c-0.1,0.1-0.4,0.2-0.5,0.3c0-0.1-0.1-0.4-0.1-0.5c0.6-1.3,0.6-2.5,0.2-3.8
				c-0.3-0.9-0.9-1.4-1.6-1.9c-0.2-0.1-0.4-0.4-0.3-0.6c0.2-0.4,0.4-0.2,0.7,0C85.7,15.7,86.2,17.4,86.2,19.5z"/>
			<path d="M77.5,16.4c0.1,0.2,0.2,0.4,0.2,0.7c0,0.2-0.2,0.4-0.2,0.6c-0.4,0.9-0.3,1.6-0.1,2.6c0,0.2-0.1,0.4-0.2,0.6
				c-0.1-0.1-0.4-0.2-0.4-0.4c-0.4-1.3-0.2-2.3,0.4-3.5C77.1,16.8,77.4,16.6,77.5,16.4z"/>
			<path d="M22.1,85.9c-0.1,0.6-0.2,1.1-0.4,1.7c0,0.2-0.3,0.3-0.4,0.4c-0.1-0.1-0.2-0.4-0.1-0.5c0.4-1.5,0.2-2.8-0.6-4.1
				c-0.4-0.6-0.9-0.8-1.4-1.2c-0.2-0.2-0.5-0.2-0.3-0.6c0.2-0.3,0.4-0.2,0.7-0.1C21.3,82.4,21.7,84,22.1,85.9z"/>
			<path d="M13.2,84.1c0.1,0.2,0.2,0.5,0.2,0.7c-0.4,1.2-0.4,2.1,0.1,3.3c0,0.1-0.1,0.3-0.1,0.5c-0.1,0-0.4,0-0.5-0.2
				c-0.7-1.3-0.6-2.5-0.1-3.9C12.8,84.4,13.1,84.2,13.2,84.1z"/>
			<path d="M57.9,68.2c0.1-1.3,0.4-2.4,1.1-3.5c0.1-0.1,0.3-0.1,0.4-0.1c0,0.1,0.1,0.4,0.1,0.5c-0.2,0.5-0.5,0.8-0.7,1.3
				c-0.4,1-0.3,2,0.1,3c0.1,0.2,0.3,0.5-0.1,0.6c-0.1,0-0.4-0.2-0.4-0.4C58.3,69.2,58.1,68.7,57.9,68.2z"/>
			<path d="M62.8,73.4c-0.6-0.2-1.1-0.4-1.7-0.6c-0.1-0.1-0.2-0.3-0.3-0.5c0.1,0,0.3-0.2,0.4-0.1c1,0.4,1.8,0.5,2.9,0.2
				c0.1,0,0.3,0.1,0.4,0.2c0,0.1-0.1,0.4-0.2,0.4C63.8,73.2,63.3,73.3,62.8,73.4z"/>
			<path d="M52.3,67.9c-0.1,0.5-0.2,1.1-0.4,1.6c0,0.1-0.3,0.2-0.4,0.3c-0.1-0.1-0.2-0.4-0.1-0.5c0.3-1.2,0.2-2.3-0.3-3.4
				c-0.4-0.8-0.9-1.3-1.6-1.8c-0.1-0.1-0.2-0.2-0.3-0.4c0,0,0.1-0.2,0.2-0.2c0.1,0,0.3,0,0.4,0.1C51.5,64.6,52,66.1,52.3,67.9z"/>
			<path d="M44.5,65.6c0.1,0.2,0.2,0.4,0.2,0.5c0,0.2-0.1,0.3-0.1,0.4c-0.3,0.9-0.3,1.7,0.1,2.6c0.1,0.2,0.3,0.5-0.1,0.6
				c-0.1,0-0.4-0.2-0.4-0.4c-0.4-1.1-0.4-2.1,0-3.3C44.2,65.9,44.4,65.7,44.5,65.6z"/>
			<path d="M37.8,68c-0.1,0.5-0.2,1.1-0.4,1.6c0,0.1-0.3,0.2-0.4,0.3c0-0.1-0.1-0.4-0.1-0.5c0.4-1.2,0.2-2.4-0.2-3.5
				c-0.3-0.8-0.7-1.2-1.4-1.7c-0.2-0.1-0.5-0.2-0.3-0.6c0.2-0.3,0.4-0.2,0.6,0C37.2,64.7,37.5,66.3,37.8,68z"/>
			<path d="M29.1,68.3c0.2-0.6,0.4-1.2,0.6-1.8c0.1-0.1,0.3-0.2,0.4-0.3c0,0.2,0.1,0.4,0,0.5c-0.4,1.1-0.5,1.9-0.2,3
				c0,0.1-0.1,0.4-0.1,0.5c-0.1-0.1-0.4-0.1-0.4-0.2C29.3,69.5,29.2,68.9,29.1,68.3z"/>
			<path d="M23.4,68.7c-0.2,0.6-0.4,1.1-0.7,1.7c-0.1,0.1-0.3,0.2-0.4,0.3c0-0.1-0.1-0.4,0-0.5c0.5-1.1,0.6-2.3,0.4-3.4
				c-0.2-0.9-0.5-1.3-1.2-1.9c-0.1-0.1-0.2-0.4-0.2-0.5c0.1-0.3,0.3-0.2,0.5-0.1C23.3,65.4,23.4,67,23.4,68.7z"/>
			<path d="M14.4,69c0.3-0.6,0.6-1.2,1-1.7c0.1-0.2,0.4-0.2,0.5-0.4c0,0.2,0.1,0.4,0,0.5c-0.6,1-1,1.9-0.7,3c0,0.1-0.1,0.4-0.2,0.5
				c-0.1-0.1-0.4-0.1-0.4-0.3C14.4,70.1,14.4,69.6,14.4,69z"/>
			<path d="M15.1,11.1c0.1,0.1,0.2,0.2,0.2,0.3c0,0.2-0.1,0.4-0.2,0.6c-0.4,0.8-0.9,1.6-1.2,2.4c-0.3,0.8,0,1.6,0.3,2.3
				c0.1,0.3,0.3,0.6-0.1,0.8c-0.1,0-0.5-0.3-0.5-0.5c-0.6-2.1-0.4-4,1.2-5.6C14.9,11.2,15,11.2,15.1,11.1z"/>
			<path d="M18.5,21.3c-0.6-0.2-1.2-0.4-1.9-0.7c-0.1-0.1-0.2-0.4-0.3-0.5c0.1-0.1,0.3-0.2,0.5-0.1c1.1,0.5,2,0.6,3.1,0.2
				c0.1,0,0.4,0.2,0.5,0.2c0,0.1-0.1,0.4-0.2,0.4C19.6,21.1,19.1,21.2,18.5,21.3z"/>
			<path d="M69.9,18.5c-0.2,0.6-0.4,1.1-0.6,1.6c-0.1,0.1-0.3,0.2-0.4,0.3c0-0.1-0.1-0.4-0.1-0.5c0.5-1.2,0.5-2.4,0.1-3.6
				c-0.3-0.9-0.9-1.3-1.7-1.8c-0.1-0.1-0.3-0.2-0.3-0.4c0-0.1,0.1-0.3,0.2-0.3c0.1,0,0.3,0,0.4,0.1C69.3,15.1,69.7,16.6,69.9,18.5z"
				/>
			<path d="M60.5,18.4c0.2-0.6,0.4-1.2,0.6-1.8c0.1-0.1,0.3-0.2,0.4-0.3c0,0.1,0.2,0.4,0.1,0.5c-0.4,1.1-0.5,1.9-0.2,3
				c0,0.1-0.1,0.3-0.2,0.4c-0.1,0-0.4-0.1-0.4-0.2C60.7,19.5,60.6,19,60.5,18.4z"/>
			<path d="M44,83.8c0.1-1.3,0.4-2.4,1.2-3.4c0.1-0.1,0.3-0.1,0.5-0.1c0,0.2,0,0.4,0,0.5c-0.3,0.7-0.6,1.2-0.9,1.9
				c-0.2,0.7-0.2,1.3,0.1,1.9c0.1,0.2,0.2,0.4,0.2,0.5c0,0.2-0.1,0.3-0.1,0.4c-0.1,0-0.3-0.1-0.4-0.1C44.4,84.9,44.2,84.4,44,83.8z"
				/>
			<path d="M48.9,88.2c-0.5-0.2-1.1-0.2-1.7-0.4c-0.1,0-0.2-0.3-0.3-0.4c0.1-0.1,0.3-0.2,0.4-0.2c1,0.3,1.9,0.3,2.8,0
				c0.1,0,0.3,0.1,0.4,0.2c0,0.1-0.1,0.4-0.2,0.4C49.9,88,49.4,88,48.9,88.2z"/>
			<path d="M30.2,51.6c0.2-1.3,0.4-2.6,1.1-3.7c0.1-0.1,0.2-0.1,0.4-0.2c0,0.2,0,0.4,0,0.6c-0.2,0.7-0.5,1.4-0.8,2.1
				c-0.2,0.7-0.2,1.4,0,2.1c0,0.2,0.1,0.4,0.1,0.5c0,0.2-0.1,0.3-0.1,0.5c-0.1,0-0.2-0.1-0.3-0.2C30.5,52.8,30.4,52.2,30.2,51.6z"/>
			<path d="M33.9,56.5c-0.5-0.2-0.9-0.3-1.4-0.5c-0.1,0-0.1-0.3-0.2-0.4c0.1-0.1,0.3-0.2,0.4-0.2c0.9,0.4,1.6,0.3,2.5-0.1
				c0.1,0,0.3,0.1,0.4,0.1c0,0.1-0.1,0.4-0.2,0.5C34.8,56.1,34.4,56.3,33.9,56.5z"/>
			<path d="M28.4,85.4c0.2-1.4,0.6-2.6,1.5-3.8c0.1-0.1,0.3-0.1,0.5-0.1c0,0.2,0,0.4,0,0.6c-0.3,0.7-0.7,1.4-1,2.1s-0.2,1.4,0,2.1
				c0.1,0.2,0.2,0.4,0.2,0.6c0,0.2-0.1,0.3-0.1,0.5c-0.1,0-0.3,0-0.4-0.1C28.8,86.5,28.6,85.9,28.4,85.4z"/>
			<path d="M33.3,89.8c-0.6-0.1-1.1-0.2-1.6-0.3c-0.1,0-0.2-0.3-0.3-0.4c0.1-0.1,0.3-0.2,0.5-0.2c1.1,0.3,2,0.2,3-0.3
				c0.1-0.1,0.3,0,0.5,0.1c-0.1,0.1-0.1,0.4-0.3,0.5C34.4,89.4,33.9,89.6,33.3,89.8z"/>
			<path d="M73.3,35.9c0.4-1.3,1-2.5,2.1-3.4c0.1-0.1,0.3-0.1,0.5-0.1c0,0.2-0.1,0.4-0.2,0.6c-0.5,0.8-1.1,1.5-1.5,2.3
				c-0.4,0.7-0.3,1.3-0.2,2.1c0,0.3,0.1,0.6-0.2,0.7c-0.1,0-0.3-0.3-0.3-0.5C73.4,36.9,73.4,36.4,73.3,35.9z"/>
			<path d="M76.5,41.6c-0.5-0.3-0.9-0.5-1.4-0.8C75,40.8,75,40.5,75,40.4c0.1,0,0.3-0.2,0.4-0.1c0.9,0.6,1.7,0.7,2.7,0.4
				c0.1,0,0.3,0.1,0.4,0.2c-0.1,0.1-0.2,0.4-0.3,0.4C77.6,41.5,77.1,41.5,76.5,41.6z"/>
			<path d="M77.9,54.1c0,0.5,0.1,1,0,1.5c0,0.1-0.2,0.2-0.3,0.2c-0.1-0.1-0.3-0.4-0.2-0.5c0-1.1-0.4-2.2-0.6-3.3
				c-0.2-0.8-0.2-1.6-0.8-2.2c-0.1-0.1-0.2-0.5-0.2-0.6c0.2-0.3,0.3-0.1,0.5,0C77.5,50.6,77.2,52.5,77.9,54.1z"/>
			<path d="M71.2,52.4c0.1-0.6,0.2-1.1,0.4-1.7c0-0.1,0.2-0.1,0.3-0.2c0,0.1,0.2,0.4,0.1,0.5c-0.3,1.1-0.2,2,0.1,3.1
				c0,0.1,0,0.3-0.1,0.4c-0.1-0.1-0.3-0.2-0.3-0.3C71.6,53.6,71.4,53,71.2,52.4z"/>
			<path d="M29.7,34.3c0.1-1.4,0.4-2.6,1.2-3.7c0.1-0.1,0.3-0.1,0.4-0.1c0,0.2,0.1,0.4,0,0.5c-0.2,0.5-0.5,0.9-0.7,1.4
				c-0.4,1.1-0.4,2.1,0.1,3.2c0.1,0.2,0,0.5,0,0.7c-0.1-0.1-0.4-0.2-0.4-0.4C29.9,35.4,29.8,34.8,29.7,34.3z"/>
			<path d="M34.1,39.4c-0.5-0.2-1-0.3-1.5-0.5c-0.1,0-0.2-0.3-0.2-0.4c0.1-0.1,0.3-0.2,0.4-0.2c1,0.4,1.7,0.4,2.6-0.1
				c0.1,0,0.3,0.1,0.4,0.1c0,0.1-0.1,0.4-0.2,0.5C35.1,39.1,34.6,39.2,34.1,39.4z"/>
			<path d="M46.7,14.7c0.1,0.1,0.2,0.1,0.2,0.2c0,0.1,0,0.3-0.1,0.4c-0.3,0.4-0.6,0.8-0.8,1.2c-0.5,1-0.6,1.8-0.3,2.9
				c0.1,0.2,0.3,0.6-0.1,0.7s-0.4-0.2-0.5-0.5c-0.4-1.8,0-3.3,1.3-4.7C46.5,14.8,46.6,14.8,46.7,14.7z"/>
			<path d="M47.4,22.1c0.1,0,0.4-0.1,0.5-0.1c1,0.4,1.9,0.5,3,0.1c0.1,0,0.3,0.1,0.4,0.2c-0.1,0.1-0.1,0.3-0.3,0.4
				c-1.2,0.5-2.2,0.4-3.3-0.1c-0.1-0.1-0.2-0.2-0.3-0.3C47.3,22.3,47.4,22.2,47.4,22.1z"/>
			<path d="M15.6,34.5c-0.2-1.5-0.1-2.8,0.6-4.1c0.1-0.1,0.3-0.1,0.4-0.1c0.1,0.2,0.2,0.4,0.2,0.6c-0.1,0.6-0.4,1-0.5,1.6
				c-0.2,1.3,0.1,2.4,0.7,3.5c0.2,0.3,0.5,0.6,0.1,0.7c-0.1,0.1-0.5-0.3-0.6-0.4C16.2,35.6,15.8,35,15.6,34.5z"/>
			<path d="M21.3,40c-0.5-0.2-0.9-0.3-1.4-0.5c-0.1-0.1-0.3-0.4-0.4-0.5c0.1-0.1,0.3-0.2,0.4-0.2c1,0.4,1.7,0.4,2.5-0.1
				c0.1-0.1,0.3,0.1,0.4,0.2c0,0.1,0,0.4-0.1,0.5C22.2,39.6,21.7,39.7,21.3,40z"/>
			<path d="M72.7,69.2c0-1.3,0.2-2.4,0.9-3.4c0.1-0.1,0.3-0.1,0.4-0.1c0,0.2,0.1,0.4,0,0.5c-0.2,0.8-0.5,1.5-0.7,2.3
				c-0.2,0.7,0.2,1.4,0.5,2c0.1,0.2,0.3,0.5,0,0.7c-0.1,0-0.4-0.3-0.5-0.5C73.1,70.3,72.9,69.7,72.7,69.2z"/>
			<path d="M78,74.7c-0.6-0.2-1.2-0.4-1.8-0.7c-0.1-0.1-0.2-0.3-0.3-0.5c0.1,0,0.3-0.1,0.5-0.1c1,0.4,1.8,0.6,2.9,0.2
				c0.1,0,0.4,0.1,0.5,0.1c0,0.1-0.1,0.4-0.2,0.5C79,74.5,78.5,74.6,78,74.7z"/>
		</g>
		<g>
			<path class="st0" d="M59.4,445.3c-0.3,1.3-0.6,2.8-1.3,4.3"/>
			<path class="st0" d="M51.5,426.7c2.2,2.3,4.2,4.5,5.8,6.7"/>
			<path class="st0" d="M55.3,445.9c5.8,6.1,5.6,13.4,0.8,19.5"/>
			<path class="st0" d="M51.8,457.7c1,4.5,3.4,6.3,5.2,8.8"/>
			<path class="st0" d="M54,475.1c6.4,2.1,1.6,4.7,4.6,8.6s6,8.4,3.2,9.6c-2.8,1.1-11.1-0.7-14.1-3.4s-4.6-4.8-5.2-7"/>
			<path class="st0" d="M43.6,485.3c-2.1,1.3-6.9,2.6-6.6-4.1c0.4-6.8,3.1-7.6,5.7-7.1"/>
			<path class="st0" d="M43.5,477.4c-2-3.1,0.3-10.2,2.9-12"/>
			<path class="st0" d="M42.9,449.8c-1.7,9.9,2.3,14.2,7.8,20.6"/>
			<path class="st0" d="M52.2,450.8c-2.6-6.3-12-8-11.9-14.2c0.1-6.2,1.4-8.5,3.4-11.9"/>
			<path class="st0" d="M48.9,430.9c-1.6-6.2-8.5-5.7-9.5-12.6c-1-6.9-1.1-13.6,4.1-10.3c5.2,3.2,6.7,5.8,9.5,4.2"/>
			<path class="st0" d="M48.5,411.6c6.6-3.9,11.2-1.4,12.1,1.9c3.2,11.9-5,15.2-4.7,17.6"/>
			<path class="st0" d="M55,415.8c0,4.2-1.5,7.2-4.3,8.6"/>
			<path class="st0" d="M44.9,428.9c0,2.6-1.1,4.8,2.2,8.5"/>
			<path class="st0" d="M58.7,455.8"/>
			<path class="st0" d="M59.7,445c-1.4,1.5-3.8-3.4-4.8-4.8c-1-1.4-1.2-4.9-0.6-6.6s1.5-1.1,3.4,0C58.8,434.3,61.2,443.5,59.7,445z"
				/>
			<path class="st0" d="M56.9,435.3c-0.9,0.9-2.1,0-0.4,2.8"/>
			<path class="st0" d="M57.5,437.4c0.8,1.2,1.8,1.3,1.2,3.4"/>
			<path class="st0" d="M48.5,434.7c1-0.6,2.8,1.6,3.2,4s3,6.4,1.1,7.2c-1.9,0.8-5.8-1.3-7-4.6c-1.2-3.3-1.1-5.4-0.9-7.3"/>
			<path class="st0" d="M49.2,437.7c1,1.3,2.2,4.2,2.3,5.5"/>
			<path class="st0" d="M48.3,440.4c-1.5-1.8,0.6-2-0.4-3.7"/>
			<path class="st0" d="M47.7,433c-1-0.5-2.5-1-3-0.3"/>
			<path class="st0" d="M48,428.7c1.3,1.1,3.6-0.2,2.4-2.1c-1.2-1.8-2.3-1.1-2.9-4s-5.2-3.6-5.7,0.3"/>
			<path class="st0" d="M45.5,426c-1.3-1.6-1.8-3.1-0.7-3.7"/>
			<path class="st0" d="M47.4,422.7c-0.2,1.7-0.2,3.3,1.1,4.5"/>
			<path class="st0" d="M54.6,419.3c0.9-1.6,3.5-1.5,3.6,0s-2.9,6.2-2.6,7.9s-4.1-0.2-3.5-3.8"/>
			<path class="st0" d="M56.5,420.6c-0.9,1.1-2.7,2.5-2.1,3.5"/>
			<path class="st0" d="M56.8,423.3c-1.1,1.4-1.9,3.4-2.6,2.7"/>
			<path class="st0" d="M46.9,444.9c1.2,2.9,2.8,5.6,1.1,8.2s-4.6-1.4-5.1-3.3c-0.6-2.3-0.3-6.6,1.5-6.7"/>
			<path class="st0" d="M45.8,445.9c-0.9,1.4-1.7,3.2-1,4.5"/>
			<path class="st0" d="M46.5,448c-0.2,2.4,0.7,5.8,2.1,4"/>
			<path class="st0" d="M41.7,428.2c-0.4,2.4,1.8,3.5,0.4,6.2"/>
			<path class="st0" d="M57.2,448.2c-2.1-0.2-4.2-1-3.2,4s2.1,5.8,1.5,7.4s2.7,1.7,3.8-0.3"/>
			<path class="st0" d="M56.1,450.2c0.9,1.5,2.5-0.4,2.2,3.1"/>
			<path class="st0" d="M55.6,452c0.8,0.9,2.7,2,2.6,3.6s-1,1-2,0"/>
			<path class="st0" d="M55.6,457.7c0.3,0.9,1,1.1,1.5,1.2"/>
			<path class="st0" d="M52.2,456c-1.4-0.9-6.2,0.5-4.7,2.6c1.6,2.1,4.9,7.8,6.1,3.5"/>
			<path class="st0" d="M52.2,459.1c-0.9-1-1.9-2.4-2.7-1.7"/>
			<path class="st0" d="M50.1,459.1c0.7,1.2,1.8,4.3,3,4.1"/>
			<path class="st0" d="M42.7,456.4c1.2-0.8,2.4,2.9,3.8,4.6c1.4,1.7,4.7,6.5,1.4,6"/>
			<path class="st0" d="M44.3,460.4c1.4,1.2,2.3,2,2.9,3.9"/>
			<path class="st0" d="M44.9,458.8c-0.8-0.6-1.6-0.8-1.3,0.2"/>
			<path class="st0" d="M56.4,476.2c-3.2-2.5-3.5-6.3-3.3-8.8c0.3-2.4,3.3-2.5,4.5,0c0.4,0.9,2.7,7.9-0.1,11"/>
			<path class="st0" d="M56.5,470.1c-0.9-1.1-2.1,0-0.9,1.9"/>
			<path class="st0" d="M55.6,467.9c1.4,0.5,3,3.1,2.6,5.7"/>
			<path class="st0" d="M56.9,473.3c0,1.5-1.1,1.9,0.2,3.7"/>
			<path class="st0" d="M49.9,473.8c-1.6-2.5-3.7-2.5-4.4-0.5s0.6,7.9,2.8,9.7s4.3,3,5.5,1.3C55.1,482.7,52.2,477.3,49.9,473.8z"/>
			<path class="st0" d="M49.5,476.2c0.1,1.8,4.5,4.2,3,6"/>
			<path class="st0" d="M46.8,473.6c3.1,0.2-0.1,0.9,1,4.6"/>
			<path class="st0" d="M48.9,478.3c0.2,1.7-0.1,4.4,3.4,5.7"/>
			<path class="st0" d="M41.8,477.4c-1.1,2.3-2.5,3.2-1,5.2"/>
			<path class="st0" d="M47.9,484.4c1.5,2.3,0.8,3.6,7.5,5.6"/>
			<path class="st0" d="M53.6,487.6c2,1,6.5,2.9,7.9,2.9"/>
			<path class="st0" d="M47,466.1c0.4,1.4-0.6,3.3-2,4.3"/>
			<path class="st0" d="M43.1,417c3.3-3.5,2.9,3.4,6.6,1.5"/>
			<path class="st0" d="M55,410.9c1.5,0.1,4.8,2.7,5,7.6"/>
			<path class="st0" d="M53.4,414.2c0.2,1.6-0.3,5.4-1.3,7.4"/>
			<path class="st0" d="M51.7,416.2c0.2,1.4-0.1,4.7-1.8,5.8"/>
			<path class="st0" d="M43.1,409.6c-1.4-0.7-3.8-0.4-2.1,6"/>
			<path class="st0" d="M50.1,450.2c0.3,1.9,0.1,3.4-1.4,4.5"/>
			<path class="st0" d="M43.9,453.9c0.1,1.4,2.3,4.5,3.2,6"/>
			<path class="st0" d="M52.1,430.3c-2,2.3,0.3,3.4,1.5,9.7"/>
			<path class="st0" d="M45.2,439.1c-1.2-2-3.5-4.5-2.6-1.5"/>
			<path class="st0" d="M42.6,439.3c0.7,1.2,0.1,0.3,1.6,1.9"/>
		</g>
		<g>
			<path class="st0" d="M54.1,547.4c0.4,1.4,0.8,2.7,1.2,4.1"/>
			<path class="st0" d="M50.6,529.9c1,2.1,1.6,4.1,1.7,6.4"/>
			<path class="st0" d="M51,548.4c7.8,5.9,11.8,10.6,5.4,19.8"/>
			<path class="st0" d="M52.6,560c1.4,3.2,3,6.3,4.4,9.6"/>
			<path class="st0" d="M54.4,576.6c5,0.8,2,3.4,4.7,4.4c2.6,1,7,2.6,4.9,5.3s-10.7,3.4-13.5,3c-2.7-0.3-4.5-3-6-5"/>
			<path class="st0" d="M45.9,586.5c-3.9,3.3-6,2-6.8-2.7c-0.8-4.7-0.5-6.9,4.4-7.9"/>
			<path class="st0" d="M44.7,578.9c-2.2-5-0.5-7.9,3.4-11.1"/>
			<path class="st0" d="M41.9,554.1c1.8,6.6,5.6,12.7,9.5,18.2"/>
			<path class="st0" d="M50.4,553.1c-3.9-3.2-12.4-6.8-11.9-12.6c0.5-5.8,3.6-8.1,6.4-12.6"/>
			<path class="st0" d="M47.3,534.1c0.3-5-5.5-8.2-7.4-11.9c-1.9-3.7-2.9-12.2,2.1-10.8c5,1.5,4.3,4.4,9.5,2.8"/>
			<path class="st0" d="M47.9,514.9c1.6-5.2,9.4-3.6,10.5-0.5c3.8,11.4,0.1,11.8-5.7,20"/>
			<path class="st0" d="M53.4,517.6c0.2,3.9-0.3,7-3,10"/>
			<path class="st0" d="M44.8,532.4c-1.2,3-1.7,5.3-0.6,8.4"/>
			<path class="st0" d="M58.2,557.5"/>
			<path class="st0" d="M53.9,546.8c-1.2,1.6-4.2-2.6-4.7-3.9s-0.2-4.8,0.9-5.9c1.1-1.1,1.4-2.3,2.3,0.1
				C52.9,538.5,55.1,545.2,53.9,546.8z"/>
			<path class="st0" d="M51.2,538.2c-1.1,0.9-1.2,1.3-0.9,2.7"/>
			<path class="st0" d="M51.1,540.1c0.4,1,0.7,2,0.8,3.1"/>
			<path class="st0" d="M46,538c1.6,0.5,1.4,2.5,1.4,4c-0.1,1.5,3.4,5.1,1.4,6.4s-5.3-1.5-5.8-3.7s-0.4-5,0.4-7.3"/>
			<path class="st0" d="M45.7,541c0.6,1.7,1.2,3.4,1.7,5.2"/>
			<path class="st0" d="M44.9,543.8c-0.4-1.3,0.2-2.4,0.1-3.7"/>
			<path class="st0" d="M45.8,536.4c-0.8-0.5-1.5-0.8-2.4-0.3"/>
			<path class="st0" d="M47.5,532.3c1.4,0.7,2.6-0.7,2.1-2.3c-0.5-1.6-0.9-2.1-1.9-4.2c-1-2.1-4.4-3.3-4.9,0.8"/>
			<path class="st0" d="M46.3,529.6c-0.6-1.2-1.4-2.4-0.7-3.8"/>
			<path class="st0" d="M47.9,526.1c0,1.6-0.1,3,0.3,4.5"/>
			<path class="st0" d="M53.5,521.5c0.6-1.3,2.9-2.8,3,0c0.1,2.8-1.6,6-2.8,8.7c-1.2,2.7-2.4-2.6-2.1-3.7"/>
			<path class="st0" d="M55.1,522.9c-0.9,1.3-1.9,2.4-1.9,4.1"/>
			<path class="st0" d="M55.5,525.8c-0.5,1-1.3,3.1-2.5,3.2"/>
			<path class="st0" d="M44.3,548.5c0.9,2.4,4.2,4.7,3.3,7.6c-0.9,2.8-4.8-0.4-5.7-2.1c-1.2-2.1-2.4-5.2-0.2-7.1"/>
			<path class="st0" d="M43.4,549.6c-0.4,1.7-0.5,3.1,0.6,4.7"/>
			<path class="st0" d="M44.6,551.6c0.4,1.2,1.7,5.2,3.3,3.4"/>
			<path class="st0" d="M41.9,531.6c-0.5,2.2-0.2,4.2-1.3,6.3"/>
			<path class="st0" d="M53.7,550.4c-3.9-0.1-2.6,1.6-1.1,3.9c1.5,2.3,3.1,4.6,3.5,7.3c0.4,2.7,2.6,0.5,3.5-0.5"/>
			<path class="st0" d="M53.6,552.3c2.2,1.1,2.4,0.1,3.4,2.8"/>
			<path class="st0" d="M54,554.1c1.3,0.9,3.2,1.6,3.6,3.3c0.4,1.7-1.1,0.8-1.7,0.2"/>
			<path class="st0" d="M55.8,559.7c0.4,0.7,0.9,1,1.7,1.1"/>
			<path class="st0" d="M52.4,558.3c-1.9-0.3-4.1,1-2.9,3c1.2,2,3,6.4,5,3.1"/>
			<path class="st0" d="M53.1,561.3c-0.6-0.7-1.4-1.9-2.5-1.3"/>
			<path class="st0" d="M51.6,561.4c0.7,1.4,1,3.3,2.6,4"/>
			<path class="st0" d="M44.5,560.7c2.2-0.3,3.3,1.6,4.5,3.2c1.1,1.6,3.1,4.5,0.2,5.3"/>
			<path class="st0" d="M47.1,563.8c1.2,0.7,1.8,1.5,2.1,2.9"/>
			<path class="st0" d="M47.6,562.2c-0.6-0.2-1.6-0.4-1.3,0.5"/>
			<path class="st0" d="M56.6,577.2c-2.1-1.9-4-4.1-2.7-7.2s2.8-2,3.8,1.2c0.4,1.2,2.5,5.9,0.2,7.3"/>
			<path class="st0" d="M56.4,572.8c-1.3-0.9-1.2,0.5-0.8,1.3"/>
			<path class="st0" d="M55.5,570.9c1.5,1.2,2.5,2.5,2.7,4.5"/>
			<path class="st0" d="M57,575.1c-0.1,1-0.2,1.8,0.5,2.6"/>
			<path class="st0" d="M50.5,575.2c-1.2-1.4-3-2.9-4-0.2c-1,2.8,1.6,6.6,3.5,8.1c1.9,1.5,3.7,2.3,4.9-0.1
				C56,580.7,52.1,577.1,50.5,575.2z"/>
			<path class="st0" d="M50.3,577.3c1.1,1.6,3.6,2.7,3.4,4.8"/>
			<path class="st0" d="M47.6,575.1c2,0.4,1,2.4,1.4,4"/>
			<path class="st0" d="M50,579.1c0.7,2.2,1.4,3.8,3.7,4.4"/>
			<path class="st0" d="M43,579.2c-0.7,2-1.5,3.4-0.2,5.2"/>
			<path class="st0" d="M49.8,584.8c2.5,3,3.8,2.3,7.3,1.4"/>
			<path class="st0" d="M55.1,585.5c2.6-0.5,5.3-0.7,7.9-1.1"/>
			<path class="st0" d="M48.5,568.4c-0.4,1.8-1.4,2.9-2.7,4"/>
			<path class="st0" d="M43.3,520.4c3.9-2.7,1.8,2.2,6,1.1"/>
			<path class="st0" d="M53.1,512.8c3.6,1.2,4.6,4.1,5.3,7.6"/>
			<path class="st0" d="M51.7,516.2c0.4,2.8,0.3,5.5-0.3,8.3"/>
			<path class="st0" d="M50.6,518.6c0.4,2.4,0.3,4.4-0.8,6.6"/>
			<path class="st0" d="M42.6,513c-4-0.5-2.3,3.6-1.6,5.9"/>
			<path class="st0" d="M48.5,553.1c0.8,1.5,1.3,2.8,0.7,4.5"/>
			<path class="st0" d="M44.6,557.9c1.5,1.7,3.4,3,4.9,4.8"/>
			<path class="st0" d="M49.9,533.6c-2,3-1.8,5.9-1.5,9.4"/>
			<path class="st0" d="M42.5,542.6c-0.4-1-1.7-4.9-2.1-1.5"/>
			<path class="st0" d="M40.2,543c0.3,0.7,0.8,1.3,1.2,2"/>
		</g>
		<g>
			<path class="st0" d="M52.2,646.9c0.4,1.4,0.9,2.8,1.2,4.2"/>
			<path class="st0" d="M52.1,627.7c0.6,2.6,0.7,4.9-0.3,7.4"/>
			<path class="st0" d="M49,647.6c7.6,6.5,12.3,13,4.7,22"/>
			<path class="st0" d="M51.5,659.6c1.3,3.8,2,7.7,2.4,11.6"/>
			<path class="st0" d="M51.1,678.7c4.3,1.6,2.3,3.6,4.7,5.1c2.4,1.5,7.3,3,4.5,6.3c-2.7,3.3-10.8,2.9-14.3,1.7s-2.4-4.1-3.3-6.7"/>
			<path class="st0" d="M43.2,687.8c-4,3.5-5.3,0.2-5.7-3.9c-0.5-4.1-0.6-7.2,4.5-7.9"/>
			<path class="st0" d="M43.3,679.3c-2.2-6.5-1.9-7.5,3.7-11.7"/>
			<path class="st0" d="M40.1,653c2.9,7.3,6.1,12.2,8.7,20.3"/>
			<path class="st0" d="M48.7,652.4c-4.4-3.7-11.6-7-10.8-13.6c0.8-6.6,5.5-8.9,8.9-13.8"/>
			<path class="st0" d="M47.8,632c2-6.4-4-9-6.7-12.9c-2.7-3.9-3.8-12.4,1.5-11.5c5.3,0.9,4.5,4.9,10,3"/>
			<path class="st0" d="M49,611.4c1-5.7,9.3-4.2,10.6-0.9c4.6,11.9,0.6,14.4-7.3,22.6"/>
			<path class="st0" d="M54.5,614.4c0.5,4.1,0.3,7.4-2.4,10.8"/>
			<path class="st0" d="M45.9,629.9c-1.8,3.1-2.7,5.8-2.5,9.4"/>
			<path class="st0" d="M55.8,657.8"/>
			<path class="st0" d="M51.8,646.1c-1.4,1.5-4.4-2.6-4.6-4.4c-0.3-1.8,0.8-5,2.3-6.1c1.5-1.2,2.4-2.9,2.1,0.6
				C51.4,638.1,53.2,644.6,51.8,646.1z"/>
			<path class="st0" d="M50,637c-1.1,0.8-1.6,1.5-1.7,2.8"/>
			<path class="st0" d="M49.2,639.1c0.1,1.2,0.1,2.2,0.4,3.4"/>
			<path class="st0" d="M45.4,636.3c1.2,1.3,0.5,2.9,0.3,4.5c-0.2,1.7,3,5.3,0.9,6.6c-2,1.3-4.9-1.6-5-4.1c-0.1-2.4,0.5-5.5,1.5-7.8
				"/>
			<path class="st0" d="M44.6,639.6c0.2,1.9,0.5,3.7,1,5.6"/>
			<path class="st0" d="M43.5,642.6c-0.1-1.4,0.4-2.6,0.6-4"/>
			<path class="st0" d="M45.7,634.5c-0.7-0.7-1.2-0.9-2.1-0.5"/>
			<path class="st0" d="M48.6,630c1.5,0.6,2.8-0.7,2.5-2.5c-0.3-1.8-0.4-2.7-1.7-4.8c-1.2-2.1-4-3.8-4.4,0.6"/>
			<path class="st0" d="M48.1,626.9c-0.4-1.3-1-2.7-0.6-4.1"/>
			<path class="st0" d="M49.8,623.3c0,1.7-0.2,3.3-0.1,5"/>
			<path class="st0" d="M55,618.6c0.7-1.7,2.7-3,3,0.1c0.3,3-1.1,6.8-2.8,9.4c-1.7,2.6-2.2-3.1-1.9-4.1"/>
			<path class="st0" d="M56.8,620.1c-0.9,1.5-1.6,2.7-1.8,4.4"/>
			<path class="st0" d="M57.3,623.4c-0.6,1.3-1.1,3-2.7,3.4"/>
			<path class="st0" d="M42.7,647.4c0.8,2.5,4.3,4.8,3.7,7.6c-0.6,2.8-5.3-0.6-6.3-2.3c-1.3-2.1-2.5-5.2,0.1-7.1"/>
			<path class="st0" d="M41.7,648.5c-0.4,1.8-0.3,3.2,0.8,4.7"/>
			<path class="st0" d="M43,650.6c0.6,1.3,1.8,4.8,3.7,3.5"/>
			<path class="st0" d="M43.3,629c-0.8,2.4-1.7,4.5-3,6.7"/>
			<path class="st0" d="M51.8,649.8c-4,0-2.4,1.5-0.9,4c1.5,2.5,2.7,5.3,3.3,8.2c0.6,2.9,2.2,1.2,3.4-0.2"/>
			<path class="st0" d="M51.7,651.9c1.8,1,2.5,1.1,3.2,3.2"/>
			<path class="st0" d="M52.1,653.7c1.3,1.2,2.7,2.2,3.1,3.9c0.4,1.7-0.9,0.8-1.4,0"/>
			<path class="st0" d="M53.8,659.9c0.4,0.7,0.8,1.1,1.6,1.4"/>
			<path class="st0" d="M51.1,657.9c-2.1-0.5-2.5,0.8-1.7,2.5c0.7,1.8,0.9,7.4,3.4,4.5"/>
			<path class="st0" d="M51.9,661.1c-0.4-0.7-0.9-2.1-1.9-1.9"/>
			<path class="st0" d="M50.9,661c0.5,1.7,0.5,3.6,1.5,5.1"/>
			<path class="st0" d="M44,659.6c2.7-0.2,4.1,1.2,4.7,3.5c0.7,2.4,1.3,5.2-1.3,6.3"/>
			<path class="st0" d="M47.1,662.8c1,1.1,1.2,2.2,1.1,3.7"/>
			<path class="st0" d="M47.9,661c-0.7-0.3-1.8-0.3-1.7,0.6"/>
			<path class="st0" d="M53.2,679.7c-1.8-2.7-4-4.8-2.1-8.5c1.9-3.7,2.5-0.7,3,2.4c0.2,1.1,3.3,6.2,0.4,7.4"/>
			<path class="st0" d="M52.8,674.8c-1.3-1.1-0.9,0.5-0.6,1.3"/>
			<path class="st0" d="M52.1,672.6c0.9,1.9,2.4,3,2.9,5.2"/>
			<path class="st0" d="M53.6,677.4c0,1.1,0,1.9,0.6,2.9"/>
			<path class="st0" d="M47.9,676.4c-0.8-1.8-2.3-3.8-3.2-0.9c-0.9,2.8,0.5,7.2,1.6,9.5c1.1,2.3,3.6,3.2,5,0.6
				C52.5,683.1,49,678.8,47.9,676.4z"/>
			<path class="st0" d="M47.5,678.6c0.9,2.1,2.6,3.6,2.6,6"/>
			<path class="st0" d="M45.4,675.7c1.5,1.1,0.8,3.1,0.8,4.7"/>
			<path class="st0" d="M47,680.6c0.2,2.7,0.3,4.3,3,5.5"/>
			<path class="st0" d="M41.9,679.4c-0.5,1.9-1,3.8-0.4,5.7"/>
			<path class="st0" d="M45.9,686.8c2.1,3.7,3.6,3.2,7.5,2.6"/>
			<path class="st0" d="M51.3,688.5c2.8-0.2,5.7-0.3,8.5-0.4"/>
			<path class="st0" d="M47.1,668.3c-0.8,1.7-1.8,3-3.2,4.2"/>
			<path class="st0" d="M44.5,617c3.9-2,2.2,1.6,6.3,1.4"/>
			<path class="st0" d="M54,609c3.8,1.6,5,4.4,6,8.3"/>
			<path class="st0" d="M52.7,612.8c0.5,3,0.8,5.9,0.5,8.9"/>
			<path class="st0" d="M51.8,615.5c0.5,2.5,0.7,4.6-0.2,7"/>
			<path class="st0" d="M43.4,609.2c-4.4,0-2.6,3.5-1.6,6.3"/>
			<path class="st0" d="M47,652.2c0.8,1.4,1.5,2.8,1.4,4.4"/>
			<path class="st0" d="M43.7,656.8c2,1.5,4.5,2.6,5.7,5"/>
			<path class="st0" d="M50.5,631.7c-2.6,3-3.9,6.2-4.1,10.1"/>
			<path class="st0" d="M41.6,641.2c-0.1-0.9-0.6-5.8-1.7-1.7"/>
			<path class="st0" d="M39.4,641.4c0.2,0.8,0.5,1.5,0.8,2.2"/>
		</g>
		<g>
			<path class="st0" d="M44.5,331.8c-2-4.2-5.7-9.4-10.3-14.3"/>
			<path class="st0" d="M57.3,354c-1.1-4.9-10.7-9.4-10.6-13.7c0-0.6,0.1-1.6-0.1-2.3"/>
			<path class="st0" d="M63,359.1c0.1,2.7-0.4,4.7-1.7,7.3"/>
			<path class="st0" d="M58.4,342.4c3.5-6,4-8.1,4.1-13.9c0.1-5.9,6.9-12.5,5.9-16.3c-1-3.9-10-0.6-17.2-0.5
				c-6.9,0.1-17.6-5.2-19.4-1c-3.8,8.7,19,12.2,28.3,35.7"/>
			<path class="st0" d="M50.4,346c-10.6,23.2,18.9,38.8,16.8,44.1c-2.1,5.3-17-0.6-22.1-6c-2.8-3,4.2-11.1,5.2-17.9"/>
			<path class="st0" d="M59.7,359.8c2.5,6.2,2.7,20.6,5.6,26"/>
			<path class="st0" d="M61.8,320.1c-0.1-4.1-6.9-1.9-7.1,0.8c-0.2,2.7-0.2,6.5,2.6,7.1C60.1,328.5,61.9,324.6,61.8,320.1z"/>
			<path class="st0" d="M44.4,320.1c0.7-3.4,7.1-0.4,7,2.3s-2.1,7.3-4,5.6C45.6,326.3,43.7,323.5,44.4,320.1z"/>
			<path class="st0" d="M36,318.9c2.6-2,5.4-0.9,5.8,1c0.5,1.8,0.2,2.8,0.1,3.5"/>
			<path class="st0" d="M56.9,331.3c1-0.6,4.3-0.1,3.9,2.7s-1.2,4.4-2.6,4.3c-1.5-0.1-3.4-1.3-3.4-3.4S56.4,331.6,56.9,331.3z"/>
			<path class="st0" d="M49.8,330.3c1-0.3,2.8,0.3,3,3.4"/>
			<path class="st0" d="M59,319.6c-1.7,0.7-4,1-2.6,5.4"/>
			<path class="st0" d="M59.7,322.5c-0.2,1.3-1.6,1.2-1.2,2.5"/>
			<path class="st0" d="M46.1,320.1c2-0.1,4.1,0.6,3.9,3.2"/>
			<path class="st0" d="M46.5,337.9c2.8,0.7,2.1-4.4,1.6-5.8c-0.5-1.4-3.2-2.2-3.6,0C44.3,332.5,45.7,337.7,46.5,337.9z"/>
			<path class="st0" d="M50.3,340.2c0.1-2.8,2.6-3.7,3.9-1.9c1.3,1.8,3.1,5.5,1.8,6.3S50.3,342.4,50.3,340.2z"/>
			<path class="st0" d="M52,339c0.9-0.2,1.3,0.1,1.8,1.6"/>
			<path class="st0" d="M52,340.6c-0.1,0.7,0.1,2.4,1.8,3.6"/>
			<path class="st0" d="M54.4,342.1c0.3,0.7-0.1,2.6,1.6,2.4"/>
			<path class="st0" d="M45.8,332.4c0.8-0.5,1.1,0.4,1.2,2"/>
			<path class="st0" d="M50.3,350.3c2.1-0.9,2.7,0.5,3.1,3.6c0.4,3.1,1.6,8-0.6,7.9c-2.2-0.1-5-3.2-4.7-6.4
				C48.4,352.2,49.4,350.7,50.3,350.3z"/>
			<path class="st0" d="M51.2,352.1c-1.8,0.1-2.6,3.5-2.1,5"/>
			<path class="st0" d="M50.9,355.8c-0.1,2.2-1,3.2,0.9,4"/>
			<path class="st0" d="M53.3,353.2c0,2.1,1,5-0.2,5.3"/>
			<path class="st0" d="M62.5,374c-2.3,3.2-4.5-1.9-6-4.3c-1.5-2.3-1.6-4.4,0.3-5.5c1.3-0.7,3.4-0.8,4.2,0.6"/>
			<path class="st0" d="M58.1,366.6c-0.8,1.5-1.4,1.1,0,3"/>
			<path class="st0" d="M58.9,365c1.1,0.6,1.9,3.2,1.9,6.6"/>
			<path class="st0" d="M63,359.1c-2.1,1.5-3.2-4.9-4.1-6.4c-0.9-1.5-0.8-6.2,1.2-6.2C61.5,346.4,64.7,357.8,63,359.1z"/>
			<path class="st0" d="M59.9,349.7c-0.3,1.8-0.2,1.8,1,3.8"/>
			<path class="st0" d="M52,344.7c2.9,1.6,1,3.2,5.1,5.2"/>
			<path class="st0" d="M55.2,355.6c0.5,2,1.4,5.6-0.6,7"/>
			<path class="st0" d="M54.6,368.7c0.8,2.7,3.3,7.8,6.8,7.6"/>
			<path class="st0" d="M57.8,332.2c-1.3,1.2-2.2,1.4-1.6,2.9"/>
			<path class="st0" d="M59,334.4c0.1,1.5-1.5,0.1-1.2,2"/>
			<path class="st0" d="M57.5,329.5c-2.2,0.4-2.7-0.6-2.9,1.4"/>
			<path class="st0" d="M50.6,317.8c1.3,1.5,3.3,4.5,1.2,9.1"/>
			<path class="st0" d="M41.6,324.4c3.1,4.6,7.4,4.2,8,9.3"/>
			<path class="st0" d="M51.1,376.6c-1,1.6-3.2,0.1-3,2.6c0.2,2.5,0.2,3.8,1.9,4c1.8,0.2,4.6-0.5,4.6-2.5S51.6,375.8,51.1,376.6z"/>
			<path class="st0" d="M51.8,377.7c-0.6,0.6-2.3,0.5-2,2.1"/>
			<path class="st0" d="M57.7,382.2c-0.7,1.5-1.3,3.6,0.4,4.3s4.6,1,4.9-0.3c0.3-1.3,0-3.9-1.6-4.7
				C59.8,380.7,58.2,381.2,57.7,382.2z"/>
			<path class="st0" d="M58.9,382.4c-0.7,1.1-0.5,2.2,0.8,2.7"/>
			<path class="st0" d="M52.8,370.9c-0.3,0.9,0,3.4,0.5,4.1c0.5,0.7,2.3,1.3,3.5,1.3"/>
			<path class="st0" d="M60.9,313c-1.5,1.2-9.6,1.4-15.8,0"/>
		</g>
		<g>
			<path class="st0" d="M43.9,214.7c1.1-1.3,5.1-0.3,5.6,2.3c0.5,2.6,1.7,3.3,0,4.1c-1.7,0.8-4.8-1.6-5.1-3.4
				C44,215.9,43,215.7,43.9,214.7z"/>
			<path class="st0" d="M60.5,213.7c1.9,0.3,2.4,1.7,2,4s-0.3,3.5-2.9,3.6c-2.6,0.1-5.8-1.6-5.4-3.8
				C54.5,215.3,56.3,213.1,60.5,213.7z"/>
			<path class="st0" d="M69.8,214.7c2.8,0.8,3.5,0.1,2,3c-1.5,2.9-2.6,4.9-4.3,4.2c-1.7-0.7-2.5-2-1.7-3.8
				C66.6,216.2,68.5,214.3,69.8,214.7z"/>
			<path class="st0" d="M51.8,233.8c1.9,0.7,3.7-2.6,3.4-4.7c-0.4-2.1-2.3-4.7-4.8-2.3c-0.9,0.8-2.8,1.3-2.4,3.7"/>
			<path class="st0" d="M61.8,227.2c2,0.4,3.4,1.4,2.2,3.5c-1.2,2.2-5,4.8-5.7,4.1c-0.7-0.6-1.4-1.6-1-3.8
				C57.7,228.8,59.3,226.6,61.8,227.2z"/>
			<path class="st0" d="M51,239.7c1.2-1.5,2.8,5.2,2.2,7.3c-0.6,2.1-0.9,2.9-2.2,2.9c-1.3,0-2.9-2.2-2.6-4.8
				C48.8,242.5,50.4,240.5,51,239.7z"/>
			<path class="st0" d="M60.8,255.2c-3,4.4-4.9-3.7-4.9-6.5s1.6-3.2,3.3-2.3C60.7,247.2,62.3,253,60.8,255.2z"/>
			<path class="st0" d="M52.5,267.4c2.8-0.1,2.1-3.3,1.6-7.3s-4.4-8.2-4.8-4.9c-0.2,1.3-0.3,3.7,0.1,6.1
				C49.9,263.9,52,267.4,52.5,267.4z"/>
			<path class="st0" d="M61.5,260.8c-1.9-0.6-2.8,0.2-2.4,4c0.4,3.8-0.7,7.2,5,8.2"/>
			<path class="st0" d="M50,263.3c-2.3,0.2-3.6,1.4-3.7,4.1s-1.2,5.3,1,5.5s8.8-2.1,7.2-3.9"/>
			<path class="st0" d="M39,280.5c0.1,2.3,1.5,4.8,3.2,5.3c1.7,0.5,4.7,0,4.8-2.6c0.1-2.7-0.9-6.4-3.4-7
				C41,275.6,38.9,278.4,39,280.5z"/>
			<path class="st0" d="M53.4,285.1c1,1.1,5.9,2.2,6-0.7s0-5.2-3-5.9C53.4,277.8,49.8,281.3,53.4,285.1z"/>
			<path class="st0" d="M68.5,281c-3.3-0.1-4.3-0.4-4.5,2.2c-0.1,2.6,0.8,5,2.1,5.1s6.1,0.9,5.7-1.8"/>
			<path class="st0" d="M57.9,272.1c0,1.1-0.2,3,1.1,3.7c1.3,0.7,3.1,1,4.3,0.7"/>
			<path class="st0" d="M60.8,262.7c-0.5,0.3-1,4,0,5.8"/>
			<path class="st0" d="M61.5,266.5c0.4,1.3,1.3,2.1,1.4,3.8"/>
			<path class="st0" d="M61.5,260.8c1.2,0.3,2.7,11.2,2.6,12.2"/>
			<path class="st0" d="M67.1,282.3c-1.4,1.3-3.6,3.5,0,4.7"/>
			<path class="st0" d="M54,273c-7.1,3.1-3.5,13.1-6.4,15.5"/>
			<path class="st0" d="M59.2,246.4c-0.6-2.1-1.6-4.9-2.7-6.8c-7-12.2-32.2-23-31-26c4.6-10.9,20.2-2.7,26.5-3.5
				c8.3-1,20.7-5.7,22.2,1.5c2.2,10.5-11.2,22.6-16.8,29.8"/>
			<path class="st0" d="M61.5,260.8c-0.3-2-0.4-3.6-0.7-5.6"/>
			<path class="st0" d="M69.6,282.3c-2.6-2.9-4.4-5.8-5.6-9.3"/>
			<path class="st0" d="M53,267.4c6.7,8.1,22.7,15.4,18,22.4c-4.6,6.9-37.9,4.9-37.8-6.2c0-6.2,14.8-23.7,15.3-27.1"/>
			<path class="st0" d="M48.7,247.5c-0.4,4.5-0.5,9.2,0.6,13.1"/>
			<path class="st0" d="M50.7,232.7c-0.5,3.2-1,6.9-1.4,9.7"/>
			<path class="st0" d="M32.4,216.4c-0.9-2.8,2.6-1.8,6.2,0.3c2.8,1.7,4.7,3.7,2.8,5.1c-1.9,1.4-5,0.5-7-0.9S32.8,217.6,32.4,216.4z
				"/>
			<path class="st0" d="M59.2,247.9c0.5,0.5,1.3,1.8,1.2,4.1"/>
			<path class="st0" d="M57.5,249.2c0.6-0.4,0.5,2.6,1.1,3.8c0.7,1.2,1.1,1.3,1.6,0.5"/>
			<path class="st0" d="M70.1,215.8c-1,0.1-3,1.3-2.8,3.7"/>
			<path class="st0" d="M58.3,215c1.8-0.1,2.8,0.5,2.5,4.5"/>
			<path class="st0" d="M56.3,218.6c0.4,0.6,1.7,1.3,2.7,1.4"/>
			<path class="st0" d="M45.4,215.3c-0.6,0.8,0,3.2,1.5,4.2"/>
			<path class="st0" d="M47.5,217.3c0.2,1.3,0.1,2.1,1.3,2.5"/>
			<path class="st0" d="M33.6,215.8c-0.1,0.8,0.3,4.9,4,5.4"/>
			<path class="st0" d="M50,228.2c1.9-0.8,3.7-1,3.7,0.9"/>
			<path class="st0" d="M60.9,228.4c-1.9,1.1-3.3,2.9-2.3,5.5"/>
			<path class="st0" d="M51.9,216.5c0,2.4,4.9,6,4.7,11.2"/>
			<path class="st0" d="M50.9,242.5c-1.2,1.6-1.9,3.5-0.9,5"/>
			<path class="st0" d="M50.7,257.1c-0.1,3.4-1.3,4.4,1.2,7.7"/>
			<path class="st0" d="M49.1,265.1c-1.2,0.8-2.4,4.3-1.6,5.5"/>
			<path class="st0" d="M50.3,271c1.1-0.4,2.7-0.8,3.8-2.4"/>
			<path class="st0" d="M41.4,278.4c-0.5,1.3-0.2,5.7,2.1,5.8"/>
			<path class="st0" d="M46,281.7c-0.1,1-0.2,1.7-0.7,2.2"/>
			<path class="st0" d="M53.8,280.4c-0.3,2.1,0.3,4.7,3.7,5"/>
		</g>
		<g>
			<path class="st0" d="M46.5,149.3c1.6-5.7,2-11.2-0.3-14.8"/>
			<path class="st0" d="M57.1,165.7c-0.5-10.4,22-45.4,19.3-54.9c-2.7-9.5-20.2-0.1-29.1-0.1s-20.7-4.2-23.2,2.1
				c-5.7,14.1,25.3,16.2,30.1,30.9c4.8,14.7,0.5,27.8,7,33.4c5.2,4.5,17.3,14.6,13.6,17c-3.7,2.3-22.4,0.9-33.4-1.4
				s-12.3-3.6-9.7-11.4c1.4-4.3,8.4-15.2,12.7-25.6"/>
			<path class="st0" d="M28.9,116.5c-0.9,1.3-2.7,4.2,1.1,6.2s7.1,3.1,7.7,1.4c0.7-1.7,0.1-4.9-2.4-6.6S30.1,114.8,28.9,116.5z"/>
			<path class="st0" d="M40,114.5c-0.9,1.7-0.7,4.8,0.7,6.7c1.4,1.9,2.7,4.8,4.1,4.8c2,0,5-3,2.6-6.1
				C45.3,117.2,41.1,112.3,40,114.5z"/>
			<path class="st0" d="M50,114.2c-0.8,0.7-0.7,4.4,0.6,7.1s1,5.2,2.7,4.2s4.8-4.5,3.4-7.3C55.3,115.5,51.1,113.2,50,114.2z"/>
			<path class="st0" d="M59.2,117.5c0.3,1.5-0.7,6,1.5,5.7c2.2-0.2,5.1-3.8,4.1-6.5c-1-2.7-2.8-5.8-4.1-5.2S58.8,115.1,59.2,117.5z"
				/>
			<path class="st0" d="M71.4,112.7c1.4,0.2,3.7,2.7,2.4,5.9s-1.5,5.3-4.1,4.8c-2.6-0.4-3.4-4.2-3.3-6.4S70.7,112.6,71.4,112.7z"/>
			<path class="st0" d="M60.4,130.4c1.1-0.1,3,2.7,2.6,5.5s0.4,4.3-1.3,4.3c-1.7-0.1-4.5-0.1-4.1-3.8
				C58.2,132.6,59.2,130.5,60.4,130.4z"/>
			<path class="st0" d="M53.2,141.7c1.6,0.9,2.4-3.1,2.1-5.5c-0.3-2.5-1.4-6.8-4.1-4.4c-1.2,1.1-3.2,1.8-2.3,4.8"/>
			<path class="st0" d="M70.4,131.7c-1.2-1.1-4.4,1.2-4.6,3.5c-0.2,2.4-1.7,7.3,0,6.5"/>
			<path class="st0" d="M57.7,147c1.8-2.9,4.9,1.9,4,3.9c-0.9,2.1-2.5,5.3-3.3,4.8s-1.6-2.8-2.2-4.8C55.5,149,56.9,148.2,57.7,147z"
				/>
			<path class="st0" d="M44.3,155.5c0,2.7,5,4.6,6.8,1.6c1.8-3-0.3-7.7-2.5-8.6c-0.8-0.3-1.3,0.2-2.1,0.8
				C46,149.8,44.3,154.2,44.3,155.5z"/>
			<path class="st0" d="M49.6,137.2c0.7,1.6,2.1,4-1.8,5"/>
			<path class="st0" d="M56.1,152.6c-0.9,0.5-1.5,2.7-1.7,4.5s0.6,6.1,2.5,5.4"/>
			<path class="st0" d="M45.1,162.6c1.4-0.1,4.6,1.9,3.8,4.5c-0.8,2.6-3.1,6.1-5.5,6c-2.4-0.2-2.8-3.5-2.1-5.6
				C42,165.4,43.5,162.7,45.1,162.6z"/>
			<path class="st0" d="M39.3,177c3.1-0.4,6.6,3.1,5.4,6.2c-1.2,3.2-2.4,4.7-4.6,4c-2.2-0.7-3.9-2.4-3.4-5.3
				C37.3,179,37.3,177.3,39.3,177z"/>
			<path class="st0" d="M50.8,180.1c2.4,0.1,5.3,1.5,5.1,4.5c-0.2,3-2.7,4.5-5.1,4.6c-2.4,0.1-3.4-1.1-2.9-3.8
				C48.4,182.6,49.4,180,50.8,180.1z"/>
			<path class="st0" d="M60.3,182.9c1.8,0.2,3.4,1.7,3.1,3.9s1.5,5-1.6,4.8c-3.1-0.2-4.3-1-3.8-3.5
				C58.4,185.7,59.4,182.8,60.3,182.9z"/>
			<path class="st0" d="M67.4,187.3c-0.3,2.5,0.1,3.9,2.2,3.9c2.1-0.1,4-1.5,2.7-3.5C71.1,185.7,67.8,183.2,67.4,187.3z"/>
			<path class="st0" d="M55.1,166.7c-1.3,0.2-2.8,1.5-3.2,3.3c-0.4,1.7-0.8,4.6,0.9,5c1.7,0.4,5.6,0.2,5.3-2.3
				C57.7,170.3,56.2,166.5,55.1,166.7z"/>
			<path class="st0" d="M42.2,116.7c1.6,0.8,3.8,2.9,3.9,5"/>
			<path class="st0" d="M42.7,121.7c0.2,1,0.6,2.2,1.4,2.2"/>
			<path class="st0" d="M50.9,116c-0.4,3.3,2.1,3.9,2.2,7.1"/>
			<path class="st0" d="M54.2,118.5c0.9,1.1,1,2.1,0.6,3.2"/>
			<path class="st0" d="M61.8,113.6c-0.8,1.4-1.6,5-0.7,7.4"/>
			<path class="st0" d="M68.5,116c1.5-1.4,4.2-1.9,4.2,0.3s-0.3,4.9-1.2,5.4"/>
			<path class="st0" d="M30.4,117.8c-0.9,1.4-0.3,3,1,3.6c1.3,0.6,3.4,2.5,4.4,2.1"/>
			<path class="st0" d="M50.4,133.6c1.4-0.8,2.9,0.3,3.1,1.7c0.2,1.4,0.6,1.8,0,3.9"/>
			<path class="st0" d="M59.6,133.8c-0.7,2.1-1.6,3.1-0.7,4s1.2,1,2.1,1"/>
			<path class="st0" d="M48.3,150c0.8,0.7,2.5,2.1,2.1,4.4c-0.4,2.2-2,2.8-3,2.8"/>
			<path class="st0" d="M58.9,148.1c1.1,0.5,2.1,0.9,1.5,2.9c-0.6,1.9-0.3,2.3-1.5,2.5"/>
			<path class="st0" d="M45,164.2c-1,0.5-2.1,1.7-2.2,3.3c-0.1,1.6-0.3,2.9,1.1,3.1"/>
			<path class="st0" d="M53.6,169.6c-0.5,1.7-0.6,3.1,0.3,3.5c1,0.4,1.5,0.3,2.3,0"/>
			<path class="st0" d="M39.3,178.5c-1.1,2-1.8,5.4-0.6,6.1s3.4,0.9,4.1-1.1"/>
			<path class="st0" d="M51.8,181.8c1.6,0.2,3,2.4,2.6,3.3c-0.5,0.8-1.4,1.9-3.3,2.4"/>
			<path class="st0" d="M59.6,185.7c-0.5,2,0.1,4.3,2.1,4.5"/>
			<path class="st0" d="M69,186.7c-0.4,1.7,0.4,3.6,1.7,2.8"/>
		</g>
	</g>
	<g>
		<g>
			<path d="M6.4,1382.1c0.5-3.5,1.3-7.1,2.3-10.4c0.8-2.7,1.4-5.3,2.1-7.9c1-3.9,2.4-7.7,3.5-11.5c0.4-1.4,0-2.6,0.1-3.9
				c0-0.9,0-1.7,0.2-2.5c0.4-1.9-0.2-3.4-0.7-5.1c-1-3-1.6-5.8-1.8-9c-0.1-1.7-0.5-3.3-1.1-5c-1-2.7-1.2-5.5-0.8-8.3
				c0.2-1.5,0.2-2.9,0-4.4c-0.4-3.1-0.2-6.2,0.6-9.3c0.2-0.6,0.5-1.3,0.9-1.9c0.6-0.9,1.4-1.5,2.5-1.5c1.7,0.1,3.3,0.2,4.9,0.4
				c1.6,0.2,3.1,0.4,4.6,0.3c1.7-0.1,3.3,0.1,4.9,0.6c0.5,0.2,1,0.2,1.5,0.3c2.3,0.4,4.6,0.8,6.9,1.3c2.6,0.5,4.9,1.1,7.6,0.7
				c2-0.3,3.8,0.1,5.7,0.2c3.2,0.2,6.5,0.1,9.7-0.2c5.4-0.5,10.7-1.3,16.2-1.9c1.9-0.2,4-0.4,6-0.7c1.5-0.2,3.1-0.5,4.6-0.6
				c0.5-0.1,1.1,0,1.6,0.1c0.9,0.1,1.8,0.2,2.7,0.4c1.9,0.4,2.9,1.3,3.1,3.1c0.1,1.2,0,2.3,0.1,3.5c0.1,1.9,0.4,3.8,0.3,5.8
				c0,3.4-0.3,6.7-0.7,10.1c-0.1,0.9-0.6,1.8-0.9,2.6c-0.7,1.8-1.1,3.6-1.4,5.5c-0.4,2.6-1,5-2.3,7.4c-0.9,1.7-1.5,3.4-1.6,5.4
				c-0.2,2.3-0.5,4.2-0.1,6.5c0.3,1.8,0.8,3.5,1.5,5.3c0.9,2.1,1.3,4.2,1.6,6.5c0.2,1.9,0.5,3.8,0.8,5.7c0.2,1.1,0.6,2.3,1,3.3
				c0.8,2.8,1.1,5.6,1,8.4c-0.1,2.2-0.2,4.3-0.3,6.4c-0.1,1.5,0.1,2.9,0,4.4c-0.1,0.8-0.1,1.6-0.4,2.3c-0.7,1.7-2.1,2.4-4,2.5
				c-0.9,0-1.8-0.2-2.6-0.2c-0.8,0-1.7,0-2.5,0c-1.7-0.1-3.4-0.4-5.1-0.7c-1.4-0.2-2.7-0.3-4-0.6c-1.1-0.2-2.2-0.4-3.3-0.6
				c-2.5-0.3-4.9-0.7-7.4-0.9c-2.2-0.2-4.3-0.2-6.5-0.4c-0.8-0.1-1.6-0.3-2.3-0.6c-1.7-0.7-3.2-0.8-5-0.4c-2.1,0.6-4,0.7-6.1,0.1
				c-2.9-0.7-5.5-0.6-8.4,0c-1.3,0.3-2.5,0.3-3.8,0.1c-1.8-0.2-3.4-0.2-5.2,0c-0.6,0.1-1.2,0.1-1.8-0.1c-1.4-0.5-2.8-0.6-4.3-0.6
				c-1.6,0.1-3.2-0.1-4.9-0.2c-1.7-0.1-3.4,0-5.2,0.2c-0.9,0.1-1.6-0.3-2.2-1c-1-1.1-1.5-2.5-1.5-3.9
				C6.3,1385.7,6.4,1384,6.4,1382.1z M7.3,1381.6C7.2,1381.6,7.2,1381.6,7.3,1381.6c-0.1,1.8-0.3,3.7-0.2,5.5c0,1.3,0.4,2.6,1.2,3.7
				c0.5,0.7,1.2,1,2.1,1c1.3-0.1,2.7-0.2,4-0.2c2.1,0.1,4.2,0.2,6.2,0.2c1.5,0,2.7,0.2,4.1,0.6c0.6,0.2,1.2,0.2,1.8,0.1
				c1.6-0.2,3.1-0.3,4.7-0.1c1.6,0.2,3,0.1,4.6-0.2c2.7-0.5,5.1-0.6,7.7,0c2.2,0.5,4,0.5,6.2-0.1c1.7-0.5,3.2-0.3,4.8,0.3
				c0.9,0.3,1.8,0.6,2.6,0.7c2.1,0.2,4.2,0.2,6.2,0.4c2.6,0.2,5,0.5,7.6,0.9c1.1,0.1,2.2,0.4,3.4,0.6c1.3,0.2,2.6,0.4,4,0.5
				c1.7,0.2,3.4,0.5,5.2,0.7c1,0.1,2.1,0.1,3.2,0.1c0.7,0,1.4,0.2,2.1,0.1c1.8-0.1,2.7-0.8,3.2-2.4c0.2-0.5,0.2-1.1,0.2-1.7
				c0.1-1.1-0.1-2.1,0-3.2c0.2-2.5,0.3-5,0.4-7.6c0.1-2.8-0.1-5.7-1-8.4c-0.3-1-0.8-2.2-0.9-3.2c-0.3-2-0.6-3.9-0.8-5.9
				c-0.3-2.2-0.7-4.3-1.6-6.4c-0.8-1.7-1.2-3.3-1.5-5.2c-0.5-2.7-0.3-4.4,0-7c0.3-1.9,0.9-3.4,1.7-5c1.2-2.4,1.9-4.8,2.3-7.5
				c0.3-1.9,0.7-3.6,1.4-5.5c0.3-0.9,0.8-1.8,0.9-2.7c0.4-3.1,0.6-6.1,0.7-9.2c0.1-2.3-0.2-4.6-0.3-6.8c-0.1-1.1,0.1-2.2-0.1-3.3
				c-0.2-1.5-1-2.1-2.5-2.4c-0.8-0.1-1.7-0.3-2.5-0.4c-0.8-0.1-1.5-0.2-2.2-0.1c-1.4,0.1-2.7,0.4-4,0.6c-1.6,0.2-3.3,0.3-4.9,0.5
				c-3.8,0.4-7.7,1-11.5,1.4c-5.9,0.6-11.8,1.3-17.6,0.6c-1.1-0.1-2.1-0.1-3.2,0c-2.3,0.3-4.3,0.1-6.5-0.3c-2.5-0.5-4.9-1-7.4-1.5
				c-1-0.2-2-0.3-3-0.6c-1.3-0.3-2.6-0.6-4-0.5c-1.7,0.1-3.4,0-5.2-0.3c-1.5-0.2-3.1-0.3-4.7-0.4c-0.8,0-1.4,0.4-1.8,1
				c-0.3,0.4-0.5,0.8-0.7,1.2c-0.9,2.8-1.1,5.6-0.9,8.5c0.1,1.9,0.4,3.8,0.2,5.7c-0.4,2.9-0.2,5.8,0.9,8.6c0.5,1.4,0.9,2.7,1,4.2
				c0.3,3.7,1.1,7.2,2.3,10.7c0.4,1,0.6,2,0.6,3.1c0,1.1-0.2,2.2-0.3,3.4c-0.1,1.7,0,3.3-0.5,5c-0.4,1.2-0.9,2.5-1.3,3.8
				c-1,3.3-1.8,6.7-2.8,10.1C9.4,1372,8.1,1376.7,7.3,1381.6z"/>
			<path d="M66.3,1375.5c4.2,0.7,6.4,4,6.3,7.8c-0.1,3.9-2.8,6.9-6.9,6.5c-3.9-0.4-6.5-4.3-6.2-7.9
				C59.7,1378.2,62.3,1375.9,66.3,1375.5z M66.3,1376.3c-1.5-0.2-2.4,0.3-3.6,1c-2.2,1.4-3.2,4.1-2.5,6.6c0.3,1.1,0.5,2.1,1.4,3.1
				c1.6,1.8,3.6,3,6.4,2.1s4.5-4.4,3.9-7.1C71.1,1378.7,69.5,1376.7,66.3,1376.3z"/>
			<path d="M51.6,1358.6c4.1,0.4,6.2,3.5,6.1,7.1c-0.1,3.9-2.6,6.8-6.6,6.8c-3.9,0-6.2-3.7-5.9-7.1
				C45.4,1361.6,47.6,1359,51.6,1358.6z M51.6,1359.3c-1.4-0.1-2.4,0.3-3.5,1.2c-1.9,1.5-2.8,4.2-2.2,6.6c0.3,1.1,0.4,2,1.3,2.9
				c1.6,1.7,3.7,2.5,6.2,1.4c2.5-1.1,4.3-4.5,3.7-7.1C56.2,1361.3,54.7,1359.6,51.6,1359.3z"/>
			<path d="M37.9,1358c3.8,0.7,5.3,3.8,5,7.3c-0.4,3.6-3,6.9-7.1,6.7c-3.9-0.2-5.9-4.1-5.2-7.5C31.4,1360.8,33.9,1358.4,37.9,1358z
				 M37.8,1358.7c-1.4-0.2-2.3,0.2-3.5,1c-2.2,1.4-3.5,4.1-3.1,6.6c0.2,1.1,0.2,2.1,1,3c1.5,1.8,3.5,2.7,6,1.6
				c2.6-1.1,4.6-4.5,4.1-7C41.9,1361,40.8,1359.2,37.8,1358.7z"/>
			<path d="M38.6,1341.2c4,0.5,5.5,3.9,5.4,7.3c-0.1,3.6-2,7.1-6,7c-3.8-0.1-5.6-4.2-5.5-7.6C32.7,1344.4,34.6,1341.5,38.6,1341.2z
				 M38.6,1341.8c-0.8,0.3-1.3,0.2-2,0.6c-3.1,1.5-4,5-3,8.1c0.3,0.8,0.4,1.8,1,2.5c1.4,1.7,3.2,2.8,5.6,1.5
				c2.4-1.2,3.7-4.7,3.3-7.2C43,1344.1,41.7,1342.5,38.6,1341.8z"/>
			<path d="M51.9,1341.6c4.1,0.5,6,3.6,6,7.2c0,3.8-2.4,7.2-6.5,7.2c-4,0-5.8-4-5.6-7.5C46,1344.9,47.8,1342,51.9,1341.6z
				 M51.8,1342.4c-1.4-0.2-2.3,0.2-3.4,1.1c-2,1.6-2.6,4.5-2,6.9c0.2,1.1,0.4,2.1,1.2,3c1.5,1.8,3.4,2.7,5.9,1.5
				c2.6-1.2,4.3-4.8,3.6-7.4C56.4,1344.4,54.9,1342.7,51.8,1342.4z"/>
			<path d="M78.8,1340.7c3.9,0.1,4.6,3.8,3.7,6.6c-1,3-1.1,7.4-4.9,7.7c-3.7,0.3-5.1-3.9-4.9-7C73,1344.7,74.9,1341.3,78.8,1340.7z
				 M78.6,1341.4c-1.2,0-2.2,0.4-3.2,1.5c-1.6,1.7-2.6,4.6-2.1,7c0.2,1.1,0.5,2.1,1.1,2.9c1.1,1.6,3.1,2.5,4.7,1
				c1.6-1.5,2.9-5.6,3.1-7.7C82.4,1343.6,81.4,1341.4,78.6,1341.4z"/>
			<path d="M37,1308.3c3.8,0.9,5.9,4.1,6,7.6c0.1,3.7-2,6.5-6,6.3c-3.9-0.2-6.6-4.2-6.6-7.8C30.5,1310.6,33,1308.2,37,1308.3z
				 M37,1308.9c-0.3-0.1-0.6-0.1-0.9-0.1c-0.5,0.1-0.8,0-1.3,0.2c-3.4,1.3-4.5,4.5-3.3,7.7c0.3,0.9,0.6,1.8,1.4,2.5
				c1.7,1.7,3.7,2.9,6.3,1.9c2.6-1,3.8-4.2,3.1-6.7C41.5,1311.5,40.1,1309.7,37,1308.9z"/>
			<path d="M21.9,1306.2c4.2,0.9,6.1,4.2,6.2,8c0,3.9-2.2,6.8-6.4,6.6c-3.9-0.2-7.5-4-7.3-7.9C14.7,1308.6,17.6,1306.2,21.9,1306.2z
				 M21.9,1306.7c-0.9,0.2-1.5,0.1-2.5,0.4c-3.6,1.3-5.2,4.7-3.8,8.2c0.4,0.9,0.7,1.9,1.5,2.6c1.8,1.7,4.1,3,6.8,1.9s4-4.3,3.4-7
				C26.6,1309.5,25.2,1307.7,21.9,1306.7z"/>
			<path d="M11.4,1380.6c0.9-3.8,4.2-7.3,8.4-6.9c4.2,0.3,6.3,4.2,5.8,7.8c-0.6,3.9-3.1,7-7.6,6.9
				C13.2,1388.2,11.3,1385,11.4,1380.6z M18,1387.6c5.2,0.1,7.8-4.2,6.8-8.6c-0.6-2.8-2.1-4.1-4.8-4.7c-1.8-0.4-3.6,0.5-5,1.7
				c-1.8,1.5-3.2,3.8-2.8,6.1C12.8,1385.3,14.3,1387.5,18,1387.6z"/>
			<path d="M75.8,1314.5c0.3-3.6,2.3-7.6,6.5-8s7.8,3,7.6,7c-0.2,4.4-2.7,7.4-7.5,7.7C77.5,1321.5,76.3,1318.5,75.8,1314.5z
				 M76.4,1314.4c0.5,3.6,1.7,6.4,6,6.1s6.7-3.2,6.9-7c0.1-3.5-3.1-6.7-6.9-6.3C78.6,1307.5,76.7,1311.1,76.4,1314.4z"/>
			<path d="M31.2,1331.3c0-3.4,1.9-6.8,5.9-6.6c3.9,0.3,6.6,3.9,6.7,7.3c0.1,3.6-1.6,6.7-5.7,6.7C33.9,1338.6,32,1334.8,31.2,1331.3
				z M38,1338c4.8,0,6.2-4.6,4.6-8.3c-1-2.3-2.7-3.8-5.2-4.3c-1.7-0.3-3,0.3-4.1,1.5c-1.4,1.6-1.9,3.9-1.1,5.8
				C33.2,1335.4,34.6,1338,38,1338z"/>
			<path d="M45.8,1332.1c0.3-3.3,2.1-6.7,6-6.7s6.5,3.3,6.4,6.7c-0.1,3.7-2.4,6.9-6.4,6.9C47.6,1339.2,46.3,1335.4,45.8,1332.1z
				 M51.6,1338.4c4.6-0.1,6.8-4.8,5.4-8.5c-0.9-2.4-2.6-3.6-5.1-3.9c-1.7-0.2-2.9,0.6-4,1.8c-1.4,1.5-1.9,3.8-1.4,5.6
				C47.3,1336.1,48.5,1338.5,51.6,1338.4z"/>
			<path d="M60.2,1332.2c0.4-3.5,2.4-7,6.4-7.3c4-0.3,6.5,3.4,6,6.7c-0.6,3.6-2.2,7-6.4,7.3C61.9,1339.2,60.6,1335.7,60.2,1332.2z
				 M66.9,1325.4c-3.5,0.5-6,3.5-5.9,6.7c0.1,3.4,1.5,6.3,5.2,6.2c3.7-0.1,5.4-3.4,6-6.6c0.3-1.5-0.3-3.3-1.4-4.6
				C69.7,1325.8,68.5,1325.5,66.9,1325.4z"/>
			<path d="M78.4,1338.3c-0.8,0-1.4-0.1-2.1-0.9c-2.2-2.7-2-6.6-0.1-9.7c1.2-1.9,2.9-3.4,5.4-3.8c2.7-0.5,5.1,1.1,6,3.5
				c0.2,0.6,0.4,1.2,0.4,1.8c0.1,1.1-0.1,2.4-0.6,3.3C85.2,1335.7,82.5,1338.1,78.4,1338.3z M79.2,1337.6c4.4-0.3,8.5-4.8,7.8-8.9
				c-0.4-2.6-2.2-3.9-4.8-4.1c-1.8-0.2-3.3,1-4.6,2.2c-1.6,1.5-2.6,4.2-2.4,6.1C75.5,1335.5,76.1,1337.8,79.2,1337.6z"/>
			<path d="M74.8,1383.8c0.5-3.4,2.2-7.5,6.6-7.2c4.3,0.3,7.7,4.4,7.5,8.5c-0.2,4.5-2.9,7.5-7.7,6.9
				C76.1,1391.4,75.2,1388,74.8,1383.8z M81.2,1391.3c5.5,0.6,8.3-4.4,6.5-9c-1.1-2.9-3.2-4.4-6-5.1c-1.9-0.4-3.1,0.6-4.3,1.9
				c-1.5,1.6-2.2,4-1.7,6.2C76.4,1388.4,77.3,1390.9,81.2,1391.3z"/>
			<path d="M28,1381.5c0.7-3.8,3.5-6.8,7.5-7c2.1-0.1,3.4,0.8,4.5,2.2c1.1,1.3,1.9,3.2,1.5,4.9c-0.8,3.8-2.8,6.8-7.3,6.9
				C29.6,1388.7,28.1,1385.6,28,1381.5z M28.6,1381.5c0.2,3.4,1.7,6.5,5.7,6.4c4-0.1,6-2.8,6.6-6.3c0.3-1.6-0.4-3.3-1.5-4.5
				c-1.1-1.2-2.2-2-4-1.9C31.8,1375.4,29.2,1378.2,28.6,1381.5z"/>
			<path d="M45.1,1316.3c0.2-3.4,2.2-6.4,6-6.4c3.8,0,6.7,2.9,6.7,6.3c0,3.7-2.1,6.7-6.2,6.8C47.5,1323.1,45.7,1319.7,45.1,1316.3z
				 M51.5,1322.4c4.5-0.1,6.7-4.6,5.2-8.3c-1-2.4-2.8-3.3-5.3-3.6c-1.7-0.2-2.9,0.4-4,1.6c-1.4,1.5-1.9,3.6-1.3,5.5
				C46.8,1320.2,48.3,1322.4,51.5,1322.4z"/>
			<path d="M60.1,1349c0.3-3.3,2.3-7.3,6.1-7.4c3.9-0.2,5.1,3.9,4.9,6.9c-0.2,3.3-1.2,7.1-5.2,7.4
				C61.8,1356.2,60.5,1352.3,60.1,1349z M65.8,1355.2c4.4-0.3,5.3-5.7,4.6-9.1c-0.4-1.9-1.4-3.5-3.5-3.9c-1.8-0.3-3.2,0.6-4.4,2.1
				c-1.3,1.6-2.1,4.1-1.6,6.1C61.6,1353,62.6,1355.5,65.8,1355.2z"/>
			<path d="M66.4,1322.4c-1.3,0.1-2.2,0-3.3-0.8c-3.1-2.2-3.8-5.9-2.1-9.2c1.1-2.1,2.7-3.5,5.2-4.1c3-0.6,5.3,1.1,6.6,3.7
				c0.3,0.6,0.6,1.4,0.7,2.2c0.2,1.8-0.4,3.6-1.5,5.1C70.6,1321.1,68.8,1322.1,66.4,1322.4z M66.5,1321.6c4.7-0.4,7.4-5.2,5.7-9.2
				c-1.1-2.6-2.8-3.5-5.5-3.6c-1.8,0-3.2,1.1-4.3,2.4c-1.4,1.6-2.2,3.9-1.6,5.9C61.8,1320,63.3,1321.9,66.5,1321.6z"/>
			<path d="M19.4,1370.9c-0.9-0.1-1.7-0.4-2.6-1.3c-2.7-3-1.8-7.4,0.8-10.3c1.6-1.8,3.5-3,5.9-3c2.6,0,4.1,2.4,4.7,4.5
				c0.1,0.5,0.2,1.2,0.3,1.8c0.1,1.1,0,2.3-0.5,3.3C26.1,1369.4,23.8,1371.3,19.4,1370.9z M20.4,1370.2c4.8,0.4,7.9-4.1,7.4-8.2
				c-0.3-2.6-1.4-4.1-3.8-5c-1.6-0.6-3.2,0.4-4.6,1.4c-1.8,1.3-3.5,3.8-3.5,6C15.9,1367.6,17,1370,20.4,1370.2z"/>
			<path d="M19.7,1345.8c-0.3-2.8,0.9-6.4,4.6-5.9s6.2,4.8,6.1,8c-0.1,3.5-2,6.5-5.8,5.8C20.7,1353,20.5,1349,19.7,1345.8z
				 M24.7,1353c4.7,0.8,5.9-4.1,4.7-7.7c-0.8-2.2-2.4-4.2-4.7-4.8c-1.6-0.4-2.5,0-3.3,1.3c-1.2,1.6-1,3.5-0.5,5.3
				C21.6,1349.7,21.4,1352.5,24.7,1353z"/>
			<path d="M65.8,1373.1c-1.2,0-2.2-0.3-3.2-1.1c-2.9-2.5-3.5-6.5-1.8-9.7c1.1-2.1,2.4-3.3,4.8-3.7c2.9-0.4,4.6,2.1,5.6,4.4
				c0.3,0.6,0.7,1.6,0.7,2.3c0.2,2-0.1,4-1.4,5.7S67.8,1373.1,65.8,1373.1z M66,1372.3c5,0,6.4-5,4.9-8.9c-1-2.4-2.2-3.9-4.8-4.2
				c-1.7-0.2-2.8,0.8-3.9,2.1c-1.4,1.6-2.2,3.9-1.6,5.9C61.4,1370,62.4,1372.3,66,1372.3z"/>
			<path d="M49.7,1388.4c-1.2,0-2.3-0.1-3.3-0.9c-3-2.4-3.4-6.1-1.4-9.3c1.3-2,2.9-3.1,5.4-3.3c3-0.2,5.1,1.9,6.1,4.5
				c0.2,0.6,0.5,1.5,0.5,2.1c0,2-0.6,3.7-2.1,5C53.4,1387.9,51.7,1388.4,49.7,1388.4z M44.3,1381.7c0.3,3.4,1.8,6,5.6,6
				c3.8,0,6-2.2,6.5-5.6c0.2-1.7-0.5-3.3-1.6-4.5c-1.1-1.2-2.3-2-4.1-1.9C47.2,1375.7,44.9,1378.5,44.3,1381.7z"/>
			<path d="M73.9,1365.8c0.2-2.8,0.3-7.7,4.4-7.8s7.5,4.1,8.3,7.8c0.9,4-0.7,7.8-5.5,7.8C76.2,1373.5,74.9,1369.6,73.9,1365.8z
				 M80.9,1372.8c5.6-0.1,6.1-5.9,3.8-9.7c-1.5-2.4-3.5-4.2-6.1-4.5c-1.8-0.2-2.6,0.9-3.2,2.3c-0.8,1.8-1.3,4.4-0.5,6.4
				C76,1370.1,77,1372.9,80.9,1372.8z"/>
			<path d="M23.4,1337.4c-1-0.1-2.1-0.5-3.1-1.3c-3-2.3-5.4-6-3.9-9.6c1-2.3,2.6-3.1,5.1-3.2c3.1-0.1,5.5,2.4,6.8,5
				c0.2,0.4,0.4,0.9,0.5,1.3c0.6,2.3,0.5,4.5-1,6.4C26.6,1337.4,25.2,1337.6,23.4,1337.4z M16.5,1329.9c1.2,3.1,3.1,6.2,6.8,6.7
				c4.1,0.6,5.3-2,5.2-5.6c0-1.6-1-3.6-2.2-4.8c-1.2-1.3-2.5-2.2-4.4-2.3C18.3,1323.9,16.4,1326.6,16.5,1329.9z"/>
			<path d="M70.7,1383.3c-0.3,1.9-1,3.4-3,4c-0.7,0.2-1.2,0.2-1.9,0.2c-0.1,0-0.3-0.2-0.4-0.3c0.1-0.1,0.2-0.3,0.4-0.3
				c0.6-0.2,1.2-0.1,1.8-0.3c1.5-0.5,2.1-1.6,2.3-3c0-0.1,0-0.2,0-0.3c0.1-0.2,0.2-0.3,0.4-0.5C70.5,1383,70.6,1383.2,70.7,1383.3z"
				/>
			<path d="M66.1,1377.6c0.1,0.1,0.2,0.2,0.3,0.3c-0.1,0.1-0.3,0.3-0.4,0.3c-1.2,0.2-2,0.6-2.8,1.4c-0.1,0.1-0.4,0.1-0.6,0.1
				c0-0.2,0-0.4,0.1-0.6C63.6,1378.2,64.7,1377.7,66.1,1377.6z"/>
			<path d="M61.3,1382.2c0.1-0.5,0.3-1,0.4-1.4c0.1-0.1,0.3-0.2,0.4-0.2c0.1,0.1,0.2,0.3,0.2,0.5c-0.1,0.4-0.2,0.8-0.3,1.2
				c-0.1,0.2-0.2,0.3-0.3,0.4C61.5,1382.5,61.4,1382.4,61.3,1382.2z"/>
			<path d="M51.5,1370.2c-0.1,0-0.2,0-0.3,0c-0.1-0.1-0.2-0.2-0.4-0.3c0.1-0.1,0.2-0.3,0.3-0.3c0.6-0.2,1.2-0.2,1.8-0.5
				c1.4-0.6,1.9-1.6,2.2-3c0-0.1,0-0.3,0.1-0.4c0.1-0.1,0.2-0.3,0.4-0.4c0.1,0.1,0.2,0.3,0.2,0.4c-0.2,1.8-0.9,3.2-2.6,4
				C52.6,1370,52,1370.1,51.5,1370.2C51.5,1370.2,51.5,1370.2,51.5,1370.2z"/>
			<path d="M51.3,1360.6c0.1,0.1,0.2,0.2,0.3,0.3c-0.1,0.1-0.2,0.3-0.4,0.3c-1.1,0.2-1.9,0.7-2.6,1.5c-0.1,0.1-0.4,0.1-0.5,0.1
				c0-0.2,0-0.4,0.1-0.6C49.1,1361.3,50,1360.8,51.3,1360.6z"/>
			<path d="M46.9,1365.3c0.1-0.5,0.2-1,0.4-1.4c0-0.1,0.3-0.2,0.4-0.2c0,0.1,0.2,0.3,0.1,0.5c-0.1,0.4-0.2,0.8-0.3,1.2
				c-0.1,0.2-0.2,0.3-0.3,0.5C47.1,1365.6,47,1365.5,46.9,1365.3z"/>
			<path d="M36.4,1369.8c-0.1-0.1-0.4-0.2-0.5-0.4c0-0.4,0.3-0.3,0.5-0.4c0.6-0.1,1.1-0.2,1.6-0.4c1.5-0.6,2.1-1.6,2.5-3.1
				c0-0.1,0-0.3,0.1-0.4c0.1-0.1,0.2-0.3,0.3-0.3c0.1,0,0.2,0.2,0.2,0.3c-0.2,1.6-0.9,3.1-2.5,3.9
				C37.9,1369.5,37.2,1369.6,36.4,1369.8z"/>
			<path d="M37.4,1360c0.1,0.1,0.2,0.2,0.3,0.3c-0.1,0.1-0.3,0.3-0.4,0.3c-1.1,0.2-2,0.6-2.8,1.4c-0.1,0.1-0.4,0.1-0.6,0.1
				c0.1-0.2,0.1-0.4,0.2-0.6C35.1,1360.7,36.1,1360.2,37.4,1360z"/>
			<path d="M32.4,1364.6c0.2-0.5,0.4-1,0.6-1.4c0.1-0.1,0.3-0.2,0.4-0.2c0,0.1,0.1,0.3,0.1,0.5c-0.1,0.4-0.3,0.8-0.4,1.2
				c-0.1,0.2-0.3,0.3-0.4,0.4C32.6,1364.9,32.5,1364.8,32.4,1364.6z"/>
			<path d="M42.6,1348.7c-0.3,1.8-0.7,3.3-2.5,4.1c-0.6,0.3-1.1,0.3-1.7,0.4c-0.1,0-0.2-0.2-0.3-0.2c0.1-0.1,0.2-0.3,0.4-0.4
				c0.6-0.2,1-0.2,1.6-0.5c1.3-0.6,1.7-1.7,1.9-3c0-0.1,0-0.2,0-0.3c0-0.2,0-0.6,0.3-0.5C42.5,1348.3,42.6,1348.5,42.6,1348.7z"/>
			<path d="M38.6,1343.3c0.1,0.1,0.2,0.2,0.4,0.3c-0.1,0.1-0.2,0.3-0.3,0.4c-1.1,0.2-1.8,0.7-2.5,1.6c-0.1,0.1-0.4,0.1-0.5,0.1
				c0-0.1-0.1-0.4,0-0.6C36.4,1344,37.3,1343.5,38.6,1343.3z"/>
			<path d="M34.6,1348.2c0.1-0.5,0.1-1,0.3-1.5c0-0.1,0.2-0.2,0.4-0.3c0.1,0.1,0.2,0.3,0.2,0.5c0,0.4-0.1,0.8-0.2,1.3
				c-0.1,0.2-0.2,0.3-0.3,0.5C34.8,1348.5,34.7,1348.3,34.6,1348.2z"/>
			<path d="M56,1349c-0.2,1.9-1,3.5-2.9,4.3c-0.6,0.2-1.1,0.3-1.7,0.4c-0.2,0-0.4-0.2-0.5-0.3c0.1-0.1,0.2-0.3,0.4-0.3
				c0.6-0.2,1.1-0.2,1.6-0.5c1.5-0.6,2.1-1.7,2.4-3.2c0-0.1,0-0.2,0-0.3c0.1-0.2,0.3-0.4,0.4-0.6C55.9,1348.7,56,1348.8,56,1349z"/>
			<path d="M51.5,1343.7c0.1,0.1,0.2,0.2,0.3,0.3c-0.1,0.1-0.3,0.3-0.5,0.4c-1.1,0.2-1.9,0.7-2.6,1.5c-0.1,0.1-0.3,0.1-0.5,0.2
				c0-0.2,0-0.5,0.1-0.6C49.2,1344.4,50.2,1343.9,51.5,1343.7z"/>
			<path d="M47.2,1348.6c0.1-0.5,0.2-0.9,0.3-1.4c0.1-0.2,0.2-0.2,0.3-0.3c0,0.2,0.1,0.4,0.1,0.5c-0.1,0.4-0.2,0.8-0.3,1.2
				c0,0.2-0.2,0.3-0.3,0.5C47.4,1348.9,47.3,1348.7,47.2,1348.6z"/>
			<path d="M77.3,1352.7c-0.1-0.1-0.2-0.2-0.4-0.4c0.1-0.1,0.2-0.3,0.3-0.4c0.4-0.3,0.7-0.3,1.1-0.6c1-0.8,1.2-2.2,1.6-3.4
				c0-0.1,0.1-0.2,0.1-0.3c0.1-0.2,0.3-0.3,0.4-0.5c0,0.1,0.1,0.3,0,0.5c-0.6,1.5-0.5,3.3-1.9,4.3
				C78.1,1352.3,77.7,1352.4,77.3,1352.7z"/>
			<path d="M78.1,1342.7c0.1,0.1,0.1,0.2,0.2,0.2c-0.1,0.1-0.3,0.4-0.4,0.4c-1.1,0.3-1.7,0.9-2.4,1.7c-0.1,0.1-0.3,0.1-0.4,0.2
				c0-0.2,0.1-0.4,0.2-0.6C76,1343.7,76.8,1343,78.1,1342.7z"/>
			<path d="M74.1,1347.9c0.1-0.5,0.2-0.9,0.3-1.4c0-0.2,0.2-0.2,0.3-0.4c0,0.2,0.1,0.4,0,0.6c-0.1,0.4-0.2,0.8-0.2,1.1
				c0,0.2,0,0.5-0.3,0.5C74.1,1348.3,74.1,1348,74.1,1347.9z"/>
			<path d="M41.3,1315.8c-0.2,1.7-0.6,3.1-2.5,3.7c-0.6,0.2-1.2,0.2-1.8,0.3c-0.1,0-0.3-0.2-0.4-0.3c0.1-0.1,0.2-0.3,0.3-0.3
				c0.6-0.2,1.2-0.2,1.7-0.4c1.4-0.5,1.8-1.5,2-2.8c0-0.1,0-0.2,0-0.3c0.1-0.2,0.2-0.3,0.3-0.5C41.1,1315.5,41.2,1315.7,41.3,1315.8
				z"/>
			<path d="M36.8,1310.3c0.1,0.1,0.2,0.2,0.3,0.3c-0.1,0.1-0.2,0.3-0.4,0.3c-1.1,0.1-1.9,0.4-2.7,1.2c-0.1,0.1-0.4,0.1-0.5,0.1
				c0-0.2,0-0.4,0.1-0.6C34.4,1310.7,35.5,1310.2,36.8,1310.3z"/>
			<path d="M32.3,1314.6c0.1-0.5,0.2-1,0.4-1.4c0-0.1,0.3-0.2,0.4-0.2c0.1,0.1,0.2,0.3,0.2,0.5c-0.1,0.4-0.1,0.8-0.3,1.2
				c-0.1,0.2-0.2,0.3-0.3,0.4C32.5,1314.9,32.4,1314.7,32.3,1314.6z"/>
			<path d="M21.9,1318.3c-0.1,0-0.2,0-0.3,0c-0.2-0.1-0.3-0.2-0.4-0.3c0.1-0.1,0.2-0.3,0.3-0.3c0.6-0.2,1.3-0.1,1.9-0.4
				c1.4-0.5,1.9-1.6,2.1-2.9c0-0.1,0-0.3,0-0.5c0.1-0.1,0.2-0.2,0.4-0.3c0.1,0.1,0.2,0.3,0.2,0.5c-0.1,1.8-0.7,3.3-2.5,3.9
				C23.1,1318.2,22.5,1318.2,21.9,1318.3C21.9,1318.4,21.9,1318.3,21.9,1318.3z"/>
			<path d="M21.5,1308.2c0.1,0.1,0.2,0.2,0.4,0.4c-0.2,0.1-0.3,0.3-0.5,0.3c-1.2,0.1-2.1,0.5-3,1.3c-0.1,0.1-0.4,0.1-0.6,0.2
				c0-0.2,0-0.5,0.2-0.6C19,1308.7,20.1,1308.3,21.5,1308.2z"/>
			<path d="M16.5,1312.9c0.1-0.5,0.2-0.9,0.4-1.4c0.1-0.2,0.3-0.2,0.5-0.3c0,0.2,0.2,0.4,0.1,0.6c-0.1,0.4-0.1,0.8-0.3,1.2
				c-0.1,0.2-0.2,0.3-0.4,0.4C16.8,1313.2,16.7,1313.1,16.5,1312.9z"/>
			<path d="M13.8,1380.5c0.2-0.5,0.4-1,0.6-1.6c0.1-0.1,0.4-0.2,0.5-0.3c0,0.1,0.1,0.4,0.1,0.5c-0.6,1.3-0.6,2.5-0.2,3.8
				c0.3,0.9,0.9,1.4,1.6,1.9c0.2,0.1,0.4,0.4,0.3,0.6c-0.2,0.4-0.4,0.2-0.7,0C14.3,1384.3,13.8,1382.6,13.8,1380.5z"/>
			<path d="M22.5,1383.6c-0.1-0.2-0.2-0.4-0.2-0.7c0-0.2,0.2-0.4,0.2-0.6c0.4-0.9,0.3-1.6,0.1-2.6c0-0.2,0.1-0.4,0.2-0.6
				c0.1,0.1,0.4,0.2,0.4,0.4c0.4,1.3,0.2,2.3-0.4,3.5C22.9,1383.2,22.6,1383.4,22.5,1383.6z"/>
			<path d="M77.9,1314.1c0.1-0.6,0.2-1.1,0.4-1.7c0-0.2,0.3-0.3,0.4-0.4c0.1,0.1,0.2,0.4,0.1,0.5c-0.4,1.5-0.2,2.8,0.6,4.1
				c0.4,0.6,0.9,0.8,1.4,1.2c0.2,0.2,0.5,0.2,0.3,0.6c-0.2,0.3-0.4,0.2-0.7,0.1C78.7,1317.6,78.3,1316,77.9,1314.1z"/>
			<path d="M86.8,1315.9c-0.1-0.2-0.2-0.5-0.2-0.7c0.4-1.2,0.4-2.1-0.1-3.3c0-0.1,0.1-0.3,0.1-0.5c0.1,0,0.4,0,0.5,0.2
				c0.7,1.3,0.6,2.5,0.1,3.9C87.2,1315.6,86.9,1315.8,86.8,1315.9z"/>
			<path d="M42.1,1331.8c-0.1,1.3-0.4,2.4-1.1,3.5c-0.1,0.1-0.3,0.1-0.4,0.1c0-0.1-0.1-0.4-0.1-0.5c0.2-0.5,0.5-0.8,0.7-1.3
				c0.4-1,0.3-2-0.1-3c-0.1-0.2-0.3-0.5,0.1-0.6c0.1,0,0.4,0.2,0.4,0.4C41.7,1330.8,41.9,1331.3,42.1,1331.8z"/>
			<path d="M37.2,1326.6c0.6,0.2,1.1,0.4,1.7,0.6c0.1,0.1,0.2,0.3,0.3,0.5c-0.1,0-0.3,0.2-0.4,0.1c-1-0.4-1.8-0.5-2.9-0.2
				c-0.1,0-0.3-0.1-0.4-0.2c0-0.1,0.1-0.4,0.2-0.4C36.2,1326.8,36.7,1326.7,37.2,1326.6z"/>
			<path d="M47.7,1332.1c0.1-0.5,0.2-1.1,0.4-1.6c0-0.1,0.3-0.2,0.4-0.3c0.1,0.1,0.2,0.4,0.1,0.5c-0.3,1.2-0.2,2.3,0.3,3.4
				c0.4,0.8,0.9,1.3,1.6,1.8c0.1,0.1,0.2,0.2,0.3,0.4c0,0-0.1,0.2-0.2,0.2c-0.1,0-0.3,0-0.4-0.1C48.5,1335.4,48,1333.9,47.7,1332.1z
				"/>
			<path d="M55.5,1334.4c-0.1-0.2-0.2-0.4-0.2-0.5c0-0.2,0.1-0.3,0.1-0.4c0.3-0.9,0.3-1.7-0.1-2.6c-0.1-0.2-0.3-0.5,0.1-0.6
				c0.1,0,0.4,0.2,0.4,0.4c0.4,1.1,0.4,2.1,0,3.3C55.8,1334.1,55.6,1334.3,55.5,1334.4z"/>
			<path d="M62.2,1332c0.1-0.5,0.2-1.1,0.4-1.6c0-0.1,0.3-0.2,0.4-0.3c0,0.1,0.1,0.4,0.1,0.5c-0.4,1.2-0.2,2.4,0.2,3.5
				c0.3,0.8,0.7,1.2,1.4,1.7c0.2,0.1,0.5,0.2,0.3,0.6c-0.2,0.3-0.4,0.2-0.6,0C62.8,1335.3,62.5,1333.7,62.2,1332z"/>
			<path d="M70.9,1331.7c-0.2,0.6-0.4,1.2-0.6,1.8c-0.1,0.1-0.3,0.2-0.4,0.3c0-0.2-0.1-0.4,0-0.5c0.4-1.1,0.5-1.9,0.2-3
				c0-0.1,0.1-0.4,0.1-0.5c0.1,0.1,0.4,0.1,0.4,0.2C70.7,1330.5,70.8,1331.1,70.9,1331.7z"/>
			<path d="M76.6,1331.3c0.2-0.6,0.4-1.1,0.7-1.7c0.1-0.1,0.3-0.2,0.4-0.3c0,0.1,0.1,0.4,0,0.5c-0.5,1.1-0.6,2.3-0.4,3.4
				c0.2,0.9,0.5,1.3,1.2,1.9c0.1,0.1,0.2,0.4,0.2,0.5c-0.1,0.3-0.3,0.2-0.5,0.1C76.7,1334.6,76.6,1333,76.6,1331.3z"/>
			<path d="M85.6,1331c-0.3,0.6-0.6,1.2-1,1.7c-0.1,0.2-0.4,0.2-0.5,0.4c0-0.2-0.1-0.4,0-0.5c0.6-1,1-1.9,0.7-3
				c0-0.1,0.1-0.4,0.2-0.5c0.1,0.1,0.4,0.1,0.4,0.2C85.6,1329.9,85.6,1330.4,85.6,1331z"/>
			<path d="M84.9,1388.9c-0.1-0.1-0.2-0.2-0.2-0.3c0-0.2,0.1-0.4,0.2-0.6c0.4-0.8,0.9-1.6,1.2-2.4c0.3-0.8,0-1.6-0.3-2.3
				c-0.1-0.3-0.3-0.6,0.1-0.8c0.1,0,0.5,0.3,0.5,0.5c0.6,2.1,0.4,4-1.2,5.6C85.1,1388.8,85,1388.8,84.9,1388.9z"/>
			<path d="M81.5,1378.7c0.6,0.2,1.2,0.4,1.9,0.7c0.1,0.1,0.2,0.4,0.3,0.5c-0.1,0.1-0.3,0.2-0.5,0.1c-1.1-0.5-2-0.6-3.1-0.2
				c-0.1,0-0.4-0.2-0.5-0.2c0-0.1,0.1-0.4,0.2-0.4C80.4,1378.9,80.9,1378.8,81.5,1378.7z"/>
			<path d="M30.1,1381.5c0.2-0.6,0.4-1.1,0.6-1.6c0.1-0.1,0.3-0.2,0.4-0.3c0,0.1,0.1,0.4,0.1,0.5c-0.5,1.2-0.5,2.4-0.1,3.6
				c0.3,0.9,0.9,1.3,1.7,1.8c0.1,0.1,0.3,0.2,0.3,0.4c0,0.1-0.1,0.3-0.2,0.3c-0.1,0-0.3,0-0.4-0.1
				C30.7,1384.9,30.3,1383.4,30.1,1381.5z"/>
			<path d="M39.5,1381.6c-0.2,0.6-0.4,1.2-0.6,1.8c-0.1,0.1-0.3,0.2-0.4,0.3c0-0.1-0.2-0.4-0.1-0.5c0.4-1.1,0.5-1.9,0.2-3
				c0-0.1,0.1-0.3,0.2-0.4c0.1,0,0.4,0.1,0.4,0.2C39.3,1380.5,39.4,1381,39.5,1381.6z"/>
			<path d="M56,1316.2c-0.1,1.3-0.4,2.4-1.2,3.4c-0.1,0.1-0.3,0.1-0.5,0.1c0-0.2,0-0.4,0-0.5c0.3-0.7,0.6-1.2,0.9-1.9
				c0.2-0.7,0.2-1.3-0.1-1.9c-0.1-0.2-0.2-0.4-0.2-0.5c0-0.2,0.1-0.3,0.1-0.4c0.1,0,0.3,0.1,0.4,0.1
				C55.6,1315.1,55.8,1315.6,56,1316.2z"/>
			<path d="M51.1,1311.8c0.5,0.2,1.1,0.2,1.7,0.4c0.1,0,0.2,0.3,0.3,0.4c-0.1,0.1-0.3,0.2-0.4,0.2c-1-0.3-1.9-0.3-2.8,0
				c-0.1,0-0.3-0.1-0.4-0.2c0-0.1,0.1-0.4,0.2-0.4C50.1,1312,50.6,1312,51.1,1311.8z"/>
			<path d="M69.8,1348.4c-0.2,1.3-0.4,2.6-1.1,3.7c-0.1,0.1-0.2,0.1-0.4,0.2c0-0.2,0-0.4,0-0.6c0.2-0.7,0.5-1.4,0.8-2.1
				c0.2-0.7,0.2-1.4,0-2.1c0-0.2-0.1-0.4-0.1-0.5c0-0.2,0.1-0.3,0.1-0.5c0.1,0,0.2,0.1,0.3,0.2C69.5,1347.2,69.6,1347.8,69.8,1348.4
				z"/>
			<path d="M66.1,1343.5c0.5,0.2,0.9,0.3,1.4,0.5c0.1,0,0.1,0.3,0.2,0.4c-0.1,0.1-0.3,0.2-0.4,0.2c-0.9-0.4-1.6-0.3-2.5,0.1
				c-0.1,0-0.3-0.1-0.4-0.1c0-0.1,0.1-0.4,0.2-0.5C65.2,1343.9,65.6,1343.7,66.1,1343.5z"/>
			<path d="M71.6,1314.6c-0.2,1.4-0.6,2.6-1.5,3.8c-0.1,0.1-0.3,0.1-0.5,0.1c0-0.2,0-0.4,0-0.6c0.3-0.7,0.7-1.4,1-2.1
				c0.3-0.7,0.2-1.4,0-2.1c-0.1-0.2-0.2-0.4-0.2-0.6c0-0.2,0.1-0.3,0.1-0.5c0.1,0,0.3,0,0.4,0.1
				C71.2,1313.5,71.4,1314.1,71.6,1314.6z"/>
			<path d="M66.7,1310.2c0.6,0.1,1.1,0.2,1.6,0.3c0.1,0,0.2,0.3,0.3,0.4c-0.1,0.1-0.3,0.2-0.5,0.2c-1.1-0.3-2-0.2-3,0.3
				c-0.1,0.1-0.3,0-0.5-0.1c0.1-0.1,0.1-0.4,0.3-0.5C65.6,1310.6,66.1,1310.4,66.7,1310.2z"/>
			<path d="M26.7,1364.1c-0.4,1.3-1,2.5-2.1,3.4c-0.1,0.1-0.3,0.1-0.5,0.1c0-0.2,0.1-0.4,0.2-0.6c0.5-0.8,1.1-1.5,1.5-2.3
				c0.4-0.7,0.3-1.3,0.2-2.1c0-0.3-0.1-0.6,0.2-0.7c0.1,0,0.3,0.3,0.3,0.5C26.6,1363.1,26.6,1363.6,26.7,1364.1z"/>
			<path d="M23.5,1358.4c0.5,0.3,0.9,0.5,1.4,0.8c0.1,0.1,0.1,0.3,0.1,0.5c-0.1,0-0.3,0.2-0.4,0.1c-0.9-0.6-1.7-0.7-2.7-0.4
				c-0.1,0-0.3-0.1-0.4-0.2c0.1-0.1,0.2-0.4,0.3-0.4C22.4,1358.5,22.9,1358.5,23.5,1358.4z"/>
			<path d="M22.1,1345.9c0-0.5-0.1-1,0-1.5c0-0.1,0.2-0.2,0.3-0.2c0.1,0.1,0.3,0.4,0.2,0.5c0,1.1,0.4,2.2,0.6,3.3
				c0.2,0.8,0.2,1.6,0.8,2.2c0.1,0.1,0.2,0.5,0.2,0.6c-0.2,0.3-0.3,0.1-0.5,0C22.5,1349.4,22.8,1347.5,22.1,1345.9z"/>
			<path d="M28.8,1347.6c-0.1,0.6-0.2,1.1-0.4,1.7c0,0.1-0.2,0.1-0.3,0.2c0-0.1-0.2-0.4-0.1-0.5c0.3-1.1,0.2-2-0.1-3.1
				c0-0.1,0-0.3,0.1-0.4c0.1,0.1,0.3,0.2,0.3,0.3C28.4,1346.4,28.6,1347,28.8,1347.6z"/>
			<path d="M70.3,1365.7c-0.1,1.4-0.4,2.6-1.2,3.7c-0.1,0.1-0.3,0.1-0.4,0.1c0-0.2-0.1-0.4,0-0.5c0.2-0.5,0.5-0.9,0.7-1.4
				c0.4-1.1,0.4-2.1-0.1-3.2c-0.1-0.2,0-0.5,0-0.7c0.1,0.1,0.4,0.2,0.4,0.4C70.1,1364.6,70.2,1365.2,70.3,1365.7z"/>
			<path d="M65.9,1360.6c0.5,0.2,1,0.3,1.5,0.5c0.1,0,0.2,0.3,0.2,0.4c-0.1,0.1-0.3,0.2-0.4,0.2c-1-0.4-1.7-0.4-2.6,0.1
				c-0.1,0-0.3-0.1-0.4-0.1c0-0.1,0.1-0.4,0.2-0.5C64.9,1360.9,65.4,1360.8,65.9,1360.6z"/>
			<path d="M53.3,1385.3c-0.1-0.1-0.2-0.1-0.2-0.2c0-0.1,0-0.3,0.1-0.4c0.3-0.4,0.6-0.8,0.8-1.2c0.5-1,0.6-1.8,0.3-2.9
				c-0.1-0.2-0.3-0.6,0.1-0.7s0.4,0.2,0.5,0.5c0.4,1.8,0,3.3-1.3,4.7C53.5,1385.2,53.4,1385.2,53.3,1385.3z"/>
			<path d="M52.6,1377.9c-0.1,0-0.4,0.1-0.5,0.1c-1-0.4-1.9-0.5-3-0.1c-0.1,0-0.3-0.1-0.4-0.2c0.1-0.1,0.1-0.3,0.3-0.4
				c1.2-0.5,2.2-0.4,3.3,0.1c0.1,0.1,0.2,0.2,0.3,0.3C52.7,1377.7,52.6,1377.8,52.6,1377.9z"/>
			<path d="M84.4,1365.5c0.2,1.5,0.1,2.8-0.6,4.1c-0.1,0.1-0.3,0.1-0.4,0.1c-0.1-0.2-0.2-0.4-0.2-0.6c0.1-0.6,0.4-1,0.5-1.6
				c0.2-1.3-0.1-2.4-0.7-3.5c-0.2-0.3-0.5-0.6-0.1-0.7c0.1-0.1,0.5,0.3,0.6,0.4C83.8,1364.4,84.2,1365,84.4,1365.5z"/>
			<path d="M78.7,1360c0.5,0.2,0.9,0.3,1.4,0.5c0.1,0.1,0.3,0.4,0.4,0.5c-0.1,0.1-0.3,0.2-0.4,0.2c-1-0.4-1.7-0.4-2.5,0.1
				c-0.1,0.1-0.3-0.1-0.4-0.2c0-0.1,0-0.4,0.1-0.5C77.8,1360.4,78.3,1360.3,78.7,1360z"/>
			<path d="M27.3,1330.8c0,1.3-0.2,2.4-0.9,3.4c-0.1,0.1-0.3,0.1-0.4,0.1c0-0.2-0.1-0.4,0-0.5c0.2-0.8,0.5-1.5,0.7-2.3
				c0.2-0.7-0.2-1.4-0.5-2c-0.1-0.2-0.3-0.5,0-0.7c0.1,0,0.4,0.3,0.5,0.5C26.9,1329.7,27.1,1330.3,27.3,1330.8z"/>
			<path d="M22,1325.3c0.6,0.2,1.2,0.4,1.8,0.7c0.1,0.1,0.2,0.3,0.3,0.5c-0.1,0-0.3,0.1-0.5,0.1c-1-0.4-1.8-0.6-2.9-0.2
				c-0.1,0-0.4-0.1-0.5-0.1c0-0.1,0.1-0.4,0.2-0.5C21,1325.5,21.5,1325.4,22,1325.3z"/>
		</g>
		<g>
			<path class="st0" d="M40.6,954.7c0.3-1.3,0.6-2.8,1.3-4.3"/>
			<path class="st0" d="M48.5,973.3c-2.2-2.3-4.2-4.5-5.8-6.7"/>
			<path class="st0" d="M44.7,954.1c-5.8-6.1-5.6-13.4-0.8-19.5"/>
			<path class="st0" d="M48.2,942.3c-1-4.5-3.4-6.3-5.2-8.8"/>
			<path class="st0" d="M46,924.9c-6.4-2.1-1.6-4.7-4.6-8.6c-3.1-3.9-6-8.4-3.2-9.6c2.8-1.1,11.1,0.7,14.1,3.4c3,2.7,4.6,4.8,5.2,7"
				/>
			<path class="st0" d="M56.4,914.7c2.1-1.3,6.9-2.6,6.6,4.1c-0.4,6.8-3.1,7.6-5.7,7.1"/>
			<path class="st0" d="M56.5,922.6c2,3.1-0.3,10.2-2.9,12"/>
			<path class="st0" d="M57.1,950.2c1.7-9.9-2.3-14.2-7.8-20.6"/>
			<path class="st0" d="M47.8,949.2c2.6,6.3,12,8,11.9,14.2c-0.1,6.2-1.4,8.5-3.4,11.9"/>
			<path class="st0" d="M51.1,969.1c1.6,6.2,8.5,5.7,9.5,12.6c1,6.9,1.1,13.6-4.1,10.3c-5.2-3.2-6.7-5.8-9.5-4.2"/>
			<path class="st0" d="M51.5,988.4c-6.6,3.9-11.2,1.4-12.1-1.9c-3.2-11.9,5-15.2,4.7-17.6"/>
			<path class="st0" d="M45,984.2c0-4.2,1.5-7.2,4.3-8.6"/>
			<path class="st0" d="M55.1,971.1c0-2.6,1.1-4.8-2.2-8.5"/>
			<path class="st0" d="M41.3,944.2"/>
			<path class="st0" d="M40.3,955c1.4-1.5,3.8,3.4,4.8,4.8s1.2,4.9,0.6,6.6s-1.5,1.1-3.4,0C41.2,965.7,38.8,956.5,40.3,955z"/>
			<path class="st0" d="M43.1,964.7c0.9-0.9,2.1,0,0.4-2.8"/>
			<path class="st0" d="M42.5,962.6c-0.8-1.2-1.8-1.3-1.2-3.4"/>
			<path class="st0" d="M51.5,965.3c-1,0.6-2.8-1.6-3.2-4s-3-6.4-1.1-7.2c1.9-0.8,5.8,1.3,7,4.6s1.1,5.4,0.9,7.3"/>
			<path class="st0" d="M50.8,962.3c-1-1.3-2.2-4.2-2.3-5.5"/>
			<path class="st0" d="M51.7,959.6c1.5,1.8-0.6,2,0.4,3.7"/>
			<path class="st0" d="M52.3,967c1,0.5,2.5,1,3,0.3"/>
			<path class="st0" d="M52,971.3c-1.3-1.1-3.6,0.2-2.4,2.1c1.2,1.8,2.3,1.1,2.9,4c0.6,2.8,5.2,3.6,5.7-0.3"/>
			<path class="st0" d="M54.5,974c1.3,1.6,1.8,3.1,0.7,3.7"/>
			<path class="st0" d="M52.6,977.3c0.2-1.7,0.2-3.3-1.1-4.5"/>
			<path class="st0" d="M45.4,980.7c-0.9,1.6-3.5,1.5-3.6,0s2.9-6.2,2.6-7.9s4.1,0.2,3.5,3.8"/>
			<path class="st0" d="M43.5,979.4c0.9-1.1,2.7-2.5,2.1-3.5"/>
			<path class="st0" d="M43.2,976.7c1.1-1.4,1.9-3.4,2.6-2.7"/>
			<path class="st0" d="M53.1,955.1c-1.2-2.9-2.8-5.6-1.1-8.2c1.7-2.5,4.6,1.4,5.1,3.3c0.6,2.3,0.3,6.6-1.5,6.7"/>
			<path class="st0" d="M54.2,954.1c0.9-1.4,1.7-3.2,1-4.5"/>
			<path class="st0" d="M53.5,952c0.2-2.4-0.7-5.8-2.1-4"/>
			<path class="st0" d="M58.3,971.8c0.4-2.4-1.8-3.5-0.4-6.2"/>
			<path class="st0" d="M42.8,951.8c2.1,0.2,4.2,1,3.2-4s-2.1-5.8-1.5-7.4c0.6-1.5-2.7-1.7-3.8,0.3"/>
			<path class="st0" d="M43.9,949.8c-0.9-1.5-2.5,0.4-2.2-3.1"/>
			<path class="st0" d="M44.4,948c-0.8-0.9-2.7-2-2.6-3.6s1-1,2,0"/>
			<path class="st0" d="M44.4,942.3c-0.3-0.9-1-1.1-1.5-1.2"/>
			<path class="st0" d="M47.8,944c1.4,0.9,6.2-0.5,4.7-2.6c-1.6-2.1-4.9-7.8-6.1-3.5"/>
			<path class="st0" d="M47.8,940.9c0.9,1,1.9,2.4,2.7,1.7"/>
			<path class="st0" d="M49.9,940.9c-0.7-1.2-1.8-4.3-3-4.1"/>
			<path class="st0" d="M57.3,943.6c-1.2,0.8-2.4-2.9-3.8-4.6c-1.4-1.7-4.7-6.5-1.4-6"/>
			<path class="st0" d="M55.7,939.6c-1.4-1.2-2.3-2-2.9-3.9"/>
			<path class="st0" d="M55.1,941.2c0.8,0.6,1.6,0.8,1.3-0.2"/>
			<path class="st0" d="M43.6,923.8c3.2,2.5,3.5,6.3,3.3,8.8c-0.3,2.4-3.3,2.5-4.5,0c-0.4-0.9-2.7-7.9,0.1-11"/>
			<path class="st0" d="M43.5,929.9c0.9,1.1,2.1,0,0.9-1.9"/>
			<path class="st0" d="M44.4,932.1c-1.4-0.5-3-3.1-2.6-5.7"/>
			<path class="st0" d="M43.1,926.7c0-1.5,1.1-1.9-0.2-3.7"/>
			<path class="st0" d="M50.1,926.2c1.6,2.5,3.7,2.5,4.4,0.5s-0.6-7.9-2.8-9.7c-2.3-1.9-4.3-3-5.5-1.3
				C44.9,917.3,47.8,922.7,50.1,926.2z"/>
			<path class="st0" d="M50.5,923.8c-0.1-1.8-4.5-4.2-3-6"/>
			<path class="st0" d="M53.2,926.4c-3.1-0.2,0.1-0.9-1-4.6"/>
			<path class="st0" d="M51.1,921.7c-0.2-1.7,0.1-4.4-3.4-5.7"/>
			<path class="st0" d="M58.2,922.6c1.1-2.3,2.5-3.2,1-5.2"/>
			<path class="st0" d="M52.1,915.6c-1.5-2.3-0.8-3.6-7.5-5.6"/>
			<path class="st0" d="M46.4,912.4c-2-1-6.5-2.9-7.9-2.9"/>
			<path class="st0" d="M53,933.9c-0.4-1.4,0.6-3.3,2-4.3"/>
			<path class="st0" d="M56.9,983c-3.3,3.5-2.9-3.4-6.6-1.5"/>
			<path class="st0" d="M45,989.1c-1.5-0.1-4.8-2.7-5-7.6"/>
			<path class="st0" d="M46.6,985.8c-0.2-1.6,0.3-5.4,1.3-7.4"/>
			<path class="st0" d="M48.3,983.8c-0.2-1.4,0.1-4.7,1.8-5.8"/>
			<path class="st0" d="M56.9,990.4c1.4,0.7,3.8,0.4,2.1-6"/>
			<path class="st0" d="M49.9,949.8c-0.3-1.9-0.1-3.4,1.4-4.5"/>
			<path class="st0" d="M56.1,946.1c-0.1-1.4-2.3-4.5-3.2-6"/>
			<path class="st0" d="M47.9,969.7c2-2.3-0.3-3.4-1.5-9.7"/>
			<path class="st0" d="M54.8,960.9c1.2,2,3.5,4.5,2.6,1.5"/>
			<path class="st0" d="M57.4,960.7c-0.7-1.2-0.1-0.3-1.6-1.9"/>
		</g>
		<g>
			<path class="st0" d="M45.9,852.6c-0.4-1.4-0.8-2.7-1.2-4.1"/>
			<path class="st0" d="M49.4,870.1c-1-2.1-1.6-4.1-1.7-6.4"/>
			<path class="st0" d="M49,851.6c-7.8-5.9-11.8-10.6-5.4-19.8"/>
			<path class="st0" d="M47.4,840c-1.4-3.2-3-6.3-4.4-9.6"/>
			<path class="st0" d="M45.6,823.4c-5-0.8-2-3.4-4.7-4.4c-2.6-1-7-2.6-4.9-5.3c2.1-2.7,10.7-3.4,13.5-3c2.7,0.3,4.5,3,6,5"/>
			<path class="st0" d="M54.1,813.5c3.9-3.3,6-2,6.8,2.7c0.8,4.7,0.5,6.9-4.4,7.9"/>
			<path class="st0" d="M55.3,821.1c2.2,5,0.5,7.9-3.4,11.1"/>
			<path class="st0" d="M58.1,845.9c-1.8-6.6-5.6-12.7-9.5-18.2"/>
			<path class="st0" d="M49.6,846.9c3.9,3.2,12.4,6.8,11.9,12.6c-0.5,5.8-3.6,8.1-6.4,12.6"/>
			<path class="st0" d="M52.7,865.9c-0.3,5,5.5,8.2,7.4,11.9c1.9,3.7,2.9,12.2-2.1,10.8c-5-1.5-4.3-4.4-9.5-2.8"/>
			<path class="st0" d="M52.1,885.1c-1.6,5.2-9.4,3.6-10.5,0.5c-3.8-11.4-0.1-11.8,5.7-20"/>
			<path class="st0" d="M46.6,882.4c-0.2-3.9,0.3-7,3-10"/>
			<path class="st0" d="M55.2,867.6c1.2-3,1.7-5.3,0.6-8.4"/>
			<path class="st0" d="M41.8,842.5"/>
			<path class="st0" d="M46.1,853.2c1.2-1.6,4.2,2.6,4.7,3.9s0.2,4.8-0.9,5.9c-1.1,1.1-1.4,2.3-2.3-0.1
				C47.1,861.5,44.9,854.8,46.1,853.2z"/>
			<path class="st0" d="M48.8,861.8c1.1-0.9,1.2-1.3,0.9-2.7"/>
			<path class="st0" d="M48.9,859.9c-0.4-1-0.7-2-0.8-3.1"/>
			<path class="st0" d="M54,862c-1.6-0.5-1.4-2.5-1.4-4c0.1-1.5-3.4-5.1-1.4-6.4s5.3,1.5,5.8,3.7s0.4,5-0.4,7.3"/>
			<path class="st0" d="M54.3,859c-0.6-1.7-1.2-3.4-1.7-5.2"/>
			<path class="st0" d="M55.1,856.2c0.4,1.3-0.2,2.4-0.1,3.7"/>
			<path class="st0" d="M54.2,863.6c0.8,0.5,1.5,0.8,2.4,0.3"/>
			<path class="st0" d="M52.5,867.7c-1.4-0.7-2.6,0.7-2.1,2.3c0.5,1.6,0.9,2.1,1.9,4.2c1,2.1,4.4,3.3,4.9-0.8"/>
			<path class="st0" d="M53.7,870.4c0.6,1.2,1.4,2.4,0.7,3.8"/>
			<path class="st0" d="M52.1,873.9c0-1.6,0.1-3-0.3-4.5"/>
			<path class="st0" d="M46.5,878.5c-0.6,1.3-2.9,2.8-3,0c-0.1-2.8,1.6-6,2.8-8.7c1.2-2.7,2.4,2.6,2.1,3.7"/>
			<path class="st0" d="M44.9,877.1c0.9-1.3,1.9-2.4,1.9-4.1"/>
			<path class="st0" d="M44.5,874.2c0.5-1,1.3-3.1,2.5-3.2"/>
			<path class="st0" d="M55.7,851.5c-0.9-2.4-4.2-4.7-3.3-7.6c0.9-2.8,4.8,0.4,5.7,2.1c1.2,2.1,2.4,5.2,0.2,7.1"/>
			<path class="st0" d="M56.6,850.4c0.4-1.7,0.5-3.1-0.6-4.7"/>
			<path class="st0" d="M55.4,848.4c-0.4-1.2-1.7-5.2-3.3-3.4"/>
			<path class="st0" d="M58.1,868.4c0.5-2.2,0.2-4.2,1.3-6.3"/>
			<path class="st0" d="M46.3,849.6c3.9,0.1,2.6-1.6,1.1-3.9c-1.5-2.3-3.1-4.6-3.5-7.3c-0.4-2.7-2.6-0.5-3.5,0.5"/>
			<path class="st0" d="M46.4,847.7c-2.2-1.1-2.4-0.1-3.4-2.8"/>
			<path class="st0" d="M46,845.9c-1.3-0.9-3.2-1.6-3.6-3.3c-0.4-1.7,1.1-0.8,1.7-0.2"/>
			<path class="st0" d="M44.2,840.3c-0.4-0.7-0.9-1-1.7-1.1"/>
			<path class="st0" d="M47.6,841.7c1.9,0.3,4.1-1,2.9-3c-1.2-2-3-6.4-5-3.1"/>
			<path class="st0" d="M46.9,838.7c0.6,0.7,1.4,1.9,2.5,1.3"/>
			<path class="st0" d="M48.4,838.6c-0.7-1.4-1-3.3-2.6-4"/>
			<path class="st0" d="M55.5,839.3c-2.2,0.3-3.3-1.6-4.5-3.2c-1.1-1.6-3.1-4.5-0.2-5.3"/>
			<path class="st0" d="M52.9,836.2c-1.2-0.7-1.8-1.5-2.1-2.9"/>
			<path class="st0" d="M52.4,837.8c0.6,0.2,1.6,0.4,1.3-0.5"/>
			<path class="st0" d="M43.4,822.8c2.1,1.9,4,4.1,2.7,7.2s-2.8,2-3.8-1.2c-0.4-1.2-2.5-5.9-0.2-7.3"/>
			<path class="st0" d="M43.6,827.2c1.3,0.9,1.2-0.5,0.8-1.3"/>
			<path class="st0" d="M44.5,829.1c-1.5-1.2-2.5-2.5-2.7-4.5"/>
			<path class="st0" d="M43,824.9c0.1-1,0.2-1.8-0.5-2.6"/>
			<path class="st0" d="M49.5,824.8c1.2,1.4,3,2.9,4,0.2c1-2.8-1.6-6.6-3.5-8.1c-1.9-1.5-3.7-2.3-4.9,0.1
				C44,819.3,47.9,822.9,49.5,824.8z"/>
			<path class="st0" d="M49.7,822.7c-1.1-1.6-3.6-2.7-3.4-4.8"/>
			<path class="st0" d="M52.4,824.9c-2-0.4-1-2.4-1.4-4"/>
			<path class="st0" d="M50,820.9c-0.7-2.2-1.4-3.8-3.7-4.4"/>
			<path class="st0" d="M57,820.8c0.7-2,1.5-3.4,0.2-5.2"/>
			<path class="st0" d="M50.2,815.2c-2.5-3-3.8-2.3-7.3-1.4"/>
			<path class="st0" d="M44.9,814.5c-2.6,0.5-5.3,0.7-7.9,1.1"/>
			<path class="st0" d="M51.5,831.6c0.4-1.8,1.4-2.9,2.7-4"/>
			<path class="st0" d="M56.7,879.6c-3.9,2.7-1.8-2.2-6-1.1"/>
			<path class="st0" d="M46.9,887.2c-3.6-1.2-4.6-4.1-5.3-7.6"/>
			<path class="st0" d="M48.3,883.8c-0.4-2.8-0.3-5.5,0.3-8.3"/>
			<path class="st0" d="M49.4,881.4c-0.4-2.4-0.3-4.4,0.8-6.6"/>
			<path class="st0" d="M57.4,887c4,0.5,2.3-3.6,1.6-5.9"/>
			<path class="st0" d="M51.5,846.9c-0.8-1.5-1.3-2.8-0.7-4.5"/>
			<path class="st0" d="M55.4,842.1c-1.5-1.7-3.4-3-4.9-4.8"/>
			<path class="st0" d="M50.1,866.4c2-3,1.8-5.9,1.5-9.4"/>
			<path class="st0" d="M57.5,857.4c0.4,1,1.7,4.9,2.1,1.5"/>
			<path class="st0" d="M59.8,857c-0.3-0.7-0.8-1.3-1.2-2"/>
		</g>
		<g>
			<path class="st0" d="M47.8,753.1c-0.4-1.4-0.9-2.8-1.2-4.2"/>
			<path class="st0" d="M47.9,772.3c-0.6-2.6-0.7-4.9,0.3-7.4"/>
			<path class="st0" d="M51,752.4c-7.6-6.5-12.3-13-4.7-22"/>
			<path class="st0" d="M48.5,740.4c-1.3-3.8-2-7.7-2.4-11.6"/>
			<path class="st0" d="M48.9,721.3c-4.3-1.6-2.3-3.6-4.7-5.1c-2.4-1.5-7.3-3-4.5-6.3c2.7-3.3,10.8-2.9,14.3-1.7s2.4,4.1,3.3,6.7"/>
			<path class="st0" d="M56.8,712.2c4-3.5,5.3-0.2,5.7,3.9c0.5,4.1,0.6,7.2-4.5,7.9"/>
			<path class="st0" d="M56.7,720.7c2.2,6.5,1.9,7.5-3.7,11.7"/>
			<path class="st0" d="M59.9,747c-2.9-7.3-6.1-12.2-8.7-20.3"/>
			<path class="st0" d="M51.3,747.6c4.4,3.7,11.6,7,10.8,13.6c-0.8,6.6-5.5,8.9-8.9,13.8"/>
			<path class="st0" d="M52.2,768c-2,6.4,4,9,6.7,12.9c2.7,3.9,3.8,12.4-1.5,11.5c-5.3-0.9-4.5-4.9-10-3"/>
			<path class="st0" d="M51,788.6c-1,5.7-9.3,4.2-10.6,0.9c-4.6-11.9-0.6-14.4,7.3-22.6"/>
			<path class="st0" d="M45.5,785.6c-0.5-4.1-0.3-7.4,2.4-10.8"/>
			<path class="st0" d="M54.1,770.1c1.8-3.1,2.7-5.8,2.5-9.4"/>
			<path class="st0" d="M44.2,742.2"/>
			<path class="st0" d="M48.2,753.9c1.4-1.5,4.4,2.6,4.6,4.4c0.3,1.8-0.8,5-2.3,6.1c-1.5,1.2-2.4,2.9-2.1-0.6
				C48.6,761.9,46.8,755.4,48.2,753.9z"/>
			<path class="st0" d="M50,763c1.1-0.8,1.6-1.5,1.7-2.8"/>
			<path class="st0" d="M50.8,760.9c-0.1-1.2-0.1-2.2-0.4-3.4"/>
			<path class="st0" d="M54.6,763.7c-1.2-1.3-0.5-2.9-0.3-4.5c0.2-1.7-3-5.3-0.9-6.6c2-1.3,4.9,1.6,5,4.1c0.1,2.4-0.5,5.5-1.5,7.8"
				/>
			<path class="st0" d="M55.4,760.4c-0.2-1.9-0.5-3.7-1-5.6"/>
			<path class="st0" d="M56.5,757.4c0.1,1.4-0.4,2.6-0.6,4"/>
			<path class="st0" d="M54.3,765.5c0.7,0.7,1.2,0.9,2.1,0.5"/>
			<path class="st0" d="M51.4,770c-1.5-0.6-2.8,0.7-2.5,2.5c0.3,1.8,0.4,2.7,1.7,4.8c1.2,2.1,4,3.8,4.4-0.6"/>
			<path class="st0" d="M51.9,773.1c0.4,1.3,1,2.7,0.6,4.1"/>
			<path class="st0" d="M50.2,776.7c0-1.7,0.2-3.3,0.1-5"/>
			<path class="st0" d="M45,781.4c-0.7,1.7-2.7,3-3-0.1c-0.3-3,1.1-6.8,2.8-9.4c1.7-2.6,2.2,3.1,1.9,4.1"/>
			<path class="st0" d="M43.2,779.9c0.9-1.5,1.6-2.7,1.8-4.4"/>
			<path class="st0" d="M42.7,776.6c0.6-1.3,1.1-3,2.7-3.4"/>
			<path class="st0" d="M57.3,752.6c-0.8-2.5-4.3-4.8-3.7-7.6c0.6-2.8,5.3,0.6,6.3,2.3c1.3,2.1,2.5,5.2-0.1,7.1"/>
			<path class="st0" d="M58.3,751.5c0.4-1.8,0.3-3.2-0.8-4.7"/>
			<path class="st0" d="M57,749.4c-0.6-1.3-1.8-4.8-3.7-3.5"/>
			<path class="st0" d="M56.7,771c0.8-2.4,1.7-4.5,3-6.7"/>
			<path class="st0" d="M48.2,750.2c4,0,2.4-1.5,0.9-4c-1.5-2.5-2.7-5.3-3.3-8.2c-0.6-2.9-2.2-1.2-3.4,0.2"/>
			<path class="st0" d="M48.3,748.1c-1.8-1-2.5-1.1-3.2-3.2"/>
			<path class="st0" d="M47.9,746.3c-1.3-1.2-2.7-2.2-3.1-3.9c-0.4-1.7,0.9-0.8,1.4,0"/>
			<path class="st0" d="M46.2,740.1c-0.4-0.7-0.8-1.1-1.6-1.4"/>
			<path class="st0" d="M48.9,742.1c2.1,0.5,2.5-0.8,1.7-2.5c-0.7-1.8-0.9-7.4-3.4-4.5"/>
			<path class="st0" d="M48.1,738.9c0.4,0.7,0.9,2.1,1.9,1.9"/>
			<path class="st0" d="M49.1,739c-0.5-1.7-0.5-3.6-1.5-5.1"/>
			<path class="st0" d="M56,740.4c-2.7,0.2-4.1-1.2-4.7-3.5c-0.7-2.4-1.3-5.2,1.3-6.3"/>
			<path class="st0" d="M52.9,737.2c-1-1.1-1.2-2.2-1.1-3.7"/>
			<path class="st0" d="M52.1,739c0.7,0.3,1.8,0.3,1.7-0.6"/>
			<path class="st0" d="M46.8,720.3c1.8,2.7,4,4.8,2.1,8.5c-1.9,3.7-2.5,0.7-3-2.4c-0.2-1.1-3.3-6.2-0.4-7.4"/>
			<path class="st0" d="M47.2,725.2c1.3,1.1,0.9-0.5,0.6-1.3"/>
			<path class="st0" d="M47.9,727.4c-0.9-1.9-2.4-3-2.9-5.2"/>
			<path class="st0" d="M46.4,722.6c0-1.1,0-1.9-0.6-2.9"/>
			<path class="st0" d="M52.1,723.6c0.8,1.8,2.3,3.8,3.2,0.9c0.9-2.8-0.5-7.2-1.6-9.5c-1.1-2.3-3.6-3.2-5-0.6
				C47.5,716.9,51,721.2,52.1,723.6z"/>
			<path class="st0" d="M52.5,721.4c-0.9-2.1-2.6-3.6-2.6-6"/>
			<path class="st0" d="M54.6,724.3c-1.5-1.1-0.8-3.1-0.8-4.7"/>
			<path class="st0" d="M53,719.4c-0.2-2.7-0.3-4.3-3-5.5"/>
			<path class="st0" d="M58.1,720.6c0.5-1.9,1-3.8,0.4-5.7"/>
			<path class="st0" d="M54.1,713.2c-2.1-3.7-3.6-3.2-7.5-2.6"/>
			<path class="st0" d="M48.7,711.5c-2.8,0.2-5.7,0.3-8.5,0.4"/>
			<path class="st0" d="M52.9,731.7c0.8-1.7,1.8-3,3.2-4.2"/>
			<path class="st0" d="M55.5,783c-3.9,2-2.2-1.6-6.3-1.4"/>
			<path class="st0" d="M46,791c-3.8-1.6-5-4.4-6-8.3"/>
			<path class="st0" d="M47.3,787.2c-0.5-3-0.8-5.9-0.5-8.9"/>
			<path class="st0" d="M48.2,784.5c-0.5-2.5-0.7-4.6,0.2-7"/>
			<path class="st0" d="M56.6,790.8c4.4,0,2.6-3.5,1.6-6.3"/>
			<path class="st0" d="M53,747.8c-0.8-1.4-1.5-2.8-1.4-4.4"/>
			<path class="st0" d="M56.3,743.2c-2-1.5-4.5-2.6-5.7-5"/>
			<path class="st0" d="M49.5,768.3c2.6-3,3.9-6.2,4.1-10.1"/>
			<path class="st0" d="M58.4,758.8c0.1,0.9,0.6,5.8,1.7,1.7"/>
			<path class="st0" d="M60.6,758.6c-0.2-0.8-0.5-1.5-0.8-2.2"/>
		</g>
		<g>
			<path class="st0" d="M55.5,1068.2c2,4.2,5.7,9.4,10.3,14.3"/>
			<path class="st0" d="M42.7,1046c1.1,4.9,10.7,9.4,10.6,13.7c0,0.6-0.1,1.6,0.1,2.3"/>
			<path class="st0" d="M37,1040.9c-0.1-2.7,0.4-4.7,1.7-7.3"/>
			<path class="st0" d="M41.6,1057.6c-3.5,6-4,8.1-4.1,13.9c-0.1,5.9-6.9,12.5-5.9,16.3c1,3.9,10,0.6,17.2,0.5
				c6.9-0.1,17.6,5.2,19.4,1c3.8-8.7-19-12.2-28.3-35.7"/>
			<path class="st0" d="M49.6,1054c10.6-23.2-18.9-38.8-16.8-44.1s17,0.6,22.1,6c2.8,3-4.2,11.1-5.2,17.9"/>
			<path class="st0" d="M40.3,1040.2c-2.5-6.2-2.7-20.6-5.6-26"/>
			<path class="st0" d="M38.2,1079.9c0.1,4.1,6.9,1.9,7.1-0.8c0.2-2.7,0.2-6.5-2.6-7.1C39.9,1071.5,38.1,1075.4,38.2,1079.9z"/>
			<path class="st0" d="M55.6,1079.9c-0.7,3.4-7.1,0.4-7-2.3s2.1-7.3,4-5.6C54.4,1073.7,56.3,1076.5,55.6,1079.9z"/>
			<path class="st0" d="M64,1081.1c-2.6,2-5.4,0.9-5.8-1c-0.5-1.8-0.2-2.8-0.1-3.5"/>
			<path class="st0" d="M43.1,1068.7c-1,0.6-4.3,0.1-3.9-2.7c0.3-2.8,1.2-4.4,2.6-4.3c1.5,0.1,3.4,1.3,3.4,3.4
				S43.6,1068.4,43.1,1068.7z"/>
			<path class="st0" d="M50.2,1069.7c-1,0.3-2.8-0.3-3-3.4"/>
			<path class="st0" d="M41,1080.4c1.7-0.7,4-1,2.6-5.4"/>
			<path class="st0" d="M40.3,1077.5c0.2-1.3,1.6-1.2,1.2-2.5"/>
			<path class="st0" d="M53.9,1079.9c-2,0.1-4.1-0.6-3.9-3.2"/>
			<path class="st0" d="M53.5,1062.1c-2.8-0.7-2.1,4.4-1.6,5.8c0.5,1.4,3.2,2.2,3.6,0C55.7,1067.5,54.3,1062.3,53.5,1062.1z"/>
			<path class="st0" d="M49.7,1059.8c-0.1,2.8-2.6,3.7-3.9,1.9c-1.3-1.8-3.1-5.5-1.8-6.3C45.3,1054.7,49.7,1057.6,49.7,1059.8z"/>
			<path class="st0" d="M48,1061c-0.9,0.2-1.3-0.1-1.8-1.6"/>
			<path class="st0" d="M48,1059.4c0.1-0.7-0.1-2.4-1.8-3.6"/>
			<path class="st0" d="M45.6,1057.9c-0.3-0.7,0.1-2.6-1.6-2.4"/>
			<path class="st0" d="M54.2,1067.6c-0.8,0.5-1.1-0.4-1.2-2"/>
			<path class="st0" d="M49.7,1049.7c-2.1,0.9-2.7-0.5-3.1-3.6c-0.4-3.1-1.6-8,0.6-7.9s5,3.2,4.7,6.4
				C51.6,1047.8,50.6,1049.3,49.7,1049.7z"/>
			<path class="st0" d="M48.8,1047.9c1.8-0.1,2.6-3.5,2.1-5"/>
			<path class="st0" d="M49.1,1044.2c0.1-2.2,1-3.2-0.9-4"/>
			<path class="st0" d="M46.7,1046.8c0-2.1-1-5,0.2-5.3"/>
			<path class="st0" d="M37.5,1026c2.3-3.2,4.5,1.9,6,4.3c1.5,2.3,1.6,4.4-0.3,5.5c-1.3,0.7-3.4,0.8-4.2-0.6"/>
			<path class="st0" d="M41.9,1033.4c0.8-1.5,1.4-1.1,0-3"/>
			<path class="st0" d="M41.1,1035c-1.1-0.6-1.9-3.2-1.9-6.6"/>
			<path class="st0" d="M37,1040.9c2.1-1.5,3.2,4.9,4.1,6.4s0.8,6.2-1.2,6.2C38.5,1053.6,35.3,1042.2,37,1040.9z"/>
			<path class="st0" d="M40.1,1050.3c0.3-1.8,0.2-1.8-1-3.8"/>
			<path class="st0" d="M48,1055.3c-2.9-1.6-1-3.2-5.1-5.2"/>
			<path class="st0" d="M44.8,1044.4c-0.5-2-1.4-5.6,0.6-7"/>
			<path class="st0" d="M45.4,1031.3c-0.8-2.7-3.3-7.8-6.8-7.6"/>
			<path class="st0" d="M42.2,1067.8c1.3-1.2,2.2-1.4,1.6-2.9"/>
			<path class="st0" d="M41,1065.6c-0.1-1.5,1.5-0.1,1.2-2"/>
			<path class="st0" d="M42.5,1070.5c2.2-0.4,2.7,0.6,2.9-1.4"/>
			<path class="st0" d="M49.4,1082.2c-1.3-1.5-3.3-4.5-1.2-9.1"/>
			<path class="st0" d="M58.4,1075.6c-3.1-4.6-7.4-4.2-8-9.3"/>
			<path class="st0" d="M48.9,1023.4c1-1.6,3.2-0.1,3-2.6c-0.2-2.5-0.2-3.8-1.9-4c-1.8-0.2-4.6,0.5-4.6,2.5
				C45.5,1021.4,48.4,1024.2,48.9,1023.4z"/>
			<path class="st0" d="M48.2,1022.3c0.6-0.6,2.3-0.5,2-2.1"/>
			<path class="st0" d="M42.3,1017.8c0.7-1.5,1.3-3.6-0.4-4.3c-1.7-0.7-4.6-1-4.9,0.3c-0.3,1.3,0,3.9,1.6,4.7
				C40.2,1019.3,41.8,1018.8,42.3,1017.8z"/>
			<path class="st0" d="M41.1,1017.6c0.7-1.1,0.5-2.2-0.8-2.7"/>
			<path class="st0" d="M47.2,1029.1c0.3-0.9,0-3.4-0.5-4.1c-0.5-0.7-2.3-1.3-3.5-1.3"/>
			<path class="st0" d="M39.1,1087c1.5-1.2,9.6-1.4,15.8,0"/>
		</g>
		<g>
			<path class="st0" d="M56.1,1185.3c-1.1,1.3-5.1,0.3-5.6-2.3c-0.5-2.6-1.7-3.3,0-4.1c1.7-0.8,4.8,1.6,5.1,3.4
				C56,1184.1,57,1184.3,56.1,1185.3z"/>
			<path class="st0" d="M39.5,1186.3c-1.9-0.3-2.4-1.7-2-4s0.3-3.5,2.9-3.6s5.8,1.6,5.4,3.8C45.5,1184.7,43.7,1186.9,39.5,1186.3z"
				/>
			<path class="st0" d="M30.2,1185.3c-2.8-0.8-3.5-0.1-2-3s2.6-4.9,4.3-4.2c1.7,0.7,2.5,2,1.7,3.8
				C33.4,1183.8,31.5,1185.7,30.2,1185.3z"/>
			<path class="st0" d="M48.2,1166.2c-1.9-0.7-3.7,2.6-3.4,4.7c0.4,2.1,2.3,4.7,4.8,2.3c0.9-0.8,2.8-1.3,2.4-3.7"/>
			<path class="st0" d="M38.2,1172.8c-2-0.4-3.4-1.4-2.2-3.5c1.2-2.2,5-4.8,5.7-4.1s1.4,1.6,1,3.8
				C42.3,1171.2,40.7,1173.4,38.2,1172.8z"/>
			<path class="st0" d="M49,1160.3c-1.2,1.5-2.8-5.2-2.2-7.3c0.6-2.1,0.9-2.9,2.2-2.9c1.3,0,2.9,2.2,2.6,4.8
				C51.2,1157.5,49.6,1159.5,49,1160.3z"/>
			<path class="st0" d="M39.2,1144.8c3-4.4,4.9,3.7,4.9,6.5s-1.6,3.2-3.3,2.3C39.3,1152.8,37.7,1147,39.2,1144.8z"/>
			<path class="st0" d="M47.5,1132.6c-2.8,0.1-2.1,3.3-1.6,7.3s4.4,8.2,4.8,4.9c0.2-1.3,0.3-3.7-0.1-6.1
				C50.1,1136.1,48,1132.6,47.5,1132.6z"/>
			<path class="st0" d="M38.5,1139.2c1.9,0.6,2.8-0.2,2.4-4c-0.4-3.8,0.7-7.2-5-8.2"/>
			<path class="st0" d="M50,1136.7c2.3-0.2,3.6-1.4,3.7-4.1c0.1-2.7,1.2-5.3-1-5.5c-2.3-0.2-8.8,2.1-7.2,3.9"/>
			<path class="st0" d="M61,1119.5c-0.1-2.3-1.5-4.8-3.2-5.3c-1.7-0.5-4.7,0-4.8,2.6c-0.1,2.7,0.9,6.4,3.4,7
				C59,1124.4,61.1,1121.6,61,1119.5z"/>
			<path class="st0" d="M46.6,1114.9c-1-1.1-5.9-2.2-6,0.7c-0.1,2.8,0,5.2,3,5.9C46.6,1122.2,50.2,1118.7,46.6,1114.9z"/>
			<path class="st0" d="M31.5,1119c3.3,0.1,4.3,0.4,4.5-2.2c0.1-2.6-0.8-5-2.1-5.1c-1.3-0.1-6.1-0.9-5.7,1.8"/>
			<path class="st0" d="M42.1,1127.9c0-1.1,0.2-3-1.1-3.7c-1.3-0.7-3.1-1-4.3-0.7"/>
			<path class="st0" d="M39.2,1137.3c0.5-0.3,1-4,0-5.8"/>
			<path class="st0" d="M38.5,1133.5c-0.4-1.3-1.3-2.1-1.4-3.8"/>
			<path class="st0" d="M38.5,1139.2c-1.2-0.3-2.7-11.2-2.6-12.2"/>
			<path class="st0" d="M32.9,1117.7c1.4-1.3,3.6-3.5,0-4.7"/>
			<path class="st0" d="M46,1127c7.1-3.1,3.5-13.1,6.4-15.5"/>
			<path class="st0" d="M40.8,1153.6c0.6,2.1,1.6,4.9,2.7,6.8c7,12.2,32.2,23,31,26c-4.6,10.9-20.2,2.7-26.5,3.5
				c-8.3,1-20.7,5.7-22.2-1.5c-2.2-10.5,11.2-22.6,16.8-29.8"/>
			<path class="st0" d="M38.5,1139.2c0.3,2,0.4,3.6,0.7,5.6"/>
			<path class="st0" d="M30.4,1117.7c2.6,2.9,4.4,5.8,5.6,9.3"/>
			<path class="st0" d="M47,1132.6c-6.7-8.1-22.7-15.4-18-22.4c4.6-6.9,37.9-4.9,37.8,6.2c0,6.2-14.8,23.7-15.3,27.1"/>
			<path class="st0" d="M51.3,1152.5c0.4-4.5,0.5-9.2-0.6-13.1"/>
			<path class="st0" d="M49.3,1167.3c0.5-3.2,1-6.9,1.4-9.7"/>
			<path class="st0" d="M67.6,1183.6c0.9,2.8-2.6,1.8-6.2-0.3c-2.8-1.7-4.7-3.7-2.8-5.1c1.9-1.4,5-0.5,7,0.9
				C67.5,1180.4,67.2,1182.4,67.6,1183.6z"/>
			<path class="st0" d="M40.8,1152.1c-0.5-0.5-1.3-1.8-1.2-4.1"/>
			<path class="st0" d="M42.5,1150.8c-0.6,0.4-0.5-2.6-1.1-3.8c-0.7-1.2-1.1-1.3-1.6-0.5"/>
			<path class="st0" d="M29.9,1184.2c1-0.1,3-1.3,2.8-3.7"/>
			<path class="st0" d="M41.7,1185c-1.8,0.1-2.8-0.5-2.5-4.5"/>
			<path class="st0" d="M43.7,1181.4c-0.4-0.6-1.7-1.3-2.7-1.4"/>
			<path class="st0" d="M54.6,1184.7c0.6-0.8,0-3.2-1.5-4.2"/>
			<path class="st0" d="M52.5,1182.7c-0.2-1.3-0.1-2.1-1.3-2.5"/>
			<path class="st0" d="M66.4,1184.2c0.1-0.8-0.3-4.9-4-5.4"/>
			<path class="st0" d="M50,1171.8c-1.9,0.8-3.7,1-3.7-0.9"/>
			<path class="st0" d="M39.1,1171.6c1.9-1.1,3.3-2.9,2.3-5.5"/>
			<path class="st0" d="M48.1,1183.5c0-2.4-4.9-6-4.7-11.2"/>
			<path class="st0" d="M49.1,1157.5c1.2-1.6,1.9-3.5,0.9-5"/>
			<path class="st0" d="M49.3,1142.9c0.1-3.4,1.3-4.4-1.2-7.7"/>
			<path class="st0" d="M50.9,1134.9c1.2-0.8,2.4-4.3,1.6-5.5"/>
			<path class="st0" d="M49.7,1129c-1.1,0.4-2.7,0.8-3.8,2.4"/>
			<path class="st0" d="M58.6,1121.6c0.5-1.3,0.2-5.7-2.1-5.8"/>
			<path class="st0" d="M54,1118.3c0.1-1,0.2-1.7,0.7-2.2"/>
			<path class="st0" d="M46.2,1119.6c0.3-2.1-0.3-4.7-3.7-5"/>
		</g>
		<g>
			<path class="st0" d="M53.5,1250.7c-1.6,5.7-2,11.2,0.3,14.8"/>
			<path class="st0" d="M42.9,1234.3c0.5,10.4-22,45.4-19.3,54.9c2.7,9.5,20.2,0.1,29.1,0.1c8.9,0,20.7,4.2,23.2-2.1
				c5.7-14.1-25.3-16.2-30.1-30.9s-0.5-27.8-7-33.4c-5.2-4.5-17.3-14.6-13.6-17c3.7-2.3,22.4-0.9,33.4,1.4s12.3,3.6,9.7,11.4
				c-1.4,4.3-8.4,15.2-12.7,25.6"/>
			<path class="st0" d="M71.1,1283.5c0.9-1.3,2.7-4.2-1.1-6.2s-7.1-3.1-7.7-1.4s-0.1,4.9,2.4,6.6C67,1284.3,69.9,1285.2,71.1,1283.5
				z"/>
			<path class="st0" d="M60,1285.5c0.9-1.7,0.7-4.8-0.7-6.7c-1.4-1.9-2.7-4.8-4.1-4.8c-2,0-5,3-2.6,6.1
				C54.7,1282.8,58.9,1287.7,60,1285.5z"/>
			<path class="st0" d="M50,1285.8c0.8-0.7,0.7-4.4-0.6-7.1c-1.4-2.7-1-5.2-2.7-4.2s-4.8,4.5-3.4,7.3
				C44.7,1284.5,48.9,1286.8,50,1285.8z"/>
			<path class="st0" d="M40.8,1282.5c-0.3-1.5,0.7-6-1.5-5.7c-2.2,0.2-5.1,3.8-4.1,6.5s2.8,5.8,4.1,5.2S41.2,1284.9,40.8,1282.5z"/>
			<path class="st0" d="M28.6,1287.3c-1.4-0.2-3.7-2.7-2.4-5.9c1.2-3.2,1.5-5.3,4.1-4.8s3.4,4.2,3.3,6.4
				C33.5,1285.1,29.3,1287.4,28.6,1287.3z"/>
			<path class="st0" d="M39.6,1269.6c-1.1,0.1-3-2.7-2.6-5.5c0.4-2.8-0.4-4.3,1.3-4.3c1.7,0.1,4.5,0.1,4.1,3.8
				S40.8,1269.5,39.6,1269.6z"/>
			<path class="st0" d="M46.8,1258.3c-1.6-0.9-2.4,3.1-2.1,5.5c0.3,2.5,1.4,6.8,4.1,4.4c1.2-1.1,3.2-1.8,2.3-4.8"/>
			<path class="st0" d="M29.6,1268.3c1.2,1.1,4.4-1.2,4.6-3.5s1.7-7.3,0-6.5"/>
			<path class="st0" d="M42.3,1253c-1.8,2.9-4.9-1.9-4-3.9c0.9-2.1,2.5-5.3,3.3-4.8c0.8,0.5,1.6,2.8,2.2,4.8
				C44.5,1251,43.1,1251.8,42.3,1253z"/>
			<path class="st0" d="M55.7,1244.5c0-2.7-5-4.6-6.8-1.6c-1.8,3,0.3,7.7,2.5,8.6c0.8,0.3,1.3-0.2,2.1-0.8
				C54,1250.2,55.7,1245.8,55.7,1244.5z"/>
			<path class="st0" d="M50.4,1262.8c-0.7-1.6-2.1-4,1.8-5"/>
			<path class="st0" d="M43.9,1247.4c0.9-0.5,1.5-2.7,1.7-4.5s-0.6-6.1-2.5-5.4"/>
			<path class="st0" d="M54.9,1237.4c-1.4,0.1-4.6-1.9-3.8-4.5s3.1-6.1,5.5-6s2.8,3.5,2.1,5.6C58,1234.6,56.5,1237.3,54.9,1237.4z"
				/>
			<path class="st0" d="M60.7,1223c-3.1,0.4-6.6-3.1-5.4-6.2c1.2-3.2,2.4-4.7,4.6-4s3.9,2.4,3.4,5.3
				C62.7,1221,62.7,1222.7,60.7,1223z"/>
			<path class="st0" d="M49.2,1219.9c-2.4-0.1-5.3-1.5-5.1-4.5c0.2-3,2.7-4.5,5.1-4.6c2.4-0.1,3.4,1.1,2.9,3.8
				C51.6,1217.4,50.6,1220,49.2,1219.9z"/>
			<path class="st0" d="M39.7,1217.1c-1.8-0.2-3.4-1.7-3.1-3.9c0.3-2.2-1.5-5,1.6-4.8c3.1,0.2,4.3,1,3.8,3.5
				C41.6,1214.3,40.6,1217.2,39.7,1217.1z"/>
			<path class="st0" d="M32.6,1212.7c0.3-2.5-0.1-3.9-2.2-3.9c-2.1,0.1-4,1.5-2.7,3.5C28.9,1214.3,32.2,1216.8,32.6,1212.7z"/>
			<path class="st0" d="M44.9,1233.3c1.3-0.2,2.8-1.5,3.2-3.3c0.4-1.7,0.8-4.6-0.9-5c-1.7-0.4-5.6-0.2-5.3,2.3
				C42.3,1229.7,43.8,1233.5,44.9,1233.3z"/>
			<path class="st0" d="M57.8,1283.3c-1.6-0.8-3.8-2.9-3.9-5"/>
			<path class="st0" d="M57.3,1278.3c-0.2-1-0.6-2.2-1.4-2.2"/>
			<path class="st0" d="M49.1,1284c0.4-3.3-2.1-3.9-2.2-7.1"/>
			<path class="st0" d="M45.8,1281.5c-0.9-1.1-1-2.1-0.6-3.2"/>
			<path class="st0" d="M38.2,1286.4c0.8-1.4,1.6-5,0.7-7.4"/>
			<path class="st0" d="M31.5,1284c-1.5,1.4-4.2,1.9-4.2-0.3s0.3-4.9,1.2-5.4"/>
			<path class="st0" d="M69.6,1282.2c0.9-1.4,0.3-3-1-3.6c-1.3-0.6-3.4-2.5-4.4-2.1"/>
			<path class="st0" d="M49.6,1266.4c-1.4,0.8-2.9-0.3-3.1-1.7c-0.2-1.4-0.6-1.8,0-3.9"/>
			<path class="st0" d="M40.4,1266.2c0.7-2.1,1.6-3.1,0.7-4c-0.8-0.9-1.2-1-2.1-1"/>
			<path class="st0" d="M51.7,1250c-0.8-0.7-2.5-2.1-2.1-4.4c0.4-2.2,2-2.8,3-2.8"/>
			<path class="st0" d="M41.1,1251.9c-1.1-0.5-2.1-0.9-1.5-2.9c0.6-1.9,0.3-2.3,1.5-2.5"/>
			<path class="st0" d="M55,1235.8c1-0.5,2.1-1.7,2.2-3.3s0.3-2.9-1.1-3.1"/>
			<path class="st0" d="M46.4,1230.4c0.5-1.7,0.6-3.1-0.3-3.5c-1-0.4-1.5-0.3-2.3,0"/>
			<path class="st0" d="M60.7,1221.5c1.1-2,1.8-5.4,0.6-6.1c-1.1-0.7-3.4-0.9-4.1,1.1"/>
			<path class="st0" d="M48.2,1218.2c-1.6-0.2-3-2.4-2.6-3.3s1.4-1.9,3.3-2.4"/>
			<path class="st0" d="M40.4,1214.3c0.5-2-0.1-4.3-2.1-4.5"/>
			<path class="st0" d="M31,1213.3c0.4-1.7-0.4-3.6-1.7-2.8"/>
		</g>
	</g>
</g>
</svg>
