<?xml version="1.0" encoding="utf-8"?>
<!-- Generator: Adobe Illustrator 24.1.2, SVG Export Plug-In . SVG Version: 6.00 Build 0)  -->
<svg version="1.1" id="レイヤー_1" xmlns="http://www.w3.org/2000/svg" xmlns:xlink="http://www.w3.org/1999/xlink" x="0px"
	 y="0px" viewBox="0 0 470 130" style="enable-background:new 0 0 470 130;" xml:space="preserve">
<style type="text/css">
	.st0{stroke:#000000;stroke-width:3;stroke-miterlimit:10;}
</style>
<g>
	<path class="st0" d="M9.9,97.7l-2.7-1.5c-0.5-0.5-0.7-1.1-0.7-1.9s0-1.4,0-2.1c1.8-3.8,4-7.4,6.4-10.9c2.5-3.5,5.1-6.9,7.9-10.4
		c0.5-0.5,1.1-0.9,1.7-1.1c0.7-0.2,1.4-0.3,2.2-0.1c0.5,0.2,1,0.5,1.5,1s0.9,1,1.1,1.5v2.2L16.8,88.3c-0.5,1.5-1.2,2.9-2.1,4.2
		c-0.9,1.3-1.7,2.7-2.3,4.2L9.9,97.7z M50.8,115.9c-2.1-0.5-4.1-1.4-5.8-2.6s-3.5-2.4-5.3-3.6c-0.8-0.8-1.5-1.7-2.1-2.6
		s-0.7-2-0.4-3.3c0.2-0.5,0.5-1,1-1.5s1-0.8,1.5-1h2c1.3,1.5,2.8,2.8,4.3,4c1.6,1.2,3.3,2.2,5.1,3.2l3.2,0.2
		c1.6-0.7,3.3-1.4,4.8-2.1c1.6-0.7,2.9-1.9,4.1-3.3c1-1.5,1.8-3.1,2.4-4.8c0.6-1.7,0.8-3.5,0.6-5.5c-1-6.8-3.5-12.8-7.7-18.2
		c-4.1-5.4-8.3-10.7-12.6-16c0.2-1,0.6-1.9,1.2-2.6c0.7-0.7,1.3-1.5,2-2.4c3-2.3,5.8-4.8,8.4-7.4c2.6-2.6,4.9-5.5,6.9-8.7V37
		c-3.5-2.9-7.1-5.4-10.9-7.7c-3.8-2.2-7.7-4.1-11.6-5.6c-0.5-0.5-0.7-1-0.7-1.6s0-1.2,0-1.9c0.2-0.5,0.5-1,1-1.5s1-0.8,1.5-1h2
		c4.8,1.5,9.3,3.6,13.6,6.3s8.3,5.9,12.1,9.5c0.5,0.7,0.8,1.4,0.9,2.2s0.1,1.6,0.1,2.4c-1.3,2.1-2.7,4.3-4.2,6.6
		c-1.5,2.2-3.1,4.3-4.9,6.3l-8.4,7.4v0.7c5.6,5.3,10.2,11.3,13.9,17.9c3.6,6.7,5.2,13.9,4.7,21.8c-0.8,2.5-1.9,4.8-3.3,7
		s-3.3,4.2-5.6,6.1c-2,1.2-4.1,2.1-6.3,2.8S53.5,116,50.8,115.9z M98.2,40c-1.8-0.2-3.5-0.7-5.2-1.7s-3.2-2.2-4.6-3.6
		c-1.5-1.6-2.7-3.4-3.6-5.3s-1.4-4-1.4-6.3c0.2-2,0.8-3.8,2-5.4s2.6-3.2,4.2-4.7c1.4-1.3,2.9-2.2,4.5-2.7s3.3-0.7,5.1-0.5
		c2,0.2,3.8,0.8,5.4,2s3.2,2.6,4.7,4.2c1.5,1.7,2.5,3.5,3,5.6s0.7,4.2,0.5,6.6c-0.2,1.2-0.4,2.4-0.7,3.6c-0.3,1.2-1,2.3-2,3.1
		l-5.4,4.6L98.2,40z M104.6,100c-0.8-0.3-1.5-0.9-2-1.7c-0.5-0.8-1-1.6-1.5-2.4c-1.5-3.5-3.1-6.8-4.9-10s-4.1-6.3-6.8-9.3
		c-0.7-0.3-1.2-0.7-1.7-1.2s-0.9-1.1-1.2-1.7v-2.2c0.2-0.5,0.5-1,1-1.5s1-0.8,1.5-1h2.1c3,2,5.5,4.5,7.7,7.5c2.1,3.1,4,6.1,5.7,9
		c0.8,2,1.8,3.9,2.8,5.7c1.1,1.8,1.8,3.8,2.1,5.9c-0.3,0.7-0.7,1.2-1.1,1.7s-0.9,0.8-1.6,1.2H104.6z M100.7,32.3
		c0.5-0.7,1.1-1.1,1.9-1.4c0.7-0.2,1.4-0.6,2.1-1.1c0.7-0.8,1-1.8,1-2.8c0-1.1,0-2.1,0-3.1c-0.3-1-0.9-1.9-1.6-2.8s-1.5-1.8-2.3-2.6
		c-0.7-0.5-1.4-0.9-2.2-1.2c-0.8-0.3-1.7-0.4-2.7-0.2c-1,0.3-1.8,0.9-2.5,1.7c-0.7,0.8-1.4,1.6-2.2,2.2c-0.2,0.7-0.5,1.3-0.9,1.9
		s-0.5,1.3-0.4,2.1l3.1,5c0.8,0.8,1.8,1.5,2.8,2c1.1,0.5,2.3,0.7,3.6,0.5L100.7,32.3z"/>
	<path class="st0" d="M199.5,118.6c-0.5-0.2-1-0.5-1.5-1s-0.8-1-1-1.5v-2.2c2-2.3,4.2-4.6,6.6-6.8c2.4-2.2,4.3-4.7,5.8-7.3
		c1-2.1,1.7-4.2,2.2-6.3c0.5-2.1,0.6-4.5,0.2-6.9c-0.3-1.6-1.1-3.1-2.2-4.3c-1.2-1.2-2.3-2.4-3.5-3.6c-1.3-1-2.8-1.8-4.3-2.3
		c-1.6-0.6-3.2-1.1-4.8-1.6h-10.6c-4.3,0.8-8.4,2.1-12.4,3.8c-4,1.7-7.7,4-11.1,6.8l-1.5,2.2c-0.5,0.5-1,0.7-1.6,0.7s-1.2,0-1.9,0
		c-0.5-0.2-1-0.5-1.5-1s-0.8-1-1-1.5v-2.7c1.3-6.9,2.8-13.9,4.3-20.8c1.6-6.9,2.9-13.9,4.1-21h-12.2l-7.9-0.2l-2.5,0.2l-1.7-1
		c-0.3-0.5-0.6-1.1-0.9-1.7c-0.2-0.7-0.3-1.3-0.1-2c0.2-0.5,0.5-1,1-1.5s1-0.9,1.5-1.1l10.4-0.2l0.2,0.2h13.7
		c0.7-3.1,1.3-6.3,1.9-9.4c0.6-3.1,1.6-6.1,3.1-8.9c0.5-0.3,1-0.5,1.5-0.6s1.1-0.1,1.7-0.1c0.5,0.2,1,0.5,1.5,1s0.8,1,1,1.5v2.2
		c-0.7,2.3-1.3,4.6-1.9,6.9c-0.6,2.3-0.9,4.7-1.1,7.2h6.7l0.2-0.2h15.3l7.9-0.5c0.5,0.2,1,0.5,1.5,1s0.8,1,1,1.6v2
		c-0.2,0.5-0.5,1-1,1.5s-1,0.8-1.5,1l-7.9,0.7H180l-8.7,0.2c-1,5.6-2.1,11.3-3.3,16.9c-1.2,5.7-2.4,11.3-3.3,16.9h0.5
		c3.3-2,6.7-3.6,10.3-4.8c3.5-1.2,7.2-2.1,11-2.6h10.9c3.1,0.5,6.1,1.4,8.8,2.6s5.2,3.2,7.5,5.8c2.7,2.1,4.4,4.7,5.1,7.7
		c0.7,3,0.8,6.2,0.5,9.6c-0.5,3.1-1.5,6.2-2.9,9.1s-3.4,5.6-5.9,8.1c-1.7,1.2-3.1,2.6-4.3,4.3c-1.2,1.7-2.8,3-4.6,3.8h-2.1V118.6z"
		/>
	<path class="st0" d="M255.6,97.7l-2.7-1.5c-0.5-0.5-0.7-1.1-0.7-1.9s0-1.4,0-2.1c1.8-3.8,4-7.4,6.4-10.9c2.5-3.5,5.1-6.9,7.9-10.4
		c0.5-0.5,1.1-0.9,1.7-1.1c0.7-0.2,1.4-0.3,2.2-0.1c0.5,0.2,1,0.5,1.5,1s0.9,1,1.1,1.5v2.2l-10.5,13.9c-0.5,1.5-1.2,2.9-2.1,4.2
		c-0.9,1.3-1.7,2.7-2.3,4.2L255.6,97.7z M296.5,115.9c-2.1-0.5-4.1-1.4-5.8-2.6s-3.5-2.4-5.3-3.6c-0.8-0.8-1.5-1.7-2.1-2.6
		s-0.7-2-0.4-3.3c0.2-0.5,0.5-1,1-1.5s1-0.8,1.5-1h2c1.3,1.5,2.8,2.8,4.3,4c1.6,1.2,3.3,2.2,5.1,3.2l3.2,0.2
		c1.6-0.7,3.3-1.4,4.8-2.1c1.6-0.7,2.9-1.9,4.1-3.3c1-1.5,1.8-3.1,2.4-4.8c0.6-1.7,0.8-3.5,0.6-5.5c-1-6.8-3.5-12.8-7.7-18.2
		c-4.1-5.4-8.3-10.7-12.6-16c0.2-1,0.6-1.9,1.2-2.6c0.7-0.7,1.3-1.5,2-2.4c3-2.3,5.8-4.8,8.4-7.4c2.6-2.6,4.9-5.5,6.9-8.7V37
		c-3.5-2.9-7.1-5.4-10.9-7.7c-3.8-2.2-7.7-4.1-11.6-5.6c-0.5-0.5-0.7-1-0.7-1.6s0-1.2,0-1.9c0.2-0.5,0.5-1,1-1.5s1-0.8,1.5-1h2
		c4.8,1.5,9.3,3.6,13.6,6.3s8.3,5.9,12.1,9.5c0.5,0.7,0.8,1.4,0.9,2.2s0.1,1.6,0.1,2.4c-1.3,2.1-2.7,4.3-4.2,6.6
		c-1.5,2.2-3.1,4.3-4.9,6.3l-8.4,7.4v0.7c5.6,5.3,10.2,11.3,13.9,17.9c3.5,7,5,14.2,4.5,22c-0.8,2.5-1.9,4.8-3.3,7s-3.3,4.2-5.6,6.1
		c-2,1.2-4.1,2.1-6.3,2.8S299.2,116,296.5,115.9z M343.9,40c-1.8-0.2-3.5-0.7-5.2-1.7s-3.2-2.2-4.6-3.6c-1.5-1.6-2.7-3.4-3.6-5.3
		s-1.4-4-1.4-6.3c0.2-2,0.8-3.8,2-5.4s2.6-3.2,4.2-4.7c1.4-1.3,2.9-2.2,4.5-2.7s3.3-0.7,5.1-0.5c2,0.2,3.8,0.8,5.4,2
		s3.2,2.6,4.7,4.2c1.5,1.7,2.5,3.5,3,5.6s0.7,4.2,0.5,6.6c-0.2,1.2-0.4,2.4-0.7,3.6c-0.3,1.2-1,2.3-2,3.1l-5.4,4.6L343.9,40z
		 M350.3,100c-0.8-0.3-1.5-0.9-2-1.7c-0.5-0.8-1-1.6-1.5-2.4c-1.5-3.5-3.1-6.8-4.9-10s-4.1-6.3-6.8-9.3c-0.7-0.3-1.2-0.7-1.7-1.2
		s-0.9-1.1-1.2-1.7v-2.2c0.2-0.5,0.5-1,1-1.5s1-0.8,1.5-1h2.1c3,2,5.5,4.5,7.7,7.5c2.1,3.1,4,6.1,5.7,9c0.8,2,1.8,3.9,2.8,5.7
		c1.1,1.8,1.8,3.8,2.1,5.9c-0.3,0.7-0.7,1.2-1.1,1.7s-0.9,0.8-1.6,1.2H350.3z M346.4,32.3c0.5-0.7,1.1-1.1,1.9-1.4
		c0.7-0.2,1.4-0.6,2.1-1.1c0.7-0.8,1-1.8,1-2.8c0-1.1,0-2.1,0-3.1c-0.3-1-0.9-1.9-1.6-2.8s-1.5-1.8-2.3-2.6
		c-0.7-0.5-1.4-0.9-2.2-1.2c-0.8-0.3-1.7-0.4-2.7-0.2c-1,0.3-1.8,0.9-2.5,1.7c-0.7,0.8-1.4,1.6-2.2,2.2c-0.2,0.7-0.5,1.3-0.9,1.9
		s-0.5,1.3-0.4,2.1l3.2,5.2c0.8,0.8,1.8,1.5,2.8,2c1.1,0.5,2.3,0.7,3.6,0.5L346.4,32.3z"/>
	<path class="st0" d="M442.7,118.6c-0.5-0.2-1-0.5-1.5-1s-0.8-1-1-1.5v-2.2c2-2.3,4.2-4.6,6.6-6.8c2.4-2.2,4.3-4.7,5.8-7.3
		c1-2.1,1.7-4.2,2.2-6.3c0.5-2.1,0.6-4.5,0.2-6.9c-0.3-1.6-1.1-3.1-2.2-4.3c-1.2-1.2-2.3-2.4-3.5-3.6c-1.3-1-2.8-1.8-4.3-2.3
		c-1.6-0.6-3.2-1.1-4.8-1.6h-10.6c-4.3,0.8-8.4,2.1-12.4,3.8c-4,1.7-7.7,4-11.1,6.8l-1.5,2.2c-0.5,0.5-1,0.7-1.6,0.7s-1.2,0-1.9,0
		c-0.5-0.2-1-0.5-1.5-1s-0.8-1-1-1.5v-2.7c1.3-6.9,2.8-13.9,4.3-20.8c1.6-6.9,2.9-13.9,4.1-21h-12.2l-7.9-0.2l-2.5,0.2l-1.7-1
		c-0.3-0.5-0.6-1.1-0.9-1.7c-0.2-0.7-0.3-1.3-0.1-2c0.2-0.5,0.5-1,1-1.5s1-0.9,1.5-1.1l10.4-0.2l0.2,0.2h13.7
		c0.7-3.1,1.3-6.3,1.9-9.4s1.6-6.1,3.1-8.9c0.5-0.3,1-0.5,1.5-0.6s1.1-0.1,1.7-0.1c0.5,0.2,1,0.5,1.5,1s0.8,1,1,1.5v2.2
		c-0.7,2.3-1.3,4.6-1.9,6.9s-0.9,4.7-1.1,7.2h6.7l0.2-0.2h15.3l7.9-0.5c0.5,0.2,1,0.5,1.5,1s0.8,1,1,1.6v2c-0.2,0.5-0.5,1-1,1.5
		s-1,0.8-1.5,1l-7.9,0.7h-15.3l-8.7,0.2c-1,5.6-2.1,11.3-3.3,16.9c-1.2,5.7-2.4,11.3-3.3,16.9h0.5c3.3-2,6.7-3.6,10.3-4.8
		c3.5-1.2,7.2-2.1,11-2.6h10.9c3.1,0.5,6.1,1.4,8.8,2.6s5.2,3.2,7.5,5.8c2.7,2.1,4.4,4.7,5.1,7.7s0.8,6.2,0.5,9.6
		c-0.5,3.1-1.5,6.2-2.9,9.1s-3.4,5.6-5.9,8.1c-1.7,1.2-3.1,2.6-4.3,4.3c-1.2,1.7-2.8,3-4.6,3.8h-2L442.7,118.6L442.7,118.6z"/>
</g>
</svg>
