<?xml version="1.0" encoding="utf-8"?>
<!-- Generator: Adobe Illustrator 24.1.2, SVG Export Plug-In . SVG Version: 6.00 Build 0)  -->
<svg version="1.1" id="レイヤー_1" xmlns="http://www.w3.org/2000/svg" xmlns:xlink="http://www.w3.org/1999/xlink" x="0px"
	 y="0px" viewBox="0 0 850 130" style="enable-background:new 0 0 850 130;" xml:space="preserve">
<g>
	<path d="M61.6,119.8c-4-0.7-7.8-1.5-11.4-2.6c-3.6-1.1-7.1-2.7-10.4-4.8c-2.3-2.5-4.1-5.2-5.3-8.2c-1.2-3-1.9-6.2-2.1-9.8h-0.5
		c-1.4,0.8-2.8,1.4-4.3,1.6c-1.5,0.2-3.1,0.4-4.7,0.4c-2-0.5-3.8-1.2-5.4-2.2c-1.6-1-3.2-2.2-4.7-3.7c-2-2.3-3.2-4.9-3.7-7.9
		c-0.5-3-0.7-6-0.5-9.2c0.5-2.6,1.4-5.1,2.8-7.4c1.4-2.3,3-4.5,4.8-6.7c1.8-1.8,4-2.8,6.4-3.1c2.5-0.2,5-0.3,7.7-0.1
		c1.4,0.3,2.6,0.9,3.7,1.6c1.1,0.7,2.1,1.5,3.1,2.4V46.7l-0.2-7.7h-2.5l-5.6,0.7H16.5L12.3,40l-2.7-1.5c-0.3-0.5-0.5-1-0.6-1.5
		c-0.1-0.5-0.1-1.1-0.1-1.7c0.2-0.6,0.5-1.1,1-1.6c0.5-0.5,1-0.8,1.5-1l5.2-0.2h12.4l7.5-0.7v-5.2l-0.5-10.9
		c0.2-0.7,0.3-1.3,0.5-1.9c0.2-0.6,0.6-1,1.2-1.4c0.5-0.3,1-0.5,1.5-0.6c0.5-0.1,1.1-0.1,1.7-0.1c0.5,0.2,1,0.5,1.5,1s0.8,1,1,1.5
		v2.2l-0.2,2.5l0.5,12.6h8.7c1.8-0.3,3.7-0.5,5.7-0.5c2,0,4,0,5.9,0c0.5,0.2,1,0.5,1.5,1c0.5,0.5,0.8,1,1,1.5v2.1
		c-0.3,0.7-0.7,1.2-1.1,1.6c-0.4,0.4-0.9,0.8-1.6,1.1c-3.3-0.2-6.6-0.1-9.8,0.2c-3.2,0.3-6.5,0.4-9.8,0.2v7.7l0.2,0.2v20.8
		c0,4.9-0.7,9.6-2.2,14.1c-1.5,4.5-2.3,9.2-2.5,14.1c0.2,2.2,0.7,4.3,1.6,6.2c0.9,1.9,2,3.7,3.3,5.3c3.8,1.8,7.7,3.3,11.9,4.3
		c4.1,1.1,8.6,1.4,13.4,1.1c4.3-0.7,8.4-1.6,12.4-2.7c4-1.2,7.7-3,11.1-5.7c1.7-1.8,2.8-3.9,3.1-6.4c0.3-2.4,0.4-5,0.2-7.6l-0.5-3.7
		l1.5-2.7c0.5-0.5,1-0.7,1.6-0.7c0.6,0,1.2,0,1.9,0c0.5,0.2,1,0.5,1.5,1s0.8,1,1,1.5v2l-0.2,1c0.3,1.3,0.5,2.7,0.5,4.1
		c0,1.4,0,2.8,0,4.1c-0.2,3.1-0.9,5.8-2.3,8.2c-1.4,2.4-3.2,4.7-5.3,6.8c-5.2,3-10.7,5.1-16.4,6.4C73.9,119.4,67.9,120,61.6,119.8z
		 M32.2,86.3c1-2.6,1.5-5.4,1.5-8.3c0-2.9,0-5.8,0-8.8c-0.3-1-0.7-1.9-1.1-2.7c-0.4-0.8-1-1.6-1.9-2.2c-1.1-0.7-2.2-1-3.5-1
		s-2.4,0-3.6,0l-3,1.7c-1.8,2.1-3.2,4.5-4.1,6.9c-0.9,2.5-1.2,5.3-0.9,8.4c0.3,1.2,0.7,2.3,1.2,3.5c0.5,1.2,1.2,2.1,2.2,3
		c1,0.7,2,1.2,3.1,1.7c1.1,0.5,2.3,0.7,3.6,0.7L32.2,86.3z M111.2,58.4c-3.8-2.6-7.4-5.6-10.9-8.9c-3.5-3.3-7-6.3-10.8-9.2v-2
		c0.2-0.5,0.5-1,1-1.5c0.5-0.5,1-0.8,1.5-1h2.6c3.8,2.5,7.4,5.3,10.9,8.5c3.5,3.2,6.8,6.3,10.1,9.3v2.2c-0.2,0.5-0.5,1-1,1.5
		s-1,0.8-1.5,1H111.2z"/>
	<path d="M155.8,112.4l-2.7-1.5c-1.7-7.7-2.6-15.7-2.8-23.9c-0.2-8.2-0.5-16.3-0.9-24.4c0.3-5.6,0.6-11.2,0.9-16.7
		c0.2-5.5,1-11,2.4-16.3c0.5-0.3,1-0.5,1.5-0.6c0.5-0.1,1.1-0.1,1.7-0.1c0.5,0.2,1,0.5,1.5,1c0.5,0.5,0.9,1,1.1,1.5v4.8
		c-0.5,4.9-0.8,9.9-1.1,15c-0.2,5-0.5,10-0.8,15c0.2,5.6,0.4,11.2,0.8,16.7c0.4,5.5,0.7,11,1.1,16.6h0.5c1.3-2.2,2.8-4.4,4.5-6.4
		c1.6-2.1,3.3-4.2,4.9-6.3c0.5-0.3,1.1-0.6,1.7-0.9c0.7-0.2,1.3-0.3,2-0.1c0.5,0.2,1,0.5,1.5,1c0.5,0.5,0.8,1,1,1.5v2
		c-3,3.6-5.8,7.4-8.4,11.2c-2.6,3.8-5.4,7.5-8.4,10.9L155.8,112.4z M213,120.3l-2.5-2.2c-0.5-1.7-0.7-3.4-0.7-5.3c0-1.9,0-3.8,0-5.8
		l0.2-9.8c-0.3-7.9-0.7-15.8-1.1-23.7c-0.4-7.9-0.7-15.8-0.9-23.7h-2.5c-5.3,0.3-10.5,0.9-15.7,1.9c-5.2,0.9-10.4,1.5-15.7,1.9
		c-0.5-0.2-1-0.5-1.5-1c-0.5-0.5-0.8-1-1-1.5l-0.2-1.7l1.5-2.7c5.9-0.5,11.8-1.2,17.7-2.2c5.9-1,11.7-1.6,17.7-1.7V31.3
		c-0.5-1.2-0.7-2.4-0.7-3.8c0-1.4,0-2.8,0-4.1c0.3-1.3,0.5-2.7,0.6-4.2c0.1-1.5,0.6-2.7,1.6-3.7c0.5-0.3,1-0.5,1.5-0.6
		c0.5-0.1,1.1-0.1,1.7-0.1c0.5,0.2,1,0.5,1.5,1c0.5,0.5,0.8,1,1,1.5v2.5c-0.3,1.3-0.5,2.8-0.6,4.3c-0.1,1.6-0.1,3.1-0.1,4.6l0.7,2.7
		v10.5h4.5l0.2-0.2h13c1,0.2,2.1,0.2,3.2,0.1c1.2-0.1,2.1,0.4,3,1.4c0.3,0.5,0.5,1,0.6,1.5c0.1,0.5,0.1,1.1,0.1,1.7
		c-0.2,0.5-0.5,1-1,1.5s-1,0.8-1.5,1l-4.2,0.2l-0.2-0.2h-13l-4.7,0.2l-0.2,4.5c0.3,8.9,0.7,17.8,1.2,26.6c0.5,8.8,0.7,17.7,0.7,26.7
		l-0.2,7.7l0.5,3.5c-0.2,0.5-0.5,1-1,1.5c-0.5,0.5-1,0.8-1.5,1H213z M230.5,35.8l-1.7-1.1c-1.2-2.6-2.2-5.4-3.2-8.2
		c-1-2.8-1.7-5.7-2.2-8.7l1.5-2.7c0.5-0.3,1-0.5,1.5-0.6c0.5-0.1,1.1-0.1,1.7-0.1c0.5,0.2,1,0.5,1.5,1s0.8,1,1,1.5
		c0.5,2.8,1.3,5.5,2.4,8.2c1.1,2.6,1.8,5.4,2.1,8.2c-0.2,0.5-0.5,1-1,1.5c-0.5,0.5-1,0.9-1.5,1.1H230.5z M241.8,33.5
		c-0.5-0.2-1-0.5-1.5-1c-0.5-0.5-0.8-1-1-1.5c-0.2-2.6-0.6-5.3-1.2-7.9c-0.7-2.6-1.1-5.3-1.2-7.9l1.5-2.7c0.5-0.3,1-0.5,1.5-0.6
		c0.5-0.1,1.1-0.1,1.7-0.1c0.5,0.2,1,0.5,1.5,1c0.5,0.5,0.8,1,1,1.5c0.3,2.8,0.8,5.6,1.4,8.3c0.6,2.7,0.9,5.6,0.9,8.5
		c-0.2,0.5-0.5,1-1,1.5c-0.5,0.5-1,0.8-1.5,1H241.8z"/>
	<path d="M267.9,117.6c-0.5-0.2-1-0.5-1.5-1s-0.8-1-1-1.5v-2.7c4.8-16.9,11.2-33.2,19.2-49c8-15.7,16.7-31.1,25.9-46
		c0.5-0.5,1.1-0.9,1.7-1.1c0.7-0.2,1.4-0.3,2.2-0.1c0.5,0.2,1,0.5,1.5,1s0.8,1,1,1.5v2c-5.3,8.4-10.3,17-15.1,25.9
		c-4.8,8.9-9.3,17.8-13.6,26.9h0.2c2-2,4.3-3.2,7-3.7c2.7-0.5,5.6-0.7,8.5-0.5c2,0.3,3.8,1,5.4,2.1c1.6,1.1,3.2,2.4,4.7,4.1
		c3.1,4.1,5.2,8.7,6.2,13.6c1,4.9,3.3,9.4,6.9,13.5c2,1.5,4.1,2.6,6.3,3.3c2.2,0.7,4.6,1.1,7,1.1c3-0.7,6-1.7,8.8-3.2
		c2.8-1.5,5.6-2.8,8.4-4c0.5,0.2,1,0.5,1.5,1s0.8,1,1,1.5v2c-0.8,1.7-2,3-3.6,4s-3.1,1.9-4.6,2.7c-2.3,0.7-4.6,1.4-6.9,2.1
		c-2.3,0.7-4.7,1.1-7.4,1.1c-3-0.3-5.8-1-8.5-2c-2.7-1-5.2-2.6-7.5-4.9c-4.1-4.1-6.8-8.9-7.9-14.3c-1.2-5.4-3.5-10.2-6.9-14.5
		c-1.2-1-2.6-1.6-4.2-1.9c-1.7-0.2-3.3-0.3-4.9-0.1c-2.1,0.7-4.1,1.7-5.8,3.2c-1.7,1.5-3.4,3.1-5.1,4.7c-3.5,4.9-6.4,10.2-8.7,15.9
		c-2.3,5.6-4.8,11.2-7.2,16.6c-0.5,0.3-1,0.5-1.5,0.6C269.2,117.6,268.6,117.6,267.9,117.6z"/>
	<path d="M388.9,97.7l-2.7-1.5c-0.5-0.5-0.7-1.1-0.7-1.9s0-1.4,0-2.1c1.8-3.8,4-7.4,6.4-10.9c2.5-3.5,5.1-6.9,7.9-10.4
		c0.5-0.5,1.1-0.9,1.7-1.1c0.7-0.2,1.4-0.3,2.2-0.1c0.5,0.2,1,0.5,1.5,1c0.5,0.5,0.9,1,1.1,1.5v2.2l-10.5,13.9
		c-0.5,1.5-1.2,2.9-2.1,4.2c-0.9,1.3-1.7,2.7-2.3,4.2L388.9,97.7z M429.8,115.9c-2.1-0.5-4.1-1.4-5.8-2.6s-3.5-2.4-5.3-3.6
		c-0.8-0.8-1.5-1.7-2.1-2.6c-0.6-0.9-0.7-2-0.4-3.3c0.2-0.5,0.5-1,1-1.5c0.5-0.5,1-0.8,1.5-1h2c1.3,1.5,2.8,2.8,4.3,4
		c1.6,1.2,3.3,2.2,5.1,3.2l3.2,0.2c1.6-0.7,3.3-1.4,4.8-2.1c1.6-0.7,2.9-1.9,4.1-3.3c1-1.5,1.8-3.1,2.4-4.8c0.6-1.7,0.8-3.5,0.6-5.5
		c-1-6.8-3.5-12.8-7.7-18.2c-4.1-5.4-8.3-10.7-12.6-16c0.2-1,0.6-1.9,1.2-2.6c0.7-0.7,1.3-1.5,2-2.4c3-2.3,5.8-4.8,8.4-7.4
		c2.6-2.6,4.9-5.5,6.9-8.7v-0.7c-3.5-2.9-7.1-5.4-10.9-7.7c-3.8-2.2-7.7-4.1-11.6-5.6c-0.5-0.5-0.7-1-0.7-1.6c0-0.6,0-1.2,0-1.9
		c0.2-0.5,0.5-1,1-1.5c0.5-0.5,1-0.8,1.5-1h2c4.8,1.5,9.3,3.6,13.6,6.3c4.3,2.7,8.3,5.9,12.1,9.5c0.5,0.7,0.8,1.4,0.9,2.2
		c0.1,0.8,0.1,1.6,0.1,2.4c-1.3,2.1-2.7,4.3-4.2,6.6c-1.5,2.2-3.1,4.3-4.9,6.3l-8.4,7.4v0.7c5.6,5.3,10.2,11.3,13.9,17.9
		c3.6,6.7,5.2,13.9,4.7,21.8c-0.8,2.5-1.9,4.8-3.3,7c-1.4,2.2-3.3,4.2-5.6,6.1c-2,1.2-4.1,2.1-6.3,2.8S432.5,116,429.8,115.9z
		 M477.2,40c-1.8-0.2-3.5-0.7-5.2-1.7c-1.7-1-3.2-2.2-4.6-3.6c-1.5-1.6-2.7-3.4-3.6-5.3c-0.9-1.9-1.4-4-1.4-6.3c0.2-2,0.8-3.8,2-5.4
		c1.2-1.6,2.6-3.2,4.2-4.7c1.4-1.3,2.9-2.2,4.5-2.7c1.6-0.5,3.3-0.7,5.1-0.5c2,0.2,3.8,0.8,5.4,2c1.6,1.2,3.2,2.6,4.7,4.2
		c1.5,1.7,2.5,3.5,3,5.6c0.5,2.1,0.7,4.2,0.5,6.6c-0.2,1.2-0.4,2.4-0.7,3.6c-0.3,1.2-1,2.3-2,3.1l-5.4,4.6L477.2,40z M483.6,100
		c-0.8-0.3-1.5-0.9-2-1.7c-0.5-0.8-1-1.6-1.5-2.4c-1.5-3.5-3.1-6.8-4.9-10c-1.8-3.2-4.1-6.3-6.8-9.3c-0.7-0.3-1.2-0.7-1.7-1.2
		c-0.5-0.5-0.9-1.1-1.2-1.7v-2.2c0.2-0.5,0.5-1,1-1.5c0.5-0.5,1-0.8,1.5-1h2.1c3,2,5.5,4.5,7.7,7.5c2.1,3.1,4,6.1,5.7,9
		c0.8,2,1.8,3.9,2.8,5.7c1.1,1.8,1.8,3.8,2.1,5.9c-0.3,0.7-0.7,1.2-1.1,1.7c-0.4,0.5-0.9,0.8-1.6,1.2H483.6z M479.7,32.3
		c0.5-0.7,1.1-1.1,1.9-1.4c0.7-0.2,1.4-0.6,2.1-1.1c0.7-0.8,1-1.8,1-2.8c0-1.1,0-2.1,0-3.1c-0.3-1-0.9-1.9-1.6-2.8
		c-0.7-0.9-1.5-1.8-2.3-2.6c-0.7-0.5-1.4-0.9-2.2-1.2c-0.8-0.3-1.7-0.4-2.7-0.2c-1,0.3-1.8,0.9-2.5,1.7c-0.7,0.8-1.4,1.6-2.2,2.2
		c-0.2,0.7-0.5,1.3-0.9,1.9c-0.4,0.6-0.5,1.3-0.4,2.1L473,30c0.8,0.8,1.8,1.5,2.8,2c1.1,0.5,2.3,0.7,3.6,0.5L479.7,32.3z"/>
	<path d="M578.5,118.6c-0.5-0.2-1-0.5-1.5-1c-0.5-0.5-0.8-1-1-1.5v-2.2c2-2.3,4.2-4.6,6.6-6.8c2.4-2.2,4.3-4.7,5.8-7.3
		c1-2.1,1.7-4.2,2.2-6.3c0.5-2.1,0.6-4.5,0.2-6.9c-0.3-1.6-1.1-3.1-2.2-4.3c-1.2-1.2-2.3-2.4-3.5-3.6c-1.3-1-2.8-1.8-4.3-2.3
		c-1.6-0.6-3.2-1.1-4.8-1.6h-10.6c-4.3,0.8-8.4,2.1-12.4,3.8c-4,1.7-7.7,4-11.1,6.8l-1.5,2.2c-0.5,0.5-1,0.7-1.6,0.7
		c-0.6,0-1.2,0-1.9,0c-0.5-0.2-1-0.5-1.5-1c-0.5-0.5-0.8-1-1-1.5v-2.7c1.3-6.9,2.8-13.9,4.3-20.8c1.6-6.9,2.9-13.9,4.1-21h-12.2
		l-7.9-0.2l-2.5,0.2l-1.7-1c-0.3-0.5-0.6-1.1-0.9-1.7c-0.2-0.7-0.3-1.3-0.1-2c0.2-0.5,0.5-1,1-1.5c0.5-0.5,1-0.9,1.5-1.1l10.4-0.2
		l0.2,0.2h13.7c0.7-3.1,1.3-6.3,1.9-9.4c0.6-3.1,1.6-6.1,3.1-8.9c0.5-0.3,1-0.5,1.5-0.6c0.5-0.1,1.1-0.1,1.7-0.1
		c0.5,0.2,1,0.5,1.5,1c0.5,0.5,0.8,1,1,1.5v2.2c-0.7,2.3-1.3,4.6-1.9,6.9c-0.6,2.3-0.9,4.7-1.1,7.2h6.7l0.2-0.2h15.3l7.9-0.5
		c0.5,0.2,1,0.5,1.5,1c0.5,0.5,0.8,1,1,1.6v2c-0.2,0.5-0.5,1-1,1.5c-0.5,0.5-1,0.8-1.5,1l-7.9,0.7H559l-8.7,0.2
		c-1,5.6-2.1,11.3-3.3,16.9c-1.2,5.7-2.4,11.3-3.3,16.9h0.5c3.3-2,6.7-3.6,10.3-4.8c3.5-1.2,7.2-2.1,11-2.6h10.9
		c3.1,0.5,6.1,1.4,8.8,2.6c2.7,1.2,5.2,3.2,7.5,5.8c2.7,2.1,4.4,4.7,5.1,7.7c0.7,3,0.8,6.2,0.5,9.6c-0.5,3.1-1.5,6.2-2.9,9.1
		c-1.4,2.9-3.4,5.6-5.9,8.1c-1.7,1.2-3.1,2.6-4.3,4.3c-1.2,1.7-2.8,3-4.6,3.8H578.5z"/>
	<path d="M634.6,97.7l-2.7-1.5c-0.5-0.5-0.7-1.1-0.7-1.9s0-1.4,0-2.1c1.8-3.8,4-7.4,6.4-10.9c2.5-3.5,5.1-6.9,7.9-10.4
		c0.5-0.5,1.1-0.9,1.7-1.1c0.7-0.2,1.4-0.3,2.2-0.1c0.5,0.2,1,0.5,1.5,1c0.5,0.5,0.9,1,1.1,1.5v2.2l-10.5,13.9
		c-0.5,1.5-1.2,2.9-2.1,4.2c-0.9,1.3-1.7,2.7-2.3,4.2L634.6,97.7z M675.5,115.9c-2.1-0.5-4.1-1.4-5.8-2.6s-3.5-2.4-5.3-3.6
		c-0.8-0.8-1.5-1.7-2.1-2.6c-0.6-0.9-0.7-2-0.4-3.3c0.2-0.5,0.5-1,1-1.5c0.5-0.5,1-0.8,1.5-1h2c1.3,1.5,2.8,2.8,4.3,4
		c1.6,1.2,3.3,2.2,5.1,3.2l3.2,0.2c1.6-0.7,3.3-1.4,4.8-2.1c1.6-0.7,2.9-1.9,4.1-3.3c1-1.5,1.8-3.1,2.4-4.8c0.6-1.7,0.8-3.5,0.6-5.5
		c-1-6.8-3.5-12.8-7.7-18.2c-4.1-5.4-8.3-10.7-12.6-16c0.2-1,0.6-1.9,1.2-2.6c0.7-0.7,1.3-1.5,2-2.4c3-2.3,5.8-4.8,8.4-7.4
		c2.6-2.6,4.9-5.5,6.9-8.7v-0.7c-3.5-2.9-7.1-5.4-10.9-7.7c-3.8-2.2-7.7-4.1-11.6-5.6c-0.5-0.5-0.7-1-0.7-1.6c0-0.6,0-1.2,0-1.9
		c0.2-0.5,0.5-1,1-1.5c0.5-0.5,1-0.8,1.5-1h2c4.8,1.5,9.3,3.6,13.6,6.3c4.3,2.7,8.3,5.9,12.1,9.5c0.5,0.7,0.8,1.4,0.9,2.2
		c0.1,0.8,0.1,1.6,0.1,2.4c-1.3,2.1-2.7,4.3-4.2,6.6c-1.5,2.2-3.1,4.3-4.9,6.3l-8.4,7.4v0.7c5.6,5.3,10.2,11.3,13.9,17.9
		C697,84,698.5,91.2,698,99c-0.8,2.5-1.9,4.8-3.3,7c-1.4,2.2-3.3,4.2-5.6,6.1c-2,1.2-4.1,2.1-6.3,2.8S678.2,116,675.5,115.9z
		 M722.9,40c-1.8-0.2-3.5-0.7-5.2-1.7c-1.7-1-3.2-2.2-4.6-3.6c-1.5-1.6-2.7-3.4-3.6-5.3c-0.9-1.9-1.4-4-1.4-6.3c0.2-2,0.8-3.8,2-5.4
		c1.2-1.6,2.6-3.2,4.2-4.7c1.4-1.3,2.9-2.2,4.5-2.7c1.6-0.5,3.3-0.7,5.1-0.5c2,0.2,3.8,0.8,5.4,2c1.6,1.2,3.2,2.6,4.7,4.2
		c1.5,1.7,2.5,3.5,3,5.6c0.5,2.1,0.7,4.2,0.5,6.6c-0.2,1.2-0.4,2.4-0.7,3.6c-0.3,1.2-1,2.3-2,3.1l-5.4,4.6L722.9,40z M729.3,100
		c-0.8-0.3-1.5-0.9-2-1.7c-0.5-0.8-1-1.6-1.5-2.4c-1.5-3.5-3.1-6.8-4.9-10c-1.8-3.2-4.1-6.3-6.8-9.3c-0.7-0.3-1.2-0.7-1.7-1.2
		c-0.5-0.5-0.9-1.1-1.2-1.7v-2.2c0.2-0.5,0.5-1,1-1.5c0.5-0.5,1-0.8,1.5-1h2.1c3,2,5.5,4.5,7.7,7.5c2.1,3.1,4,6.1,5.7,9
		c0.8,2,1.8,3.9,2.8,5.7c1.1,1.8,1.8,3.8,2.1,5.9c-0.3,0.7-0.7,1.2-1.1,1.7c-0.4,0.5-0.9,0.8-1.6,1.2H729.3z M725.4,32.3
		c0.5-0.7,1.1-1.1,1.9-1.4c0.7-0.2,1.4-0.6,2.1-1.1c0.7-0.8,1-1.8,1-2.8c0-1.1,0-2.1,0-3.1c-0.3-1-0.9-1.9-1.6-2.8
		c-0.7-0.9-1.5-1.8-2.3-2.6c-0.7-0.5-1.4-0.9-2.2-1.2c-0.8-0.3-1.7-0.4-2.7-0.2c-1,0.3-1.8,0.9-2.5,1.7c-0.7,0.8-1.4,1.6-2.2,2.2
		c-0.2,0.7-0.5,1.3-0.9,1.9c-0.4,0.6-0.5,1.3-0.4,2.1l3.2,5.2c0.8,0.8,1.8,1.5,2.8,2c1.1,0.5,2.3,0.7,3.6,0.5L725.4,32.3z"/>
	<path d="M821.7,118.6c-0.5-0.2-1-0.5-1.5-1c-0.5-0.5-0.8-1-1-1.5v-2.2c2-2.3,4.2-4.6,6.6-6.8c2.4-2.2,4.3-4.7,5.8-7.3
		c1-2.1,1.7-4.2,2.2-6.3c0.5-2.1,0.6-4.5,0.2-6.9c-0.3-1.6-1.1-3.1-2.2-4.3c-1.2-1.2-2.3-2.4-3.5-3.6c-1.3-1-2.8-1.8-4.3-2.3
		c-1.6-0.6-3.2-1.1-4.8-1.6h-10.6c-4.3,0.8-8.4,2.1-12.4,3.8c-4,1.7-7.7,4-11.1,6.8l-1.5,2.2c-0.5,0.5-1,0.7-1.6,0.7
		c-0.6,0-1.2,0-1.9,0c-0.5-0.2-1-0.5-1.5-1c-0.5-0.5-0.8-1-1-1.5v-2.7c1.3-6.9,2.8-13.9,4.3-20.8c1.6-6.9,2.9-13.9,4.1-21h-12.2
		l-7.9-0.2l-2.5,0.2l-1.7-1c-0.3-0.5-0.6-1.1-0.9-1.7c-0.2-0.7-0.3-1.3-0.1-2c0.2-0.5,0.5-1,1-1.5c0.5-0.5,1-0.9,1.5-1.1l10.4-0.2
		l0.2,0.2h13.7c0.7-3.1,1.3-6.3,1.9-9.4c0.6-3.1,1.6-6.1,3.1-8.9c0.5-0.3,1-0.5,1.5-0.6c0.5-0.1,1.1-0.1,1.7-0.1
		c0.5,0.2,1,0.5,1.5,1c0.5,0.5,0.8,1,1,1.5v2.2c-0.7,2.3-1.3,4.6-1.9,6.9c-0.6,2.3-0.9,4.7-1.1,7.2h6.7l0.2-0.2h15.3l7.9-0.5
		c0.5,0.2,1,0.5,1.5,1c0.5,0.5,0.8,1,1,1.6v2c-0.2,0.5-0.5,1-1,1.5c-0.5,0.5-1,0.8-1.5,1l-7.9,0.7h-15.3l-8.7,0.2
		c-1,5.6-2.1,11.3-3.3,16.9c-1.2,5.7-2.4,11.3-3.3,16.9h0.5c3.3-2,6.7-3.6,10.3-4.8c3.5-1.2,7.2-2.1,11-2.6h10.9
		c3.1,0.5,6.1,1.4,8.8,2.6c2.7,1.2,5.2,3.2,7.5,5.8c2.7,2.1,4.4,4.7,5.1,7.7c0.7,3,0.8,6.2,0.5,9.6c-0.5,3.1-1.5,6.2-2.9,9.1
		c-1.4,2.9-3.4,5.6-5.9,8.1c-1.7,1.2-3.1,2.6-4.3,4.3c-1.2,1.7-2.8,3-4.6,3.8H821.7z"/>
</g>
</svg>
