<?xml version="1.0" encoding="utf-8"?>
<!-- Generator: Adobe Illustrator 24.1.2, SVG Export Plug-In . SVG Version: 6.00 Build 0)  -->
<svg version="1.1" id="レイヤー_1" xmlns="http://www.w3.org/2000/svg" xmlns:xlink="http://www.w3.org/1999/xlink" x="0px"
	 y="0px" viewBox="0 0 100 100" style="enable-background:new 0 0 100 100;" xml:space="preserve">
<style type="text/css">
	.st0{fill:#FFFFFF;}
</style>
<g>
	<path d="M20.3,79c-4-4-6.3-9-8.3-13.8C10,60.2,8.9,55,8.9,49.6s1.6-10.5,3.6-15.5c2-4.8,4.7-9.3,8.6-13.2c4-4,8.1-7.4,12.9-9.4
		C39,9.4,44.3,8,49.7,8c5.4,0,10.5,2,15.5,4c4.8,2,9.6,4.4,13.6,8.3c4,4,6.4,8.7,8.4,13.5c2.1,5,3.1,10.2,3.1,15.6
		s-0.6,10.7-2.7,15.7c-2,4.8-4.5,9.8-8.5,13.7c-4,4-8.8,6.6-13.6,8.6c-5,2.1-10.3,3.5-15.7,3.5s-10.4-2.2-15.4-4.2
		C29.4,84.9,24.3,83,20.3,79z"/>
</g>
<g>
	<g>
		<g>
			<g>
				<path class="st0" d="M76.4,37c-0.9,0.4-2,0.8-3,1c-1,0.3-2.1,0.5-3.2,0.6c1.1-0.6,2-1.6,2.8-2.5c0.8-1,1.5-1.9,1.9-3.1
					c-1,0.6-2,1.1-3.1,1.6c-1.1,0.4-2.3,0.8-3.4,1c-1-1-2.1-1.9-3.4-2.5c-1.3-0.5-2.6-0.9-4.1-0.9c-1.1,0-2.2,0-3.2,0.3
					c-1,0.3-2,1-2.9,1.6c-0.9,0.6-1.6,1.5-2.2,2.4c-0.6,0.9-1.2,1.8-1.5,2.8c-0.3,1-0.4,2.1-0.4,3.2c0,0.8,0.1,1.8,0.3,2.5
					c-1.2-0.1-2.4-0.5-3.6-0.7c-1.2-0.2-2.4-0.1-3.5-0.4c-1.1-0.3-2.2-0.8-3.3-1.3c-1.1-0.5-2-1.2-3-1.8c-1-0.6-2-1.2-2.9-1.9
					c-0.9-0.7-1.9-1.3-2.8-2.1c-0.8-0.8-1.5-1.9-2.3-2.8c-0.5,0.8-0.7,1.8-0.9,2.7c-0.2,0.9-0.4,1.7-0.4,2.7c0,1.2,0,2.3,0.3,3.3
					c0.4,1.1,1.1,2,1.7,2.9c0.7,0.9,1.4,1.6,2.3,2.2c-1.7,0-3.1-0.6-4.5-1.3c0,0,0,0.2,0,0.3c0,1.2,0.3,2.3,0.6,3.4
					c0.4,1.1,0.9,2.2,1.6,3.1c0.7,0.9,1.7,1.6,2.7,2.2c1,0.6,2,1.2,3.2,1.4c-0.8,0.2-1.7,0.3-2.7,0.3c-0.7,0-1.2,0-1.8-0.1
					c0.3,1,0.6,2,1.2,2.9c0.6,0.9,1.5,1.5,2.4,2.1c0.8,0.6,1.8,1.1,2.8,1.4c1,0.3,2.1,0.6,3.2,0.7c-0.9,0.7-1.9,1.5-2.9,2
					c-1,0.5-2.1,0.9-3.2,1.3c-1.1,0.4-2.2,0.7-3.3,0.9c-1.1,0.2-2.3,0.2-3.4,0.2c-0.8,0-1.6-0.1-2.4-0.2c0.9,0.6,1.8,1.2,2.8,1.7
					c1,0.5,2.1,0.8,3.1,1.2c1,0.4,2.1,0.6,3.2,0.9c1.1,0.2,2.1,0.6,3.3,0.7c1.1,0.1,2.2,0.4,3.3,0.4c1.2,0,2.4-0.2,3.5-0.3
					c1.2-0.1,2.4-0.2,3.5-0.5c1.2-0.3,2.2-0.9,3.3-1.3c1.1-0.4,2.3-0.6,3.4-1.2c1.1-0.6,2-1.3,2.9-2c1-0.7,2.1-1.2,2.9-2
					c0.9-0.8,1.5-1.9,2.2-2.8c0.8-0.9,1.5-1.8,2.1-2.8c0.7-1,1.3-1.9,1.9-3c0.5-1.1,1.1-2.1,1.5-3.2c0.4-1.1,0.7-2.3,1-3.4
					c0.3-1.2,0.4-2.3,0.5-3.5c0.2-1.2,0.6-2.3,0.6-3.5c0-0.5-0.2-0.9-0.2-1.4c1-0.7,1.9-1.6,2.8-2.5C74.8,39,75.8,38.1,76.4,37z"/>
			</g>
		</g>
	</g>
</g>
</svg>
